<?xml version="1.0" encoding="UTF-8" standalone="no"?>
<!--
************* Copyright (c) 2015 Pareto Softare, LLC DBA Simplemaps.com *******************		
************* Offered under the MIT License http://opensource.org/licenses/MIT ************
************* Attribution is appreciated! http://simplemaps.com ***************************
************* Modifications / Corrections by Open Risk 2017   ***************************
-->

<svg
   xmlns:svg="http://www.w3.org/2000/svg"
   xmlns="http://www.w3.org/2000/svg"
   viewBox="0 0 1400 1100"
   preserveAspectRatio="xMidYMin slice"
   style="fill:none;stroke:#000000;stroke-linejoin:round;height:100%;overflow:visible"
   version="1.1"
   id="svg_map">
  <path class="country"
     id="AL"
     data-name="Albania"
     data-id="AL"
     d="m 941.73774,791.5062 -8.57018,13.31851 2.31627,8.68598 v 0 l 4.16927,4.28509 -2.31626,8.45437 -0.34745,18.76173 3.12697,13.20271 13.31852,9.26506 1.04231,6.13809 4.05346,1.96882 9.38087,-13.55014 0.57907,-9.03342 7.06461,-3.93765 -0.23163,-7.29624 -9.95994,-6.60134 -4.28509,-11.81295 1.96882,-9.26506 v 0 l -2.43207,-9.84411 -5.67484,-2.77952 -5.44322,-7.29624 -5.90648,2.43209 z"
     style="fill:#f9f9f9;fill-rule:evenodd;stroke-width:1.15813184" />
  <path class="country"
     id="AT"
     data-name="Austria"
     data-id="AT"
     d="m 865.76429,630.41005 -10.42319,-5.21159 -10.07574,1.38976 -17.4878,-8.33856 -7.41204,2.08465 -11.34969,11.23387 -16.79291,-8.8018 -6.71717,12.62364 -7.64367,3.47439 4.28509,17.83523 -1.7372,4.63253 -7.18041,-5.55903 -10.42319,-0.92651 -15.40315,4.97997 -19.22499,-1.15813 -2.77952,7.18041 -11.46551,-7.64367 -6.48553,1.62139 1.04231,4.86415 -3.01114,6.71717 10.19156,4.97996 11.23388,0.69488 13.43433,3.93765 2.31626,-5.2116 21.30963,-4.74833 5.55904,9.49668 31.84862,7.0646 18.29849,2.08464 10.6548,-6.1381 19.10919,-0.69488 3.82183,-4.63252 5.90647,-17.71943 -4.74834,-5.90646 h 12.27619 l 0.69489,-11.23388 -3.01115,-9.49669 z"
     style="fill:#f9f9f9;fill-rule:evenodd;stroke-width:1.15813184" />
  <path class="country"
     id="BE"
     data-name="Belgium"
     data-id="BE"
     d="m 603.56324,552.12034 -19.57243,5.55903 -15.63478,-2.08464 v 0 l -17.02454,5.32741 3.24277,9.49668 9.95993,0.46325 10.19156,10.88645 15.28734,12.85526 11.00226,-2.20046 19.10917,12.50782 1.85301,-15.28734 5.55904,-1.04231 1.853,-18.29849 -11.92875,-6.36972 z"
     style="fill:#f9f9f9;fill-rule:evenodd;stroke-width:1.15813184" />
  <path class="country"
     id="BG"
     data-name="Bulgaria"
     data-id="BG"
     d="m 1136.4195,763.82684 -13.5502,-2.77952 -17.6035,-9.84412 -25.4788,6.25391 -10.1915,6.9488 -33.0068,-1.38976 -17.6037,-4.28509 -8.4542,1.96882 -7.6437,-11.11806 -4.86415,6.13809 3.12695,9.84413 12.0445,11.69713 -7.5278,8.45436 -2.8953,8.68599 2.7795,3.24277 -3.3585,3.82184 12.2762,8.68598 3.4743,18.06686 16.7929,0.81069 17.372,-7.52786 17.0244,9.49669 20.2672,-2.54789 -1.3897,-13.55015 22.0045,-8.57017 19.9199,3.59021 -9.2651,-15.51897 5.5591,-19.3408 z"
     style="fill:#f9f9f9;fill-rule:evenodd;stroke-width:1.15813184" />
  <path class="country"
     id="BA"
     data-name="Bosnia and Herz."
     data-id="BA"
     d="m 874.56609,722.48153 -10.30737,0.57907 -4.40091,5.67484 -8.45435,-6.25391 -3.70603,11.23388 11.81295,12.73946 5.55903,8.33854 11.11807,10.19156 9.03343,5.90648 9.38086,11.34969 20.73056,10.30737 1.96883,-14.9399 6.71717,-6.25391 3.93765,-2.54789 5.21158,-1.15814 2.08464,-12.73945 -11.81294,-10.42318 4.51672,-11.92876 -8.10693,0.11581 v 0 l -10.539,-6.02228 -15.28734,0.34744 z"
     style="fill:#f9f9f9;fill-rule:evenodd;stroke-width:1.15813184" />
  <path class="country"
     id="BY"
     data-name="Belarus"
     data-id="BY"
     d="m 1097.3904,433.75925 -22.815,-6.60134 -20.1516,10.19156 -11.697,4.4009 4.0534,11.81294 -15.519,8.57017 -2.3163,14.93991 -21.0778,9.95993 -20.15153,-0.11581 2.66371,11.69713 7.29623,10.19156 1.5056,10.65482 -11.92879,5.44322 8.33855,12.50782 2.08464,11.92876 9.95989,-1.04233 10.539,-7.29622 16.3296,-0.57906 21.7729,2.08463 24.6682,6.48554 16.9086,0.46326 8.5702,3.93764 7.1804,-4.63253 6.7172,6.25391 18.9934,-1.27394 8.9176,2.54789 -1.1582,-13.55014 5.4433,-5.90648 17.951,-1.62138 v 0 l -8.5702,-17.14035 -6.6013,-8.8018 3.4743,-2.54789 17.1405,0.9265 6.9487,-5.79065 -7.4121,-7.18043 -15.0556,-4.63252 0.2316,-4.86415 -9.3809,-4.86416 -16.5613,-17.25616 3.0112,-7.18043 -4.5168,-12.392 -21.4254,-6.25391 -10.0757,3.12695 z"
     style="fill:#f9f9f9;fill-rule:evenodd;stroke-width:1.15813184" />
  <path class="country"
     id="CH"
     data-name="Switzerland"
     data-id="CH"
     d="m 707.44767,659.8266 -23.85753,-8.45437 -4.16926,6.02229 -18.53012,-0.23162 -5.90647,4.63252 -9.95994,-2.43208 0.92652,6.9488 -15.51897,15.40315 v 12.39201 l 10.42319,-4.28508 7.87528,11.92875 9.72832,5.90648 10.65481,-1.27395 11.92875,-9.26505 4.05347,4.28509 10.42318,-0.8107 4.2851,-11.11806 16.44547,3.47439 9.49668,-4.63252 1.15813,-11.23389 -11.23388,-0.69488 -10.19156,-4.97996 3.01114,-6.71717 z"
     style="fill:#f9f9f9;fill-rule:evenodd;stroke-width:1.15813184" />
  <path class="country"
     id="CZ"
     data-name="Czech Rep."
     data-id="CZ"
     d="m 817.93344,562.08027 -9.26505,2.77952 -5.90647,-3.12696 -4.86415,5.21159 -14.93991,5.2116 -7.41204,6.71716 -15.17153,5.90647 4.28508,8.10693 3.12696,11.4655 11.3497,6.60136 13.08689,11.81294 16.79291,8.8018 11.34969,-11.23387 7.41204,-2.08465 17.4878,8.33856 10.07574,-1.38976 10.42319,5.21159 2.54789,-6.02229 9.61249,0.46326 7.18042,-2.89534 0.34745,-2.54789 3.93764,-1.27394 0.81069,-6.25391 4.86416,-1.15813 2.89533,-4.86415 h 6.36972 l -11.23387,-13.43434 -16.09804,-1.73719 -2.89533,-8.45437 -15.05572,-3.01113 -2.54789,6.94878 -12.16038,-5.55904 0.69488,-7.52785 -16.21384,-2.31626 z"
     style="fill:#f9f9f9;fill-rule:evenodd;stroke-width:1.15813184" />
  <path class="country"
     id="DE"
     data-name="Germany"
     data-id="DE"
     d="m 792.68617,490.97097 -10.539,-8.45436 -24.32077,-10.42318 -11.11807,7.18041 -20.84636,5.09578 -0.46326,-9.49668 -21.42545,-6.1381 -1.04231,-10.30738 -12.97108,4.05347 -15.8664,-3.4744 1.853,15.05572 5.32741,9.95993 -13.55014,13.08689 -4.16927,-5.90647 -17.37199,1.50557 -3.82183,5.67484 4.28509,8.91762 -4.16928,24.55239 -4.97996,10.07575 h -12.73945 l 4.63252,28.37423 -1.853,18.29849 4.51671,6.13809 -0.81069,11.92876 10.42318,7.18043 31.38538,4.97996 -10.19157,18.76174 -1.96882,19.57243 18.53012,0.23162 4.16926,-6.02229 23.85753,8.45437 6.48553,-1.62139 11.46551,7.64367 2.77952,-7.18041 19.22499,1.15813 15.40315,-4.97997 10.42319,0.92651 7.18041,5.55903 1.7372,-4.63253 -4.28509,-17.83523 7.64367,-3.47439 6.71717,-12.62364 -13.08689,-11.81294 -11.3497,-6.60136 -3.12696,-11.4655 -4.28508,-8.10693 15.17153,-5.90647 7.41204,-6.71716 14.93991,-5.2116 4.86415,-5.21159 5.90647,3.12696 9.26505,-2.77952 -10.19156,-17.25617 0.81069,-9.26505 -6.48554,-14.36083 -8.45435,-9.49669 5.21159,-7.18041 z"
     style="fill:#f9f9f9;fill-rule:evenodd;stroke-width:1.15781246" />
  <path class="country"
     id="DK"
     data-name="Denmark"
     data-id="DK"
     d="m 758.86872,441.86618 -7.64367,-13.20271 -29.41655,8.80181 3.59021,10.88644 22.81519,14.93991 z m -38.21835,-22.23614 -11.3497,-4.05345 -3.01114,-7.29624 5.44323,-8.57017 -0.34745,-13.31852 -15.63478,7.29624 -6.71716,7.18041 -17.71942,1.62139 -5.44322,7.8753 -3.01115,7.0646 2.08465,26.86866 9.14924,14.70827 15.8664,3.4744 12.97108,-4.05347 -6.36973,-12.85526 13.55015,-18.87755 6.25391,2.77952 z"
     style="fill:#f9f9f9;fill-rule:evenodd;stroke-width:1.15813184" />
  <path class="country"
     id="EE"
     data-name="Estonia"
     data-id="EE"
     d="m 1011.1098,337.63431 -24.32073,3.70602 -23.97333,7.18043 4.28509,14.82408 14.24502,9.26506 6.83298,-3.24277 0.23163,15.28734 16.44544,-4.51672 9.3809,3.12696 19.109,9.72831 h 16.6772 l 7.0646,-8.22274 -10.6549,-24.32076 11.3498,-14.8241 -3.9377,-4.51672 v 0 l -20.3831,0.8107 z"
     style="fill:#f9f9f9;fill-rule:evenodd;stroke-width:1.15813184" />
  <path class="country"
     id="FI"
     data-name="Finland"
     data-id="FI"
     d="m 1012.1522,103.46005 3.3585,-16.561288 -25.24724,-9.265047 -25.71052,7.875299 -4.74834,17.256156 -14.93991,10.53901 -20.61474,-5.79067 -23.27846,1.15813 -22.35193,-12.392 -9.6125,6.13809 26.17378,11.69714 31.50118,16.21384 7.8753,37.17603 8.10693,9.49668 28.25841,11.58132 4.05347,10.42319 -11.46551,5.09578 -38.33416,26.86866 -14.59247,15.75059 -6.83298,14.59247 13.08689,22.81519 -0.34744,25.01565 20.49893,8.45436 13.66597,13.89759 31.26956,-5.32741 33.00678,-9.38087 35.2071,-2.08464 v 0 l 34.8596,-32.54351 14.5925,-14.59245 4.1693,-12.73945 -32.4276,-17.25617 3.9377,-16.21384 -21.4255,-18.4143 7.5279,-21.078 -28.3742,-27.67935 12.5078,-18.18267 -31.8486,-15.98223 z"
     style="fill:#f9f9f9;fill-rule:evenodd;stroke-width:1.15813184" />
  <path class="country"
     id="GB"
     data-name="United Kingdom"
     data-id="GB"
     d="m 380.27541,469.77716 -21.42543,-16.32966 -17.37199,1.15813 3.59021,14.12921 -4.97997,14.24502 12.85527,-0.34743 15.51897,5.44321 z m 57.32752,-107.01138 -24.20495,2.20045 -15.8664,-1.96882 -16.44548,21.07799 -8.45436,26.98447 9.72831,13.31852 0.23162,25.4789 11.58132,-12.50782 6.48554,7.29623 -7.8753,11.81294 4.74835,7.0646 25.01564,4.74835 0.34745,0.34743 13.55013,16.32967 -3.35857,15.40315 h -0.11582 l -31.03793,-2.31626 -4.51671,17.48779 11.23387,14.36084 -22.35195,8.33854 5.67485,10.65482 33.00676,4.51671 h 0.23163 l -19.22499,5.90647 -32.19607,28.37423 11.23388,5.44323 15.40315,-10.30738 19.80406,3.01114 14.36084,-12.62364 9.95993,5.32741 36.48116,-7.52785 28.49004,0.34744 19.10918,-14.24502 -8.57019,-13.89758 10.77063,-7.8753 2.43208,-17.14036 -25.59471,-5.09578 -6.02229,-10.539 -12.73945,-30.34305 -14.24502,-4.28509 -18.06686,-31.15375 -1.50557,-2.77952 -21.19382,-1.62138 18.76175,-23.51008 5.55902,-21.30963 -22.12031,-0.1158 -20.61475,3.47439 z"
     style="fill:#f9f9f9;fill-rule:evenodd;stroke-width:1.15813184" />
  <path class="country"
     id="GR"
     data-name="Greece"
     data-id="GR"
     d="m 1075.1544,1009.3509 33.3541,-2.4322 2.2005,-8.33844 -12.392,3.35854 0.1158,-4.86416 -17.4877,-2.08463 -18.0668,1.62139 -13.4344,-9.6125 -3.3586,12.16041 28.8375,5.55899 z m 24.784,-187.27003 -11.9288,-7.18042 1.3897,13.55015 -20.2672,2.54789 -17.0244,-9.49669 -17.372,7.52786 -16.7929,-0.81069 -4.2851,0.9265 -3.2428,4.74835 -12.39195,-0.57907 -7.99111,6.02228 -14.70827,2.43208 0.23163,7.29624 -7.06461,3.93765 -0.57907,9.03342 -9.38087,13.55014 2.20045,7.99111 12.97108,16.09803 10.07575,13.08689 5.44322,18.87756 10.42318,22.81524 20.03567,12.50783 15.4031,-0.46326 -10.8865,-25.13147 14.4767,-3.01114 -8.107,-14.5925 22.0046,7.64367 -1.7373,-16.09804 -12.1603,-8.22273 -14.0134,-13.08689 8.1069,-6.13809 -12.6236,-13.20271 -6.7171,-16.6771 3.706,-6.02228 13.4342,14.24501 h 12.7395 l 11.118,-4.51671 -17.3719,-15.63478 26.7529,-7.0646 12.1604,2.54789 13.8974,0.81069 5.0958,-3.12696 z"
     style="fill:#f9f9f9;fill-rule:evenodd;stroke-width:1.15813184" />
  <path class="country"
     id="HR"
     data-name="Croatia"
     data-id="HR"
     d="m 886.72648,702.9091 -17.37198,-11.81294 -7.29623,-3.35859 -16.90873,7.29623 -1.38975,11.00226 -7.41205,2.89533 0.69488,7.52786 -8.8018,-0.46326 -7.75949,-4.51671 -3.70602,4.63253 -15.51896,-0.92651 -0.81069,0.46325 0.1158,9.49668 7.18042,9.03343 6.02229,-11.69713 14.59246,4.28509 1.04232,9.14924 11.00226,11.46551 -4.40091,1.96882 20.38312,19.91987 21.078,8.10693 13.78177,9.7283 22.00451,9.95993 v 0 l 2.08463,-4.51671 -20.73056,-10.30737 -9.38086,-11.34969 -9.03343,-5.90648 -11.11807,-10.19156 -5.55903,-8.33854 -11.81295,-12.73946 3.70603,-11.23388 8.45435,6.25391 4.40091,-5.67484 10.30737,-0.57907 19.45662,4.51672 15.28734,-0.34744 10.539,6.02228 v 0 l 7.64367,-10.30737 -7.75948,-7.75949 -6.36973,-10.539 v 0 l -7.8753,4.05346 z"
     style="fill:#f9f9f9;fill-rule:evenodd;stroke-width:1.15813184" />
  <path class="country"
     id="HU"
     data-name="Hungary"
     data-id="HU"
     d="m 949.03397,629.59935 -6.9488,1.7372 -4.40089,6.48554 -9.84412,3.35858 -2.54789,-1.73719 -10.19157,4.28508 -8.57017,0.8107 -1.15813,5.44321 -18.06686,3.35859 -8.22274,-3.01115 -11.69712,-6.94878 -0.69489,11.23388 H 854.4146 l 4.74834,5.90646 -5.90647,17.71943 3.70602,0.23162 5.09578,9.26505 7.29623,3.35859 17.37198,11.81294 18.76173,5.21159 7.8753,-4.05346 v 0 l 16.21384,-7.18041 13.89758,1.15813 17.14036,-5.09578 11.23387,-18.64592 8.33856,-18.53011 12.62363,-5.79067 -2.31626,-7.29622 -12.97107,-7.52786 -4.2851,2.77952 z"
     style="fill:#f9f9f9;fill-rule:evenodd;stroke-width:1.15813184" />
  <path class="country"
     id="IE"
     data-name="Ireland"
     data-id="IE"
     d="m 368.46247,488.07564 -15.51897,-5.44321 -12.85527,0.34743 4.97997,-14.24502 -3.59021,-14.12921 -16.32965,12.2762 -29.53237,20.84638 9.38088,27.10027 -18.76175,28.0268 29.87981,4.05347 38.21835,-15.86641 16.90872,-23.97333 z"
     style="fill:#f9f9f9;fill-rule:evenodd;stroke-width:1.15813184" />
  <path class="country"
     id="IS"
     data-name="Iceland"
     data-id="IS"
     d="m 229.13921,165.99918 -30.57469,-1.73721 -31.96444,13.0869 -22.35195,-6.9488 -30.45886,13.31852 -26.05797,-16.56128 -28.837486,3.5902 -15.750587,15.98223 38.218353,5.67484 -0.463257,7.18041 -34.164895,4.74835 38.913238,12.16038 -20.61475,11.00226 51.768494,7.87529 24.5524,3.70602 17.14035,-4.63253 56.98009,-17.02453 26.63703,-18.87756 -19.22499,-16.67709 z"
     style="fill:#f9f9f9;fill-rule:evenodd;stroke-width:1.15813184" />
  <path class="country"
     id="IT"
     data-name="Italy"
     data-id="IT"
     d="m 854.99366,914.96305 -17.25616,2.43208 -23.39426,3.12695 -27.10029,-2.54789 -2.54789,14.5925 33.00676,14.47665 11.92876,3.12697 18.29848,10.77062 4.05347,-14.70828 -3.93765,-8.80181 z m -148.35669,-83.26969 -11.00225,8.57019 -12.50782,-1.38976 5.67484,15.75058 2.08464,33.70164 9.03343,7.52786 8.91761,-9.49668 10.53901,1.85301 1.73719,-36.94441 z m 62.88657,-151.1362 -5.55904,-9.49668 -21.30963,4.74833 -2.31626,5.2116 -13.43433,-3.93765 -1.15813,11.23389 -9.49668,4.63252 -16.44547,-3.47439 -4.2851,11.11806 -10.42318,0.8107 -4.05347,-4.28509 -11.92875,9.26505 -10.65481,1.27395 -9.72832,-5.90648 -0.57906,7.75948 6.83298,10.19156 -7.41205,8.33856 6.48554,20.96219 12.16039,3.47439 -2.08463,11.81295 9.14923,-2.08465 12.39202,-12.50782 10.07574,-3.70602 18.64592,9.03343 11.23389,3.12695 8.33854,26.75285 15.98223,15.63477 21.65706,17.71943 18.4143,12.27619 16.79291,1.7372 10.53899,11.11807 14.93991,4.97996 7.41204,11.92876 9.72832,3.4744 7.87528,14.1292 9.95994,16.32967 -4.63253,6.02228 -3.70602,15.17153 0.34744,8.68598 9.49668,-2.20044 10.77063,-24.32077 9.49668,-1.62139 1.73719,-14.70827 -17.25615,-10.42318 8.33854,-17.95105 20.1515,4.51671 13.66595,12.97108 3.4744,-9.95993 -2.77952,-5.2116 -20.61475,-14.36083 -17.25616,-8.33855 -21.078,-9.84412 6.02229,-5.44322 -6.02229,-6.02229 -17.6036,0.23163 -26.63703,-21.88869 -12.73945,-22.46777 -21.77289,-13.55013 -8.10692,-13.89758 2.20045,-7.64367 -1.96882,-13.55015 17.37197,-9.72831 17.83523,4.05347 -6.13809,-11.69714 1.50557,-13.43433 z"
     style="fill:#f9f9f9;fill-rule:evenodd;stroke-width:1.15813184" />
  <path class="country"
     id="LT"
     data-name="Lithuania"
     data-id="LT"
     d="m 1042.7268,441.75037 -21.8887,-12.73945 -11.2339,-1.7372 -3.8217,-5.44322 -19.5725,2.66371 -34.62814,-1.7372 -22.23613,8.10692 7.52786,22.12032 22.23613,4.63253 9.72831,4.16927 -1.04232,7.29623 2.54789,6.71717 11.11806,2.89533 6.25391,8.22273 20.15153,0.11581 21.0778,-9.95993 2.3163,-14.93991 15.519,-8.57017 z"
     style="fill:#f9f9f9;fill-rule:evenodd;stroke-width:1.15813184" />
  <path class="country"
     id="LU"
     data-name="Luxembourg"
     data-id="LU"
     d="m 631.24259,606.66834 0.81069,-11.92876 -4.51671,-6.13809 -5.55904,1.04231 -1.85301,15.28734 4.86416,2.31627 z"
     style="fill:#f9f9f9;fill-rule:evenodd;stroke-width:1.15813184" />
  <path class="country"
     id="LV"
     data-name="Latvia"
     data-id="LV"
     d="m 1050.023,392.99302 h -16.6772 l -19.109,-9.72831 -9.3809,-3.12696 -16.44544,4.51672 -0.46326,20.03568 -16.21385,0.57907 -19.22499,-19.57243 -17.71941,8.91761 -7.52786,16.44547 2.08464,19.80406 22.23613,-8.10692 34.62814,1.7372 19.5725,-2.66371 3.8217,5.44322 11.2339,1.7372 21.8887,12.73945 11.697,-4.4009 20.1516,-10.19156 -9.4967,-15.40315 -4.1692,-12.73945 z"
     style="fill:#f9f9f9;fill-rule:evenodd;stroke-width:1.15813184" />
  <path class="country"
     id="MD"
     data-name="Moldova"
     data-id="MD"
     d="m 1122.5219,715.53275 5.0958,-3.01115 2.5479,-9.38087 4.7484,-8.68599 -2.2005,-4.86415 4.2851,-2.20046 2.6636,3.82184 13.0869,0.8107 5.5591,-2.08465 -4.5167,-2.77951 0.9265,-4.05346 -8.6859,-6.94879 -4.8643,-11.46551 -8.5701,-4.51671 0.1158,-9.26505 -10.8864,-7.41205 -9.1493,-1.04232 -17.2562,-8.45436 -14.0133,2.6637 -4.6324,4.05347 6.9487,2.6637 7.8752,8.10692 8.5702,11.58131 14.9399,16.32967 2.4321,12.04457 -0.6949,11.58131 z"
     style="fill:#f9f9f9;fill-rule:evenodd;stroke-width:1.15813184" />
  <path class="country"
     id="MK"
     data-name="Macedonia"
     data-id="MK"
     d="m 1014.4685,810.15211 -12.2762,-8.68598 -10.42326,0.46324 -7.41204,1.50558 -4.97997,1.04231 -12.97108,4.28509 -0.46325,5.55904 -2.89534,-0.23163 v 0 l -1.96882,9.26506 4.28509,11.81295 9.95994,6.60134 14.70827,-2.43208 7.99111,-6.02228 12.39195,0.57907 3.2428,-4.74835 4.2851,-0.9265 z"
     style="fill:#f9f9f9;fill-rule:evenodd;stroke-width:1.15813184" />
  <path class="country"
     id="ME"
     data-name="Montenegro"
     data-id="ME"
     d="m 953.08743,788.14761 1.62139,-2.43208 -9.03343,-5.55903 -7.64367,-2.89533 -3.70602,-3.82183 -6.36972,-4.63253 -3.93765,2.54789 -6.71717,6.25391 -1.96883,14.9399 -2.08463,4.51671 v 0 l 10.19156,5.44322 7.18041,8.91762 4.86416,2.08463 v 0 l -2.31627,-8.68598 8.57018,-13.31851 1.85301,5.09578 5.90648,-2.43209 z"
     style="fill:#f9f9f9;fill-rule:evenodd;stroke-width:1.15813184" />
  <path class="country"
     id="NL"
     data-name="Netherlands"
     data-id="NL"
     d="m 624.75705,541.92877 h 12.73945 l 4.97996,-10.07575 4.16928,-24.55239 -4.28509,-8.91762 -17.37197,-0.81068 -28.37423,11.11806 -17.48779,39.4923 -10.77063,7.41204 v 0 l 15.63478,2.08464 19.57243,-5.55903 13.89758,11.81294 11.92875,6.36972 z"
     style="fill:#f9f9f9;fill-rule:evenodd;stroke-width:1.15813184" />
  <path class="country"
     id="NO"
     data-name="Norway"
     data-id="NO"
     d="m 991.88485,53.892009 -30.45887,4.632524 -32.19607,-1.042312 -22.69938,19.224991 -29.53236,-1.158142 -37.06022,10.191561 -44.8197,29.648179 -27.91099,17.95104 -39.14485,46.78853 -31.15375,34.2807 -35.55464,25.71053 -49.56805,21.078 -17.14034,16.21385 8.45435,58.83309 8.22273,27.79517 28.37425,13.2027 26.52121,-6.1381 37.40766,-29.8798 14.59246,15.86641 7.52786,-14.9399 15.05571,-17.60361 3.70602,-29.99561 -13.66595,-12.85526 -4.28509,-33.47001 10.19156,-23.39427 18.87755,0.46326 5.55903,-9.84413 -7.75948,-8.45436 25.01565,-34.62814 14.9399,-26.86866 9.7283,-17.02454 h 17.4878 l 2.77952,-13.2027 34.74395,3.82183 -0.11581,-15.63478 11.00225,-1.04232 9.6125,-6.13809 22.35193,12.392 23.27846,-1.15813 20.61474,5.79067 14.93991,-10.53901 4.74834,-17.256156 25.71052,-7.875299 25.24724,9.265047 -3.3585,16.561288 13.8974,-2.20045 28.0269,-9.496675 v 0 l -23.626,-14.708276 21.1938,-6.138102 z"
     style="fill:#f9f9f9;fill-rule:evenodd;stroke-width:1.15813184" />
  <path class="country"
     id="PL"
     data-name="Poland"
     data-id="PL"
     d="m 906.18309,473.25156 -20.03568,-0.34745 -2.31626,-6.48553 -21.19382,-4.4009 -25.13146,8.91762 -31.26956,12.27619 -13.55014,7.75948 6.1381,13.55015 -5.21159,7.18041 8.45435,9.49669 6.48554,14.36083 -0.81069,9.26505 10.19156,17.25617 10.88645,8.68599 16.21384,2.31626 -0.69488,7.52785 12.16038,5.55904 2.54789,-6.94878 15.05572,3.01113 2.89533,8.45437 16.09804,1.73719 11.23387,13.43434 1.38976,1.62138 8.57017,-3.70603 11.81295,9.6125 12.16038,-5.79066 10.539,2.77952 15.05572,-3.82184 21.77288,10.42319 4.86415,1.62139 -7.06461,-12.27621 16.67702,-22.58356 10.1916,-3.24278 1.274,-7.52785 -13.89759,-23.62589 -2.08464,-11.92876 -8.33855,-12.50782 11.92879,-5.44322 -1.5056,-10.65482 -7.29623,-10.19156 -2.66371,-11.69713 -6.25391,-8.22273 -11.11806,-2.89533 -38.10254,0.46324 z"
     style="fill:#f9f9f9;fill-rule:evenodd;stroke-width:1.15813184" />
  <path class="country"
     id="PT"
     data-name="Portugal"
     data-id="PT"
     d="m 325.37997,947.27496 -1.62139,-9.49668 8.8018,-10.65485 3.35859,-7.75948 -7.75949,-8.45436 6.94879,-18.53011 -8.68599,-16.90873 9.95993,-2.31626 1.27395,-13.20271 3.82183,-4.05345 0.92652,-21.42545 10.6548,-7.41204 -5.90647,-13.78177 -13.08689,-0.92651 -4.05346,3.4744 h -13.31852 l -5.2116,-13.31852 -9.26504,3.93765 -8.57018,6.9488 0.69488,9.14923 4.16928,9.84413 v 11.69713 l -5.32741,16.56129 -2.08464,11.34969 -9.49668,10.19156 -2.54789,18.4143 5.09578,10.77062 10.19156,2.54789 1.62139,17.48779 -4.16928,22.35199 12.04456,-3.12696 12.04458,4.05347 z"
     style="fill:#f9f9f9;fill-rule:evenodd;stroke-width:1.15813184" />
  <path class="country"
     id="RO"
     data-name="Romania"
     data-id="RO"
     d="m 1076.7759,640.71743 h -9.1493 l -4.6325,6.36972 -15.7507,2.6637 -6.9487,4.16927 -10.8864,-6.71716 -14.0134,-0.11581 -13.8975,-3.01115 -8.68605,5.90647 -12.62363,5.79067 -8.33856,18.53011 -11.23387,18.64592 -17.14036,5.09578 12.97108,10.77063 3.35859,8.68598 14.24502,6.36973 2.89532,11.23388 13.78178,7.87529 6.36973,-6.02228 5.79065,3.35858 -4.63252,4.51672 4.63252,4.74834 7.6437,11.11806 8.4542,-1.96882 17.6037,4.28509 33.0068,1.38976 10.1915,-6.9488 25.4788,-6.25391 17.6035,9.84412 13.5502,2.77952 1.6214,-32.65932 7.0646,2.54789 9.9599,-5.90647 -1.5056,-6.9488 -10.7706,-4.74833 -9.7283,4.4009 -10.539,-4.97996 -5.6748,-12.50784 0.6949,-11.58131 -2.4321,-12.04457 -14.9399,-16.32967 -8.5702,-11.58131 -7.8752,-8.10692 z"
     style="fill:#f9f9f9;fill-rule:evenodd;stroke-width:1.15813184" />
  <path class="country"
     id="RS"
     data-name="Serbia"
     data-id="RS"
     d="m 974.04962,723.87129 -14.24502,-6.36973 -3.35859,-8.68598 -12.97108,-10.77063 -13.89758,-1.15813 -16.21384,7.18041 v 0 l 6.36973,10.539 7.75948,7.75949 -7.64367,10.30737 v 0 l 8.10693,-0.11581 -4.51672,11.92876 11.81294,10.42318 -2.08464,12.73945 -5.21158,1.15814 6.36972,4.63253 3.70602,3.82183 7.64367,2.89533 9.03343,5.55903 -1.62139,2.43208 5.2116,-1.96882 2.20044,-9.03343 3.93765,-1.50557 3.4744,3.82183 4.4009,1.7372 3.35858,4.28508 3.82183,1.27395 4.86417,4.97996 3.24276,-0.11581 -1.853,6.60135 -2.43209,3.24278 1.04233,1.96882 7.41204,-1.50558 10.42326,-0.46324 3.3585,-3.82184 -2.7795,-3.24277 2.8953,-8.68599 7.5278,-8.45436 -12.0445,-11.69713 -3.12695,-9.84413 4.86415,-6.13809 -4.63252,-4.74834 4.63252,-4.51672 -5.79065,-3.35858 -6.36973,6.02228 -13.78178,-7.87529 z"
     style="fill:#f9f9f9;fill-rule:evenodd;stroke-width:1.15813184" />
  <path class="country"
     id="SK"
     data-name="Slovakia"
     data-id="SK"
     d="m 985.63094,616.97572 -21.77288,-10.42319 -15.05572,3.82184 -10.539,-2.77952 -12.16038,5.79066 -11.81295,-9.6125 -8.57017,3.70603 -1.38976,-1.62138 h -6.36972 l -2.89533,4.86415 -4.86416,1.15813 -0.81069,6.25391 -3.93764,1.27394 -0.34745,2.54789 -7.18042,2.89534 -9.61249,-0.46326 -2.54789,6.02229 -1.38976,3.47439 3.01115,9.49669 11.69712,6.94878 8.22274,3.01115 18.06686,-3.35859 1.15813,-5.44321 8.57017,-0.8107 10.19157,-4.28508 2.54789,1.73719 9.84412,-3.35858 4.40089,-6.48554 6.9488,-1.7372 24.20495,8.33856 4.2851,-2.77952 2.89533,-11.00225 z"
     style="fill:#f9f9f9;fill-rule:evenodd;stroke-width:1.15813184" />
  <path class="country"
     id="SI"
     data-name="Slovenia"
     data-id="SI"
     d="m 862.05827,687.73757 -5.09578,-9.26505 -3.70602,-0.23162 -3.82183,4.63252 -19.10919,0.69488 -10.6548,6.1381 -18.29849,-2.08464 -1.50557,13.43433 6.13809,11.69714 -4.74833,2.43207 15.51896,0.92651 3.70602,-4.63253 7.75949,4.51671 8.8018,0.46326 -0.69488,-7.52786 7.41205,-2.89533 1.38975,-11.00226 z"
     style="fill:#f9f9f9;fill-rule:evenodd;stroke-width:1.15813184" />
  <path class="country"
     id="SE"
     data-name="Sweden"
     data-id="SE"
     d="m 942.66425,177.00142 -8.10693,-9.49668 -7.8753,-37.17603 -31.50118,-16.21384 -26.17378,-11.69714 -11.00225,1.04232 0.11581,15.63478 -34.74395,-3.82183 -2.77952,13.2027 h -17.4878 l -9.7283,17.02454 -14.9399,26.86866 -25.01565,34.62814 7.75948,8.45436 -5.55903,9.84413 -18.87755,-0.46326 -10.19156,23.39427 4.28509,33.47001 13.66595,12.85526 -3.70602,29.99561 -15.05571,17.60361 -7.52786,14.9399 18.18267,36.71278 19.57243,29.76398 8.57017,24.89984 23.74171,-1.15813 9.7283,-20.96219 25.01565,2.54789 8.91762,-24.55239 2.6637,-43.77739 20.03568,-6.02228 14.36084,-29.06911 -20.73057,-14.12921 -16.32965,-17.95104 9.49668,-35.67047 33.81745,-21.54125 26.98447,-20.03567 -5.55903,-15.05573 15.17153,-17.14034 z"
     style="fill:#f9f9f9;fill-rule:evenodd;stroke-width:1.15813184" />
  <path class="country"
     id="UA"
     data-name="Ukraine"
     data-id="UA"
     d="m 1210.7716,528.9577 -21.4255,2.66371 -6.7172,-1.38976 -4.0534,6.13809 -8.1069,-1.15813 v 0 l -17.951,1.62138 -5.4433,5.90648 1.1582,13.55014 -8.9176,-2.54789 -18.9934,1.27394 -6.7172,-6.25391 -7.1804,4.63253 -8.5702,-3.93764 -16.9086,-0.46326 -24.6682,-6.48554 -21.7729,-2.08463 -16.3296,0.57906 -10.539,7.29622 -9.95989,1.04233 13.89759,23.62589 -1.274,7.52785 -10.1916,3.24278 -16.67702,22.58356 7.06461,12.27621 -4.86415,-1.62139 -5.21159,7.18042 -2.89533,11.00225 12.97107,7.52786 2.31626,7.29622 8.68605,-5.90647 13.8975,3.01115 14.0134,0.11581 10.8864,6.71716 6.9487,-4.16927 15.7507,-2.6637 4.6325,-6.36972 h 9.1493 l 4.6324,-4.05347 14.0133,-2.6637 17.2562,8.45436 9.1493,1.04232 10.8864,7.41205 -0.1158,9.26505 8.5701,4.51671 4.8643,11.46551 8.6859,6.94879 -0.9265,4.05346 4.5167,2.77951 -5.5591,2.08465 -13.0869,-0.8107 -2.6636,-3.82184 -4.2851,2.20046 2.2005,4.86415 -4.7484,8.68599 -2.5479,9.38087 -5.0958,3.01115 10.539,4.97996 9.7283,-4.4009 10.7706,4.74833 14.1293,-20.15149 5.9065,-15.17152 19.8041,-3.35859 3.1268,10.30737 35.3231,6.83298 7.4121,6.25391 -19.6883,9.14925 -3.0111,5.21159 25.4789,7.99111 -2.7795,12.73945 13.2026,5.44322 27.5636,-15.63478 23.51,-4.74833 2.548,-9.72832 -22.2362,1.62139 -11.9287,-6.48554 -4.2851,-17.02454 17.1403,-10.19156 20.3831,-1.50557 12.8553,-8.8018 17.1404,-2.20045 -1.7373,-12.2762 9.8442,-7.64367 20.6147,-1.96882 1.6214,-9.14925 -7.9911,-15.05571 5.7906,-14.36083 -2.0846,-7.99112 -33.5858,-8.91761 -12.5079,0.34744 -15.9822,-12.73945 -15.5189,4.28508 -29.1849,-9.49667 -0.5792,-5.32741 -9.9599,-11.81295 -17.2561,-1.27394 -3.4744,-8.33856 4.1693,-5.44321 z"
     style="fill:#f9f9f9;fill-rule:evenodd;stroke-width:1.15813184" />
  <path class="country"
     id="FR"
     data-name="France"
     data-id="FR"
     d="m 713.46995,805.98284 -4.86415,-23.27845 -14.0134,10.42318 -4.16927,10.07575 6.02228,18.29848 10.42319,5.55904 z m -138.7442,-224.21432 -10.19156,-10.88645 -9.95993,-0.46325 -3.24277,-9.49668 -18.53011,5.44321 -6.25392,22.23614 -50.03129,21.30963 -20.26731,-11.69713 6.48554,30.92212 -36.24953,-7.06461 -28.25841,5.90648 1.7372,20.03567 33.12257,10.53901 15.98222,13.89758 22.46775,28.72167 -4.63252,54.20057 -11.69713,16.21384 8.91761,10.53901 41.34531,12.27619 8.10693,-5.90647 25.36308,12.27619 26.17377,-3.47439 2.31628,-16.32966 32.42768,-8.8018 44.47227,7.41205 19.80406,-15.28734 2.08463,-11.81295 -12.16039,-3.47439 -6.48554,-20.96219 7.41205,-8.33856 -6.83298,-10.19156 0.57906,-7.75948 -7.87528,-11.92875 -10.42319,4.28508 v -12.39201 l 15.51897,-15.40315 -0.92652,-6.9488 9.95994,2.43208 5.90647,-4.63252 1.96882,-19.57243 10.19157,-18.76174 -31.38538,-4.97996 -10.42318,-7.18043 -6.25391,0.57907 -4.86416,-2.31627 -19.10917,-12.50782 -11.00226,2.20046 z"
     style="fill:#f9f9f9;fill-rule:evenodd;stroke-width:1.15813184" />
  <path class="country"
     id="ES"
     data-name="Spain"
     data-id="ES"
     d="m 534.42276,902.45522 v -0.81069 l -2.20045,-0.34744 -1.38976,-1.62139 -0.46325,0.8107 -0.34743,0.81069 0.11581,1.15813 h 2.20045 l 1.62138,0.34744 z m -3.47439,-6.94878 1.15813,-0.46326 2.89533,-3.01115 -0.23163,-1.27394 -1.04231,-1.04232 -4.97997,1.15813 -1.04233,1.38976 -0.1158,1.38976 -0.92651,0.23163 -0.81069,1.96882 0.81069,0.69488 3.4744,0.69488 z m -75.74182,-123.92012 -36.13372,-0.9265 -18.64593,1.38976 -23.74169,-4.51672 -29.99562,0.11581 -27.2161,-4.86415 -32.5435,19.45662 8.68598,11.81295 -1.96882,19.3408 8.57018,-6.9488 9.26504,-3.93765 5.2116,13.31852 h 13.31852 l 4.05346,-3.4744 13.08689,0.92651 5.90647,13.78177 -10.6548,7.41204 -0.92652,21.42545 -3.82183,4.05345 -1.27395,13.20271 -9.95993,2.31626 8.68599,16.90873 -6.94879,18.53011 7.75949,8.45436 -3.35859,7.75948 -8.8018,10.65485 1.62139,9.49668 21.54125,4.40091 6.13809,16.44548 8.45437,9.61249 11.23388,2.43208 9.14924,-10.77062 14.70827,-10.19156 22.0045,0.57906 29.41655,-0.46326 16.5613,-21.8887 17.48778,-5.67488 4.97997,-18.53011 13.31852,-12.62363 -8.91762,-16.21386 8.80181,-22.69938 14.01339,-15.40315 1.96882,-9.26506 28.9533,-5.79065 21.30962,-18.18267 -1.38976,-15.7506 -26.17377,3.47439 -25.36308,-12.27619 -8.10693,5.90647 -41.34531,-12.27619 z m 114.42342,99.36772 0.34745,-1.27395 0.69487,-0.69488 0.23163,-0.81069 -0.81069,-0.46326 v -0.46324 l 0.69487,-1.04233 -0.9265,-0.23162 -5.67485,1.73719 -2.77952,1.50558 -9.38086,6.71717 v 1.15813 l 0.57906,0.9265 1.50558,0.23163 0.9265,1.50557 1.7372,-1.50557 1.27394,-0.69488 1.50558,0.34743 1.04231,0.92652 0.57906,2.77952 0.69489,0.69487 2.31626,0.46326 3.93765,1.96882 1.96883,-0.92651 1.96882,-1.50557 1.04232,-2.54789 1.27394,-2.20045 1.50557,-1.96883 1.04232,-1.96882 -0.34743,-1.85301 -1.15814,-0.46325 -1.27395,-0.23163 -2.31626,0.81069 z m 26.28959,-1.38976 0.57907,-1.62139 -0.23163,-0.46324 -2.08463,-3.24278 -3.82184,-1.15813 -4.63253,0.34744 -0.23162,0.69488 v 1.62139 l 0.57906,0.57906 2.31627,0.34744 7.0646,3.24277 z"
     style="fill:#f9f9f9;fill-rule:evenodd;stroke-width:1.15813184" />
  <path class="country"
     id="CY"
     data-name="Cyprus"
     data-id="CY"
     d="m 1372.8621,1002.4683 5.0505,-6.11238 -24.2182,5.60148 -16.8486,2.2927 -12.6187,1.9802 -19.5438,-4.4551 -5.3178,11.6579 -11.8435,-0.1736 -10.4331,5.4971 1.3344,8.39 4.8979,6.9224 11.0422,2.3623 14.4511,4.2992 14.6678,-5.8946 10.432,-7.8771 19.3454,2.4613 -4.9318,-6.8522 -3.5025,-10.2209 10.1368,-3.8883 z"
     style="fill:#f9f9f9;fill-rule:evenodd;stroke-width:1.15813184" />
</svg>
