<?xml version="1.0" encoding="UTF-8" standalone="no"?>
<!-- Generator: Adobe Illustrator 11.0, SVG Export Plug-In  -->

<!-- hand edited from http://commons.wikimedia.org/wiki/Image:1_9_2_44.svg -->

<svg
   xmlns:dc="http://purl.org/dc/elements/1.1/"
   xmlns:cc="http://creativecommons.org/ns#"
   xmlns:rdf="http://www.w3.org/1999/02/22-rdf-syntax-ns#"
   xmlns:svg="http://www.w3.org/2000/svg"
   xmlns="http://www.w3.org/2000/svg"
   xmlns:sodipodi="http://sodipodi.sourceforge.net/DTD/sodipodi-0.dtd"
   xmlns:inkscape="http://www.inkscape.org/namespaces/inkscape"
   width="50"
   height="50"
   viewBox="140 90 33.75 33.75"
   xml:space="preserve"
   id="svg2"
   version="1.0"
   sodipodi:docname="B_Mining.svg"
   inkscape:version="0.92.3 (unknown)"><title
   id="title989">NACE Section B Classification Visual</title><defs
   id="defs5729" /><sodipodi:namedview
   pagecolor="#ffffff"
   bordercolor="#666666"
   borderopacity="1"
   objecttolerance="10"
   gridtolerance="10"
   guidetolerance="10"
   inkscape:pageopacity="0"
   inkscape:pageshadow="2"
   inkscape:window-width="1853"
   inkscape:window-height="1021"
   id="namedview5727"
   showgrid="false"
   inkscape:zoom="4.72"
   inkscape:cx="-72.139831"
   inkscape:cy="-20.338978"
   inkscape:window-x="0"
   inkscape:window-y="0"
   inkscape:window-maximized="0"
   inkscape:current-layer="g11986" /><metadata
   id="metadata19"><rdf:RDF><cc:Work
       rdf:about=""><cc:license
         rdf:resource="http://creativecommons.org/licenses/by-sa/2.5/" /><dc:format>image/svg+xml</dc:format><dc:type
         rdf:resource="http://purl.org/dc/dcmitype/StillImage" /><dc:title>NACE Section B Classification Visual</dc:title><dc:creator><cc:Agent><dc:title>Open Risk</dc:title></cc:Agent></dc:creator><dc:publisher><cc:Agent><dc:title>https://www.openriskmanagement.com</dc:title></cc:Agent></dc:publisher><dc:identifier>B_Mining_Square</dc:identifier><dc:date>2018</dc:date><dc:rights><cc:Agent><dc:title>Creative Commons Attribution + Share-Alike  (CC-BY-SA)</dc:title></cc:Agent></dc:rights><dc:description>Mining truck and gear as representative of the mining industry</dc:description></cc:Work><cc:License
       rdf:about="http://creativecommons.org/licenses/by-sa/2.5/"><cc:permits
         rdf:resource="http://web.resource.org/cc/Reproduction" /><cc:permits
         rdf:resource="http://web.resource.org/cc/Distribution" /><cc:requires
         rdf:resource="http://web.resource.org/cc/Notice" /><cc:requires
         rdf:resource="http://web.resource.org/cc/Attribution" /><cc:permits
         rdf:resource="http://web.resource.org/cc/DerivativeWorks" /><cc:requires
         rdf:resource="http://web.resource.org/cc/ShareAlike" /></cc:License></rdf:RDF></metadata>
	
<g
   id="g11986"
   transform="matrix(0.14398343,0,0,0.15557073,109.34664,83.778741)"><path
     id="path1380"
     d="m 130.85847,224.55472 0.0842,0.16071 -0.0739,-0.0873 z"
     style="fill:#ffa800;stroke:#000000;stroke-width:0.44688126;stroke-linejoin:round"
     inkscape:connector-curvature="0" /><path
     id="path1378"
     d="m 60.656039,225.24563 0.333311,0.38912 v 0.23048 z"
     style="fill:#ffa800;stroke:#000000;stroke-width:0.44688126;stroke-linejoin:round"
     inkscape:connector-curvature="0" /><path
     id="path1376"
     d="m 178.90153,230.13991 0.30644,0.36018 v 0.21859 z"
     style="fill:#ffa800;stroke:#000000;stroke-width:0.44688126;stroke-linejoin:round"
     inkscape:connector-curvature="0" /><path
     id="path1374"
     d="m 61.726773,238.08257 0.355534,0.17829 0.02635,0.12299 z"
     style="fill:#ffa800;stroke:#000000;stroke-width:0.44688126;stroke-linejoin:round"
     inkscape:connector-curvature="0" /><path
     id="polygon2"
     d="m 179.81724,241.31958 0.36845,0.19276 0.0217,0.0837 z"
     style="fill:#ffa800;stroke:#000000;stroke-width:0.44688126;stroke-linejoin:round"
     inkscape:connector-curvature="0" /><g
     id="g901"
     transform="matrix(1.0805254,0,0,0.99807586,129.63131,-29.988787)"><g
       transform="matrix(4.829689,0,0,4.8296889,-177.79531,-383.31964)"
       id="g1425"><rect
         style="opacity:1;fill:#ffffff;fill-opacity:1;stroke:#000000;stroke-width:2.14285707;stroke-miterlimit:4;stroke-dasharray:none;stroke-dashoffset:0;stroke-opacity:1"
         id="rect21547-2"
         width="42.857143"
         height="42.857143"
         x="53.886623"
         y="95.2229"
         rx="3.2442858"
         ry="3.5956876" /></g><path
       style="fill:#000000;stroke:#000000;stroke-width:0.30123565;stroke-linejoin:round"
       d="m 220.44295,166.37869 v 2.44606 l -1.8058,2.77072 -2.45861,3.4472 -0.0495,0.0644 v 0.005 l -0.90291,1.26588 h -43.10532 -44.20887 -1.03632 l -18.79379,6.18621 -3.41098,1.30455 v 2.54151 l -1.17077,4.84928 -1.09833,4.74861 h -0.10551 l 0.0892,0.0707 -0.0223,0.0961 h 0.14317 l 3.20092,2.54151 h 9.70344 l 0.69703,0.46817 3.61162,3.17724 1.23906,0.23652 20.81312,11.75239 -0.98441,4.1296 -0.79805,0.80955 -0.005,-0.007 -0.70261,0.0331 -0.46817,0.50196 -0.0408,0.0735 -0.92868,0.79597 -0.70156,1.26274 -0.33546,0.27554 -1.80581,1.80581 -1.57137,1.97266 -0.31595,0.47723 0.0146,-0.17591 0.30132,-0.66882 h -0.40129 l -0.30132,-0.0338 -0.23374,-0.16686 -0.60194,0.36751 -0.20064,0.7026 -0.0146,0.15536 -0.0522,-0.12226 -0.40129,1.13699 -0.10067,2.04024 0.061,0.32082 -0.19472,0.44797 -0.96944,2.14022 -0.53506,2.50842 -0.1038,0.66533 -0.26439,-0.29783 -0.1,-0.40129 0.0669,-0.70191 -0.3682,0.1 -0.30062,0.10067 h -0.33441 l -0.40129,0.53506 0.1,0.70191 0.069,0.2292 -0.13586,-0.16232 0.0669,1.20387 0.7357,1.90648 0.56885,0.89001 v 0.48072 2.30777 l 0.30584,1.93609 -0.20587,-0.19716 -0.3675,-0.20065 -0.23443,-0.33441 -0.20065,-0.60193 -0.30062,0.23373 -0.26753,0.16756 -0.30131,0.13376 -0.13377,0.66882 0.33441,0.60194 0.0982,0.11251 -0.0982,-0.0125 0.50196,1.03702 1.40452,1.50449 0.56432,0.37098 0.80641,1.83612 0.5577,1.26378 -0.25638,-0.4612 -0.20065,0.30132 -0.20064,0.30062 -0.30132,0.16755 -0.0669,0.70191 0.46817,0.50196 0.10102,0.0672 0.63468,1.00288 1.67204,1.13699 0.69808,0.3041 0.90709,1.10042 1.23627,1.23627 -0.0993,-0.0662 -0.1,0.33441 -0.10067,0.30132 -0.13377,0.30062 0.23444,0.66882 0.60193,0.23443 0.17557,0.0418 -0.0756,0.0251 1.00322,0.60194 1.79641,0.29435 1.18018,0.90952 2.30708,0.93635 0.58208,0.26787 0.0198,0.30028 0.10067,0.10067 v 0.0331 l 0.66882,0.26753 0.53505,0.13376 0.50127,0.26753 0.53052,-0.0529 0.23897,0.0867 0.43438,0.16685 0.53018,-0.11356 0.47305,0.11356 2.5415,0.40129 2.64218,0.20065 0.62911,-0.0547 0.57477,0.0547 h 0.16685 0.40129 l 0.53506,-0.0669 h 0.3682 l 0.43438,-0.1 0.18288,-0.19159 0.0314,-0.005 0.18706,0.0627 0.26753,-0.0669 0.43508,-0.13376 0.0101,-0.006 0.59183,-0.0947 2.50772,-0.60193 1.44562,-0.67579 0.32709,0.20761 0.26753,0.16756 0.13376,0.30062 0.70191,-0.0669 0.50196,-0.50127 0.0669,-0.10938 v 0.10938 l 0.90255,-0.80258 0.48037,-0.83254 1.62676,-1.27459 1.90578,-1.50449 0.3682,-0.36819 -0.0669,0.23443 -0.40129,0.50126 0.33441,0.10067 0.30062,0.1 0.26752,0.23443 0.63573,-0.20064 0.30062,-0.63573 0.046,-0.15257 0.0209,0.0526 0.63573,-0.90325 0.50126,-2.07334 0.007,-0.14422 0.36123,-0.45772 1.50449,-2.2071 0.44518,-1.04328 -0.0101,0.0401 0.36751,-0.0669 h 0.30131 l 0.3675,0.10068 0.50197,-0.50197 0.0331,-0.70191 -0.0247,-0.17417 0.0916,0.0735 0.13376,-1.13699 -0.22398,-1.38919 0.5253,-2.18864 0.3675,-2.54151 0.11356,-1.11887 0.0871,0.34939 0.10067,0.7026 0.30062,-0.20064 0.30132,-0.13377 h 0.33441 l 0.3675,-0.60193 -0.20064,-0.66882 -0.0892,-0.15397 0.0892,0.0533 -0.16686,-1.13699 -0.82418,-1.53828 h 7.54545 l 3.87914,-2.49867 v 1.56232 h 4.88238 6.62129 1.67205 l -0.0404,-1.6919 0.14073,0.18741 h 8.63646 l -0.30967,0.7357 -0.5685,2.2071 -0.0704,0.53122 -0.23061,-0.2306 -0.0334,-0.33441 v -0.60194 l -0.30096,0.10067 -0.26753,0.1 -0.30097,-0.0669 -0.33441,0.50196 0.0334,0.63503 0.0418,0.12575 -0.0418,-0.0251 0.0669,1.00323 0.63538,1.70514 0.50161,0.75242 v 0.45145 2.00646 l 0.22852,1.67692 -0.16163,-0.13864 -0.30097,-0.20065 -0.20065,-0.30062 -0.20064,-0.60193 -0.26753,0.26752 -0.20065,0.20065 -0.30096,0.0331 -0.13377,0.60194 0.33441,0.56884 0.0571,0.0617 -0.0571,-0.0286 0.40129,0.97014 1.27076,1.30385 0.56919,0.3985 0.63468,1.50797 0.50405,1.16347 -0.23652,-0.39467 -0.16721,0.23443 -0.20064,0.26753 -0.30097,0.13376 v 0.60194 l 0.40129,0.46817 0.0815,0.0543 0.58731,0.84822 1.43796,1.00322 0.67473,0.3069 0.72978,0.93077 1.09589,1.09554 -0.1261,-0.0923 -0.0669,0.30063 -0.0334,0.26752 -0.16721,0.23444 0.20065,0.56814 0.56849,0.23444 0.15049,0.0418 -0.11705,0.0582 0.96979,0.46817 1.46652,0.28774 1.07499,0.81616 1.97301,0.83568 0.53506,0.22538 v 0.24279 l 0.10032,0.10067 v 0.0331 l 0.63538,0.20065 0.43473,0.16755 0.46817,0.20065 h 0.56083 l 0.0745,0.0331 0.40129,0.16755 0.47026,-0.11147 0.43265,0.11147 2.20709,0.30062 2.30743,0.20065 0.56327,-0.0564 0.50683,0.0564 h 0.10033 0.33441 l 0.50161,-0.0669 h 0.30097 l 0.40129,-0.1 0.12087,-0.12784 0.24698,0.0272 0.23409,-0.0331 0.24314,-0.11077 0.65976,-0.0899 2.17366,-0.56884 1.30419,-0.57964 0.26753,0.17835 0.20065,0.16755 0.20064,0.23374 h 0.60194 l 0.40129,-0.50127 0.0644,-0.10763 0.0359,0.10763 0.7357,-0.7026 0.42289,-0.7047 1.4498,-1.10111 1.70549,-1.33764 0.22642,-0.2313 -0.0258,0.0644 -0.36785,0.50127 0.36785,0.0669 0.20064,0.10067 0.23409,0.20065 0.5685,-0.16755 0.30096,-0.53506 0.0282,-0.12645 0.005,0.0265 0.56849,-0.86947 0.46818,-1.73892 v -0.25464 l 0.23408,-0.31421 1.37108,-1.90578 0.35043,-0.84055 0.35183,-0.0958 h 0.30097 l 0.30097,0.1 0.40129,-0.40129 0.0334,-0.66882 -0.0202,-0.12018 0.0871,0.0871 0.13376,-1.03702 -0.21283,-1.27807 0.48036,-1.86537 0.30097,-2.2071 0.10032,-1.00323 0.10032,0.30132 0.0334,0.60193 0.26753,-0.16755 0.30097,-0.1 h 0.23409 l 0.36785,-0.50197 -0.20065,-0.60193 -0.0606,-0.13655 0.0606,0.0366 -0.1672,-1.00323 -0.80259,-1.60516 -0.24523,-0.28634 -0.0195,-0.147 0.13098,0.032 h 5.55119 l -0.0192,-0.10067 h 0.36332 l 3.37928,0.16476 0.24523,0.30689 0.0108,0.0972 0.20064,0.23374 0.46817,0.10067 h 7.22324 0.30097 l 0.43473,-0.13376 0.1672,-0.20065 0.062,-0.13933 0.33928,-0.4626 0.10032,-0.66882 -0.0669,-0.80258 h 0.0669 l 0.43473,-0.16755 0.20065,-0.13377 0.1672,-0.30062 -0.22642,0.0822 0.22642,-0.18288 -0.87295,-0.37029 0.0704,0.003 0.40129,0.16685 0.30097,0.13377 -0.16721,-0.30062 -0.13376,-0.13376 -0.46817,-0.16756 h -0.22016 l 0.077,-1.1032 h 0.14317 l 0.46817,-0.13376 0.13376,-0.16756 0.16721,-0.30062 -0.30097,0.16686 -0.1578,0.0526 0.39188,-0.21946 -1.00322,-0.33441 2.6e-4,-0.0119 0.30062,0.0119 0.36785,0.1 0.33441,0.20064 -0.20065,-0.30062 -0.13376,-0.16755 -0.40129,-0.13376 h -0.25464 l 0.0453,-1.07011 h 0.10903 l 0.43473,-0.1 0.1672,-0.20065 0.13377,-0.30132 -0.30097,0.20065 -0.33441,0.10067 h -0.0174 l 0.55248,-0.30132 -0.80258,-0.33441 0.0143,-0.11007 0.25325,0.0101 0.33441,0.13377 0.30097,0.16685 -0.13377,-0.30062 -0.1672,-0.16755 -0.43473,-0.13376 h -0.11565 l 0.0986,-0.7688 h 0.11739 l 0.40129,-0.13376 0.13376,-0.20065 0.20065,-0.26752 -0.17696,0.0529 0.24384,-0.15361 -1.00323,-0.40129 8e-4,-0.008 0.19994,0.008 0.33441,0.20064 0.30097,0.10067 -0.13376,-0.30131 -0.16721,-0.1 -0.43473,-0.20065 h -0.0711 l 0.0582,-0.60193 h 0.0129 l 0.43473,-0.13376 0.1672,-0.16756 0.13377,-0.30062 -0.30097,0.16686 -0.19124,0.0763 0.19124,-0.17626 0.30097,-0.0669 -0.45146,-0.33859 0.0167,0.004 0.30096,0.20065 -0.1672,-0.30132 -0.13376,-0.16685 -0.20657,-0.0589 -0.19472,-0.47619 -0.66882,-0.80258 -0.80259,-0.30131 h -2.32031 l -0.3978,-4.94926 h 0.31037 v -17.2555 h -0.6354 v -0.30063 -2.60839 l -0.50161,-1.97336 -4.38076,-2.97589 -2.00645,-2.00645 -1.3042,-1.63896 -0.0481,-0.25045 0.1484,-0.15084 -1.97789,-10.8554 0.17208,0.1874 -0.69634,-3.91223 h 10.52831 v -1.33973 l 0.1,0.002 -0.13377,-1.67205 -9.66442,-2.1071 -0.93634,-0.96944 h -2.10678 l 0.13376,-0.0338 h -4.21355 l 1.07011,-1.57138 5.1499,-0.93634 h 0.0669 1.10355 l 2.30742,-2.30777 h -1.10355 -4.61484 -28.09002 v -1.4714 z"
       id="path1382"
       inkscape:connector-curvature="0" /><path
       inkscape:connector-curvature="0"
       d="m 147.63057,214.19143 c -5.15708,-1.76809 -5.72867,-2.26997 -6.83009,-5.99704 -1.03304,-3.49567 -1.03255,-3.98343 0.004,-4.19766 0.59375,-0.12269 6.72618,-6.32599 18.71331,-18.92955 9.80658,-10.31088 19.08534,-20.02988 20.61947,-21.59778 2.09059,-2.1366 2.7135,-2.98415 2.48662,-3.38339 -0.64157,-1.12899 -27.39101,-29.2314 -28.07328,-29.49321 -0.26495,-0.10167 -0.96327,0.32648 -1.55184,0.95145 -1.35541,1.43927 -7.99933,10.30168 -12.0164,16.02882 -1.68975,2.40909 -3.26447,4.3625 -3.49937,4.34091 -0.23489,-0.0216 -3.7664,-2.70223 -7.8478,-5.957 l -7.4207,-5.91777 0.99521,-0.87603 c 0.54737,-0.48181 2.55506,-3.16247 4.46153,-5.95701 5.54977,-8.13491 11.64894,-16.07148 14.68885,-19.11393 4.11214,-4.11557 27.19747,-21.183467 28.65189,-21.183467 0.37416,0 2.45975,2.412262 5.43264,6.283556 3.29754,4.294061 5.14045,6.399781 5.82058,6.650621 0.54738,0.20189 0.94159,0.51658 0.87603,0.69932 -0.0656,0.18275 -3.66713,3.00384 -8.00348,6.2691 -4.33636,3.26525 -9.01912,6.98928 -10.40615,8.27562 -3.64046,3.37618 -3.80897,2.97171 4.87018,11.6899 8.71302,8.75221 30.43192,29.80642 51.96558,50.3752 8.86543,8.46819 17.2347,16.46317 18.59838,17.76662 1.59293,1.52257 2.76796,2.3699 3.28645,2.3699 0.77055,0 0.79605,0.0829 0.56399,1.83229 -0.38779,2.92331 -1.59755,5.55765 -2.97892,6.48683 -1.29913,0.87385 -3.80013,1.67367 -6.34377,2.02874 l -1.59118,0.22211 -20.80587,-22.28975 C 200.8534,179.30947 191.38246,169.3229 191.2501,169.37646 c -0.13237,0.0536 -8.7971,9.79503 -19.25495,21.64773 -10.45785,11.85269 -19.58734,22.1304 -20.28777,22.83935 l -1.2735,1.289 z m 47.32738,-57.96143 -4.18321,-3.9574 12.6223,-13.24158 c 10.65409,-11.17681 12.6223,-13.40015 12.6223,-14.25842 0,-0.8773 -1.1937,-2.12846 -8.6998,-9.11853 -4.78489,-4.45594 -8.61259,-8.24281 -8.50601,-8.41526 0.10658,-0.17245 0.51496,-0.31355 0.90752,-0.31355 0.44495,0 3.06763,-2.24341 6.96408,-5.95701 3.43769,-3.27635 6.419,-5.957005 6.62514,-5.957005 0.20613,0 3.93611,3.469082 8.28883,7.709065 8.25539,8.04159 8.83337,8.44144 10.13039,7.00825 0.34883,-0.38545 0.88575,-0.69875 1.19315,-0.69622 0.3074,0.002 1.66088,0.94146 3.00772,2.0865 1.56285,1.32868 2.82413,2.11937 3.48617,2.18547 l 1.03737,0.10358 -1.16834,1.32673 c -0.64258,0.72971 -1.22215,1.78899 -1.28793,2.35395 -0.10549,0.90605 0.2162,1.31787 2.72737,3.49143 1.56583,1.35533 3.02075,2.46575 3.23315,2.46762 0.34993,0.003 15.98269,30.15008 15.77621,30.42363 -0.0483,0.064 -6.0538,-3.0663 -13.34553,-6.95623 l -13.25769,-7.0726 -4.035,-3.99415 c -2.21926,-2.19679 -4.13453,-3.99416 -4.25617,-3.99416 -0.12164,0 -5.93058,6.46511 -12.90877,14.3669 -6.97818,7.9018 -12.71065,14.36679 -12.73882,14.36664 -0.0282,-1.4e-4 -1.93367,-1.78108 -4.23443,-3.95765 z"
       style="fill:#000000;fill-opacity:1;stroke-width:0.35041219"
       id="path1935" /></g></g></svg>