<?xml version="1.0" encoding="UTF-8" standalone="no"?>
<!-- Generator: Adobe Illustrator 11.0, SVG Export Plug-In  -->

<!-- hand edited from http://commons.wikimedia.org/wiki/Image:1_9_2_44.svg -->

<svg
   xmlns:dc="http://purl.org/dc/elements/1.1/"
   xmlns:cc="http://creativecommons.org/ns#"
   xmlns:rdf="http://www.w3.org/1999/02/22-rdf-syntax-ns#"
   xmlns:svg="http://www.w3.org/2000/svg"
   xmlns="http://www.w3.org/2000/svg"
   xmlns:sodipodi="http://sodipodi.sourceforge.net/DTD/sodipodi-0.dtd"
   xmlns:inkscape="http://www.inkscape.org/namespaces/inkscape"
   width="50"
   height="50"
   viewBox="140 90 33.75 33.75"
   xml:space="preserve"
   id="svg2"
   version="1.0"
   sodipodi:docname="C_Manufacture.svg"
   inkscape:version="0.92.3 (unknown)"><title
   id="title989">NACE Section C Classification Visual</title><defs
   id="defs5729"><filter
     style="color-interpolation-filters:sRGB"
     inkscape:label="Cross-smooth"
     id="filter4556"><feGaussianBlur
       in="SourceGraphic"
       stdDeviation="10"
       result="blur1"
       id="feGaussianBlur4540" /><feComposite
       in="blur1"
       in2="blur1"
       operator="in"
       result="composite1"
       id="feComposite4542" /><feComposite
       k4="0"
       k3="0"
       k1="0"
       in="composite1"
       in2="composite1"
       k2="1"
       operator="arithmetic"
       result="composite2"
       id="feComposite4544" /><feColorMatrix
       in="composite2"
       values="1 0 0 0 0 0 1 0 0 0 0 0 1 0 0 0 0 0 10 0 "
       result="colormatrix1"
       id="feColorMatrix4546" /><feGaussianBlur
       stdDeviation="1"
       result="blur2"
       id="feGaussianBlur4548" /><feColorMatrix
       in="blur2"
       values="1 0 0 0 0 0 1 0 0 0 0 0 1 0 0 0 0 0 5 -1 "
       result="colormatrix2"
       id="feColorMatrix4550" /><feBlend
       in="SourceGraphic"
       in2="colormatrix2"
       stdDeviation="17"
       mode="normal"
       result="blend"
       id="feBlend4552" /><feComposite
       in="blend"
       in2="colormatrix2"
       operator="in"
       result="composite3"
       id="feComposite4554" /></filter></defs><sodipodi:namedview
   pagecolor="#ffffff"
   bordercolor="#666666"
   borderopacity="1"
   objecttolerance="10"
   gridtolerance="10"
   guidetolerance="10"
   inkscape:pageopacity="0"
   inkscape:pageshadow="2"
   inkscape:window-width="1853"
   inkscape:window-height="1021"
   id="namedview5727"
   showgrid="false"
   inkscape:zoom="2.36"
   inkscape:cx="-187.18221"
   inkscape:cy="-20.338978"
   inkscape:window-x="0"
   inkscape:window-y="0"
   inkscape:window-maximized="0"
   inkscape:current-layer="g11986" /><metadata
   id="metadata19"><rdf:RDF><cc:Work
       rdf:about=""><cc:license
         rdf:resource="http://creativecommons.org/licenses/by-sa/2.5/" /><dc:format>image/svg+xml</dc:format><dc:type
         rdf:resource="http://purl.org/dc/dcmitype/StillImage" /><dc:title>NACE Section C Classification Visual</dc:title><dc:creator><cc:Agent><dc:title>Open Risk</dc:title></cc:Agent></dc:creator><dc:publisher><cc:Agent><dc:title>https://www.openriskmanagement.com</dc:title></cc:Agent></dc:publisher><dc:identifier>C_Manufacture_Square</dc:identifier><dc:date>2018</dc:date><dc:rights><cc:Agent><dc:title>Creative Commons Attribution + Share-Alike  (CC-BY-SA)</dc:title></cc:Agent></dc:rights><dc:description>Factory as representative of the manufacturing sector</dc:description></cc:Work><cc:License
       rdf:about="http://creativecommons.org/licenses/by-sa/2.5/"><cc:permits
         rdf:resource="http://web.resource.org/cc/Reproduction" /><cc:permits
         rdf:resource="http://web.resource.org/cc/Distribution" /><cc:requires
         rdf:resource="http://web.resource.org/cc/Notice" /><cc:requires
         rdf:resource="http://web.resource.org/cc/Attribution" /><cc:permits
         rdf:resource="http://web.resource.org/cc/DerivativeWorks" /><cc:requires
         rdf:resource="http://web.resource.org/cc/ShareAlike" /></cc:License></rdf:RDF></metadata>
	
<g
   id="g11986"
   transform="matrix(0.14398343,0,0,0.15557073,109.34664,83.778741)"><g
     transform="matrix(5.2089327,0,0,4.8209582,-283.87628,-411.69531)"
     id="g2245"><rect
       ry="3.5956879"
       rx="3.2442858"
       y="95.027672"
       x="96.939018"
       height="42.857143"
       width="42.857143"
       id="rect21547-2-2"
       style="opacity:1;fill:#ffffff;fill-opacity:1;stroke:#000000;stroke-width:2.14285707;stroke-miterlimit:4;stroke-dasharray:none;stroke-dashoffset:0;stroke-opacity:1" /><g
       id="g4578"
       transform="matrix(0.04495196,0,0,0.04495196,101.87174,101.89831)"><path
         style="fill-rule:evenodd;filter:url(#filter4556)"
         d="m 51.71875,432.68945 c -1.89378,4.43956 -11.834581,0.83209 -17,2 -10.90625,0 -21.8125,0 -32.71875,0 0,85.98047 0,171.96094 0,257.94141 247.33333,0 494.66667,0 742,0 0,-85.98047 0,-171.96094 0,-257.94141 -8.6016,-0.40645 -17.86855,0.80102 -26.06836,-0.58007 -70.10417,-69.60222 -140.20833,-139.20443 -210.3125,-208.80665 0,69.79558 0,139.59115 0,209.38672 -6.027,0.003 -12.64524,1.44128 -16.09575,-4.80744 C 422.83916,361.68957 354.15493,293.49713 285.4707,225.30469 c 0,69.79492 0,139.58984 0,209.38476 -62.66666,0 -125.33333,0 -187.999997,0 C 97.47007,290.45964 97.469398,146.22982 97.46875,2 c -15.25,0 -30.5,0 -45.75,0 0,143.56315 0,287.1263 0,430.68945 z M 91.1875,486.25 c 17.80078,0 35.60156,0 53.40234,0 0,18.46029 0,36.92057 0,55.38086 -18.46744,0 -36.93489,0 -55.40234,0 0,-18.46029 0,-36.92057 0,-55.38086 h 1 z m 102.42969,0 c 17.80338,0 35.60677,0 53.41015,0 0,18.46029 0,36.92057 0,55.38086 -18.47005,0 -36.9401,0 -55.41015,0 0,-18.46029 0,-36.92057 0,-55.38086 h 1 z m 102.4707,0 c 17.80339,0 35.60677,0 53.41016,0 0,18.46029 0,36.92057 0,55.38086 -18.47006,0 -36.94011,0 -55.41016,0 0,-18.46029 0,-36.92057 0,-55.38086 h 1 z m 102.43945,0 c 17.80339,0 35.60677,0 53.41016,0 0,18.46029 0,36.92057 0,55.38086 -18.47005,0 -36.9401,0 -55.41016,0 0,-18.46029 0,-36.92057 0,-55.38086 h 1 z m 102.47071,0 c 17.80338,0 35.60677,0 53.41015,0 0,18.46029 0,36.92057 0,55.38086 -18.47005,0 -36.9401,0 -55.41015,0 0,-18.46029 0,-36.92057 0,-55.38086 h 1 z m 102.43945,0 c 17.80013,0 35.60026,0 53.40039,0 0,18.46029 0,36.92057 0,55.38086 -18.4668,0 -36.93359,0 -55.40039,0 0,-18.46029 0,-36.92057 0,-55.38086 h 1 z m -512.25,99.4707 c 17.80078,0 35.60156,0 53.40234,0 0,18.45638 0,36.91276 0,55.36914 -18.46744,0 -36.93489,0 -55.40234,0 0,-18.45638 0,-36.91276 0,-55.36914 h 1 z m 102.42969,0 c 17.80338,0 35.60677,0 53.41015,0 0,18.45638 0,36.91276 0,55.36914 -18.47005,0 -36.9401,0 -55.41015,0 0,-18.45638 0,-36.91276 0,-55.36914 h 1 z m 102.4707,0 c 17.80339,0 35.60677,0 53.41016,0 0,18.45638 0,36.91276 0,55.36914 -18.47006,0 -36.94011,0 -55.41016,0 0,-18.45638 0,-36.91276 0,-55.36914 h 1 z m 102.43945,0 c 17.80339,0 35.60677,0 53.41016,0 0,18.45638 0,36.91276 0,55.36914 -18.47005,0 -36.9401,0 -55.41016,0 0,-18.45638 0,-36.91276 0,-55.36914 h 1 z m 102.47071,0 c 17.80338,0 35.60677,0 53.41015,0 0,18.45638 0,36.91276 0,55.36914 -18.47005,0 -36.9401,0 -55.41015,0 0,-18.45638 0,-36.91276 0,-55.36914 h 1 z m 102.43945,0 c 17.80013,0 35.60026,0 53.40039,0 0,18.45638 0,36.91276 0,55.36914 -18.4668,0 -36.93359,0 -55.40039,0 0,-18.45638 0,-36.91276 0,-55.36914 h 1 z"
         id="rect2396"
         inkscape:connector-curvature="0" /></g></g></g></svg>