<?xml version="1.0" encoding="UTF-8" standalone="no"?>
<!-- Generator: Adobe Illustrator 11.0, SVG Export Plug-In  -->

<!-- hand edited from http://commons.wikimedia.org/wiki/Image:1_9_2_44.svg -->

<svg
   xmlns:dc="http://purl.org/dc/elements/1.1/"
   xmlns:cc="http://creativecommons.org/ns#"
   xmlns:rdf="http://www.w3.org/1999/02/22-rdf-syntax-ns#"
   xmlns:svg="http://www.w3.org/2000/svg"
   xmlns="http://www.w3.org/2000/svg"
   xmlns:sodipodi="http://sodipodi.sourceforge.net/DTD/sodipodi-0.dtd"
   xmlns:inkscape="http://www.inkscape.org/namespaces/inkscape"
   width="50"
   height="50"
   viewBox="140 90 33.75 33.75"
   xml:space="preserve"
   id="svg2"
   version="1.0"
   sodipodi:docname="D_Electricity.svg"
   inkscape:version="0.92.3 (unknown)"><title
   id="title989">NACE Section D Classification Visual</title><defs
   id="defs5729"><filter
     style="color-interpolation-filters:sRGB"
     inkscape:label="Cross-smooth"
     id="filter4556"><feGaussianBlur
       in="SourceGraphic"
       stdDeviation="10"
       result="blur1"
       id="feGaussianBlur4540" /><feComposite
       in="blur1"
       in2="blur1"
       operator="in"
       result="composite1"
       id="feComposite4542" /><feComposite
       k4="0"
       k3="0"
       k1="0"
       in="composite1"
       in2="composite1"
       k2="1"
       operator="arithmetic"
       result="composite2"
       id="feComposite4544" /><feColorMatrix
       in="composite2"
       values="1 0 0 0 0 0 1 0 0 0 0 0 1 0 0 0 0 0 10 0 "
       result="colormatrix1"
       id="feColorMatrix4546" /><feGaussianBlur
       stdDeviation="1"
       result="blur2"
       id="feGaussianBlur4548" /><feColorMatrix
       in="blur2"
       values="1 0 0 0 0 0 1 0 0 0 0 0 1 0 0 0 0 0 5 -1 "
       result="colormatrix2"
       id="feColorMatrix4550" /><feBlend
       in="SourceGraphic"
       in2="colormatrix2"
       stdDeviation="17"
       mode="normal"
       result="blend"
       id="feBlend4552" /><feComposite
       in="blend"
       in2="colormatrix2"
       operator="in"
       result="composite3"
       id="feComposite4554" /></filter><clipPath
     clipPathUnits="userSpaceOnUse"
     id="clipPath1164"><rect
       style="opacity:1;fill:none;fill-opacity:1;stroke:#000000;stroke-width:1;stroke-miterlimit:4;stroke-dasharray:none;stroke-dashoffset:0;stroke-opacity:1"
       id="rect1166"
       width="474.90692"
       height="613.7948"
       x="-88.485016"
       y="-13.440762"
       rx="11.4434"
       ry="12.684" /></clipPath></defs><sodipodi:namedview
   pagecolor="#ffffff"
   bordercolor="#666666"
   borderopacity="1"
   objecttolerance="10"
   gridtolerance="10"
   guidetolerance="10"
   inkscape:pageopacity="0"
   inkscape:pageshadow="2"
   inkscape:window-width="1853"
   inkscape:window-height="1021"
   id="namedview5727"
   showgrid="false"
   inkscape:zoom="2.36"
   inkscape:cx="-187.18221"
   inkscape:cy="-20.338978"
   inkscape:window-x="0"
   inkscape:window-y="0"
   inkscape:window-maximized="0"
   inkscape:current-layer="g11986" /><metadata
   id="metadata19"><rdf:RDF><cc:Work
       rdf:about=""><cc:license
         rdf:resource="http://creativecommons.org/licenses/by-sa/2.5/" /><dc:format>image/svg+xml</dc:format><dc:type
         rdf:resource="http://purl.org/dc/dcmitype/StillImage" /><dc:title>NACE Section D Classification Visual</dc:title><dc:creator><cc:Agent><dc:title>Open Risk</dc:title></cc:Agent></dc:creator><dc:publisher><cc:Agent><dc:title>https://www.openriskmanagement.com</dc:title></cc:Agent></dc:publisher><dc:identifier>D_Electricity_Square</dc:identifier><dc:date>2018</dc:date><dc:rights><cc:Agent><dc:title>Creative Commons Attribution + Share-Alike  (CC-BY-SA)</dc:title></cc:Agent></dc:rights><dc:description>Wind turbine and electicity transmission line as representative of electricity, gas and steam generation and distribution industries</dc:description></cc:Work><cc:License
       rdf:about="http://creativecommons.org/licenses/by-sa/2.5/"><cc:permits
         rdf:resource="http://web.resource.org/cc/Reproduction" /><cc:permits
         rdf:resource="http://web.resource.org/cc/Distribution" /><cc:requires
         rdf:resource="http://web.resource.org/cc/Notice" /><cc:requires
         rdf:resource="http://web.resource.org/cc/Attribution" /><cc:permits
         rdf:resource="http://web.resource.org/cc/DerivativeWorks" /><cc:requires
         rdf:resource="http://web.resource.org/cc/ShareAlike" /></cc:License></rdf:RDF></metadata>
	
<g
   id="g11986"
   transform="matrix(0.14398343,0,0,0.15557073,109.34664,83.778741)"><g
     id="g2343"
     transform="matrix(5.2089327,0,0,4.8209582,-509.10273,-411.69532)"><rect
       ry="3.5956879"
       rx="3.2442858"
       y="95.027672"
       x="139.79616"
       height="42.857143"
       width="42.857143"
       id="rect21547-2-2-4"
       style="opacity:1;fill:#ffffff;fill-opacity:1;stroke:#000000;stroke-width:2.14285707;stroke-miterlimit:4;stroke-dasharray:none;stroke-dashoffset:0;stroke-opacity:1" /><g
       transform="matrix(0.18777491,0,0,0.18777491,138.30526,73.131376)"
       id="g12241"><g
         transform="matrix(0.26458333,0,0,0.26458333,8.6746598,45.911979)"
         id="layer1-3"><path
           inkscape:connector-curvature="0"
           d="m 96.169401,310.49103 c -0.06225,-0.0297 -0.11052,0.0182 -0.11052,0.0552 0,1.3341 19.275149,26.94569 33.929469,45.09194 31.45448,38.94966 97.05739,117.43851 105.93291,126.71056 6.82503,7.12993 8.27046,9.65241 7.51532,13.42812 -0.68226,3.4113 0.28337,5.98126 3.70241,9.67046 4.40514,4.75322 4.60662,5.72107 3.53662,17.51732 -0.62275,6.86534 -3.04286,20.91597 -5.3602,31.22176 -2.31733,10.30578 -5.75662,32.98437 -7.6811,50.39687 -11.58328,104.80475 -15.97379,152.57753 -16.90947,184.62276 l -0.77364,27.40882 3.42611,-28.29297 c 9.46805,-78.44713 28.29086,-207.73941 37.41083,-256.95775 l 3.7024,-20.00394 6.41014,0.5526 6.41012,0.55259 -0.16569,129.97089 c -0.32576,225.32045 0.0225,371.48424 -0.44208,407.92734 h 31.44278 c -1.02668,-6.8473 -1.61807,-20.695 -2.26564,-48.9601 -1.90579,-83.18297 -4.57149,-183.0915 -6.46539,-243.14284 -3.08639,-97.8629 -3.47661,-113.31838 -4.58655,-180.8651 l -1.04994,-65.92486 15.03064,0.22104 c 8.27172,0.14093 15.81458,-0.2205 16.79896,-0.82889 2.52817,-1.56249 6.04526,-19.04266 4.19974,-20.88818 -0.83704,-0.83705 -5.62084,-2.18664 -10.66513,-2.98403 -5.04428,-0.7974 -9.58829,-1.79666 -10.05727,-2.26565 -1.50786,-1.50786 43.8475,-40.03543 82.39226,-69.95881 8.00647,-6.21567 33.89126,-25.15717 50.94947,-37.30033 32.41619,-23.07594 -9.95017,-0.17453 -67.85894,36.69247 -10.69829,6.81093 -21.79149,13.69951 -24.64585,15.30694 -10.16961,5.72698 -56.89754,36.76056 -69.24044,45.9761 -12.78417,9.54499 -19.475,12.46441 -23.09857,10.05727 -1.1126,-0.7391 -5.23089,-8.09003 -9.17311,-16.35688 -8.24603,-17.29204 -8.40634,-17.48174 -43.65519,-50.34162 -28.14202,-26.23463 -60.87142,-58.87424 -90.57079,-90.23914 -9.34581,-9.86991 -17.082081,-17.62564 -18.014669,-18.06993 z"
           id="path3196"
           style="fill:#000000" /></g><g
         id="g1160"
         transform="matrix(0.31388013,0,0,0.31388013,94.839842,160.58073)"
         clip-path="url(#clipPath1164)"><path
           id="path4197"
           d="m 284.09868,264.31996 c 33.55891,47.4202 138.6129,180.19677 353.09808,161.22869"
           style="fill:none;fill-rule:evenodd;stroke:#000000;stroke-width:11.5;stroke-linecap:butt;stroke-linejoin:miter;stroke-miterlimit:4;stroke-dasharray:none;stroke-opacity:1"
           inkscape:connector-curvature="0" /><path
           sodipodi:nodetypes="cc"
           inkscape:connector-curvature="0"
           id="path4205"
           d="m 249.62161,175.63017 c 33.55891,47.4202 127.41226,163.39582 341.89749,144.42774"
           style="fill:none;fill-rule:evenodd;stroke:#000000;stroke-width:11.5;stroke-linecap:butt;stroke-linejoin:miter;stroke-miterlimit:4;stroke-dasharray:none;stroke-opacity:1" /><path
           id="path4213"
           d="m 224.86015,264.76415 c 33.55891,47.4202 138.6129,180.19677 353.09813,161.22869"
           style="fill:none;fill-rule:evenodd;stroke:#000000;stroke-width:11.5;stroke-linecap:butt;stroke-linejoin:miter;stroke-miterlimit:4;stroke-dasharray:none;stroke-opacity:1"
           inkscape:connector-curvature="0" /><path
           id="path3653"
           d="M 56.079228,513.59064 H 238.93637"
           style="fill:none;fill-rule:evenodd;stroke:#000000;stroke-width:11.5;stroke-linecap:butt;stroke-linejoin:miter;stroke-miterlimit:4;stroke-dasharray:none;stroke-opacity:1"
           inkscape:connector-curvature="0" /><path
           id="path3655"
           d="M 90.364948,512.16206 153.22209,62.162072"
           style="fill:none;fill-rule:evenodd;stroke:#000000;stroke-width:11.5;stroke-linecap:butt;stroke-linejoin:miter;stroke-miterlimit:4;stroke-dasharray:none;stroke-opacity:1"
           inkscape:connector-curvature="0" /><path
           id="path3657"
           d="M 89.605228,513.7703 154.01159,476.58528 99.570528,445.15371 154.034,413.70922 l -46.492,-26.84217 45.89374,-26.49677 -38.8369,-22.4225 40.00888,-23.09913 -34.73389,-20.05363 34.52276,-19.93172 -28.7965,-16.62567 28.84029,-16.65095 -25.03496,-14.45394 24.66192,-14.23857 -20.64818,-11.92123 21.11165,-12.18881 -17.39602,-10.0436 17.1118,-9.8795 -14.27948,-8.24427 14.03253,-8.10168 -11.42694,-6.59735 11.12924,-6.42547 -9.96351,-5.75243 9.94915,-5.74415 -8.38878,-4.84326 8.46136,-4.88517 -7.24049,-4.18029 7.3881,-7.3881 -5.58066,-5.58064 5.69494,-5.694942 -4.42195,-4.42195 4.35495,-4.35496 -2.81356,-4.87323 2.92313,-2.92312 -2.38754,-2.387542 2.41197,-2.411975 -1.87598,-1.87598"
           style="fill:none;fill-rule:evenodd;stroke:#000000;stroke-width:11.5;stroke-linecap:butt;stroke-linejoin:miter;stroke-miterlimit:4;stroke-dasharray:none;stroke-opacity:1"
           inkscape:connector-curvature="0" /><path
           id="path3659"
           d="M 89.605228,513.7703 154.01159,476.58528 99.570528,445.15371 154.034,413.70922 l -46.492,-26.84217 45.89374,-26.49677 -38.8369,-22.4225 40.00888,-23.09913 -34.73389,-20.05363 34.52276,-19.93172 -28.7965,-16.62567 28.84029,-16.65095 -25.03496,-14.45394 24.66192,-14.23857 -20.64818,-11.92123 21.11165,-12.18881 -17.39602,-10.0436 17.1118,-9.8795 -14.27948,-8.24427 14.03253,-8.10168 -11.42694,-6.59735 11.12924,-6.42547 -9.96351,-5.75243 9.94915,-5.74415 -8.38878,-4.84326 8.46136,-4.88517 -7.24049,-4.18029 7.3881,-7.3881 -5.58066,-5.58064 5.69494,-5.694942 -4.42195,-4.42195 4.35495,-4.35496 -2.81356,-4.87323 2.92313,-2.92312 -2.38754,-2.387542 2.41197,-2.411975 -1.87598,-1.87598"
           style="fill:none;fill-rule:evenodd;stroke:#000000;stroke-width:11.5;stroke-linecap:butt;stroke-linejoin:miter;stroke-miterlimit:4;stroke-dasharray:none;stroke-opacity:1"
           inkscape:connector-curvature="0" /><path
           id="path3661"
           d="M 89.605228,513.7703 154.01159,476.58528 99.570528,445.15371 154.034,413.70922 l -46.492,-26.84217 45.89374,-26.49677 -38.8369,-22.4225 40.00888,-23.09913 -34.73389,-20.05363 34.52276,-19.93172 -28.7965,-16.62567 28.84029,-16.65095 -25.03496,-14.45394 24.66192,-14.23857 -20.64818,-11.92123 21.11165,-12.18881 -17.39602,-10.0436 17.1118,-9.8795 -14.27948,-8.24427 14.03253,-8.10168 -11.42694,-6.59735 11.12924,-6.42547 -9.96351,-5.75243 9.94915,-5.74415 -8.38878,-4.84326 8.46136,-4.88517 -7.24049,-4.18029 7.3881,-7.3881 -5.58066,-5.58064 5.69494,-5.694942 -4.42195,-4.42195 4.35495,-4.35496 -2.81356,-4.87323 2.92313,-2.92312 -2.38754,-2.387542 2.41197,-2.411975 -1.87598,-1.87598"
           style="fill:none;fill-rule:evenodd;stroke:#000000;stroke-width:11.5;stroke-linecap:butt;stroke-linejoin:miter;stroke-miterlimit:4;stroke-dasharray:none;stroke-opacity:1"
           inkscape:connector-curvature="0" /><path
           id="path3663"
           d="M 154.42405,241.21375 H 17.745478 L 132.46476,210.47481 h 21.95929"
           style="fill:none;fill-rule:evenodd;stroke:#000000;stroke-width:11.5;stroke-linecap:butt;stroke-linejoin:miter;stroke-miterlimit:4;stroke-dasharray:none;stroke-opacity:1"
           inkscape:connector-curvature="0" /><path
           id="path3665"
           d="m 127.50576,240.5075 -21.7928,-21.7928 -21.792812,21.7928 -12.88618,-12.88618 -13.07568,13.07568 -7.5801,-7.5801"
           style="fill:none;fill-rule:evenodd;stroke:#000000;stroke-width:11.5;stroke-linecap:butt;stroke-linejoin:miter;stroke-miterlimit:4;stroke-dasharray:none;stroke-opacity:1"
           inkscape:connector-curvature="0" /><g
           transform="matrix(0.313725,0,0,0.313725,48.243598,114.57341)"
           style="fill:#333333;stroke:#000000;stroke-width:36.65630722;stroke-miterlimit:4;stroke-dasharray:none"
           id="g3667"><rect
             width="9.6478987"
             height="70.215263"
             x="33.787605"
             y="122.67102"
             style="opacity:1;fill:#333333;fill-opacity:1;stroke:#000000;stroke-width:36.65630722;stroke-linecap:butt;stroke-linejoin:miter;stroke-miterlimit:4;stroke-dasharray:none;stroke-dashoffset:0;stroke-opacity:1"
             id="rect3669" /><path
             d="m 44.487535,230.68277 a 13.667858,4.2879555 0 1 1 -27.335715,0 13.667858,4.2879555 0 1 1 27.335715,0 z"
             transform="translate(7.791877,-84.19395)"
             style="opacity:1;fill:#333333;fill-opacity:1;stroke:#000000;stroke-width:36.65630722;stroke-linecap:butt;stroke-linejoin:miter;stroke-miterlimit:4;stroke-dasharray:none;stroke-dashoffset:0;stroke-opacity:1"
             id="path3671"
             inkscape:connector-curvature="0" /><path
             d="m 44.487535,230.68277 a 13.667858,4.2879555 0 1 1 -27.335715,0 13.667858,4.2879555 0 1 1 27.335715,0 z"
             transform="translate(7.791877,-95.08144)"
             style="opacity:1;fill:#333333;fill-opacity:1;stroke:#000000;stroke-width:36.65630722;stroke-linecap:butt;stroke-linejoin:miter;stroke-miterlimit:4;stroke-dasharray:none;stroke-dashoffset:0;stroke-opacity:1"
             id="path3673"
             inkscape:connector-curvature="0" /><path
             d="m 44.487535,230.68277 a 13.667858,4.2879555 0 1 1 -27.335715,0 13.667858,4.2879555 0 1 1 27.335715,0 z"
             transform="translate(7.791877,-51.5315)"
             style="opacity:1;fill:#333333;fill-opacity:1;stroke:#000000;stroke-width:36.65630722;stroke-linecap:butt;stroke-linejoin:miter;stroke-miterlimit:4;stroke-dasharray:none;stroke-dashoffset:0;stroke-opacity:1"
             id="path3675"
             inkscape:connector-curvature="0" /><path
             d="m 44.487535,230.68277 a 13.667858,4.2879555 0 1 1 -27.335715,0 13.667858,4.2879555 0 1 1 27.335715,0 z"
             transform="translate(7.791877,-62.41897)"
             style="opacity:1;fill:#333333;fill-opacity:1;stroke:#000000;stroke-width:36.65630722;stroke-linecap:butt;stroke-linejoin:miter;stroke-miterlimit:4;stroke-dasharray:none;stroke-dashoffset:0;stroke-opacity:1"
             id="path3677"
             inkscape:connector-curvature="0" /><path
             d="m 44.487535,230.68277 a 13.667858,4.2879555 0 1 1 -27.335715,0 13.667858,4.2879555 0 1 1 27.335715,0 z"
             transform="translate(7.791877,-73.30649)"
             style="opacity:1;fill:#333333;fill-opacity:1;stroke:#000000;stroke-width:36.65630722;stroke-linecap:butt;stroke-linejoin:miter;stroke-miterlimit:4;stroke-dasharray:none;stroke-dashoffset:0;stroke-opacity:1"
             id="path3679"
             inkscape:connector-curvature="0" /><path
             d="m 44.487535,230.68277 a 13.667858,4.2879555 0 1 1 -27.335715,0 13.667858,4.2879555 0 1 1 27.335715,0 z"
             transform="translate(7.791877,-40.64403)"
             style="opacity:1;fill:#333333;fill-opacity:1;stroke:#000000;stroke-width:36.65630722;stroke-linecap:butt;stroke-linejoin:miter;stroke-miterlimit:4;stroke-dasharray:none;stroke-dashoffset:0;stroke-opacity:1"
             id="path3681"
             inkscape:connector-curvature="0" /></g><g
           transform="matrix(0.313725,0,0,0.313725,13.403968,203.01251)"
           style="fill:#333333;stroke:#000000;stroke-width:36.65630722;stroke-miterlimit:4;stroke-dasharray:none"
           id="g3683"><rect
             width="9.6478987"
             height="70.215263"
             x="33.787605"
             y="122.67102"
             style="opacity:1;fill:#333333;fill-opacity:1;stroke:#000000;stroke-width:36.65630722;stroke-linecap:butt;stroke-linejoin:miter;stroke-miterlimit:4;stroke-dasharray:none;stroke-dashoffset:0;stroke-opacity:1"
             id="rect3685" /><path
             d="m 44.487535,230.68277 a 13.667858,4.2879555 0 1 1 -27.335715,0 13.667858,4.2879555 0 1 1 27.335715,0 z"
             transform="translate(7.791877,-84.19395)"
             style="opacity:1;fill:#333333;fill-opacity:1;stroke:#000000;stroke-width:36.65630722;stroke-linecap:butt;stroke-linejoin:miter;stroke-miterlimit:4;stroke-dasharray:none;stroke-dashoffset:0;stroke-opacity:1"
             id="path3687"
             inkscape:connector-curvature="0" /><path
             d="m 44.487535,230.68277 a 13.667858,4.2879555 0 1 1 -27.335715,0 13.667858,4.2879555 0 1 1 27.335715,0 z"
             transform="translate(7.791877,-95.08144)"
             style="opacity:1;fill:#333333;fill-opacity:1;stroke:#000000;stroke-width:36.65630722;stroke-linecap:butt;stroke-linejoin:miter;stroke-miterlimit:4;stroke-dasharray:none;stroke-dashoffset:0;stroke-opacity:1"
             id="path3689"
             inkscape:connector-curvature="0" /><path
             d="m 44.487535,230.68277 a 13.667858,4.2879555 0 1 1 -27.335715,0 13.667858,4.2879555 0 1 1 27.335715,0 z"
             transform="translate(7.791877,-51.5315)"
             style="opacity:1;fill:#333333;fill-opacity:1;stroke:#000000;stroke-width:36.65630722;stroke-linecap:butt;stroke-linejoin:miter;stroke-miterlimit:4;stroke-dasharray:none;stroke-dashoffset:0;stroke-opacity:1"
             id="path3691"
             inkscape:connector-curvature="0" /><path
             d="m 44.487535,230.68277 a 13.667858,4.2879555 0 1 1 -27.335715,0 13.667858,4.2879555 0 1 1 27.335715,0 z"
             transform="translate(7.791877,-62.41897)"
             style="opacity:1;fill:#333333;fill-opacity:1;stroke:#000000;stroke-width:36.65630722;stroke-linecap:butt;stroke-linejoin:miter;stroke-miterlimit:4;stroke-dasharray:none;stroke-dashoffset:0;stroke-opacity:1"
             id="path3693"
             inkscape:connector-curvature="0" /><path
             d="m 44.487535,230.68277 a 13.667858,4.2879555 0 1 1 -27.335715,0 13.667858,4.2879555 0 1 1 27.335715,0 z"
             transform="translate(7.791877,-73.30649)"
             style="opacity:1;fill:#333333;fill-opacity:1;stroke:#000000;stroke-width:36.65630722;stroke-linecap:butt;stroke-linejoin:miter;stroke-miterlimit:4;stroke-dasharray:none;stroke-dashoffset:0;stroke-opacity:1"
             id="path3695"
             inkscape:connector-curvature="0" /><path
             d="m 44.487535,230.68277 a 13.667858,4.2879555 0 1 1 -27.335715,0 13.667858,4.2879555 0 1 1 27.335715,0 z"
             transform="translate(7.791877,-40.64403)"
             style="opacity:1;fill:#333333;fill-opacity:1;stroke:#000000;stroke-width:36.65630722;stroke-linecap:butt;stroke-linejoin:miter;stroke-miterlimit:4;stroke-dasharray:none;stroke-dashoffset:0;stroke-opacity:1"
             id="path3697"
             inkscape:connector-curvature="0" /></g><g
           transform="matrix(0.313725,0,0,0.313725,73.167338,203.01251)"
           style="fill:#333333;stroke:#000000;stroke-width:36.65630722;stroke-miterlimit:4;stroke-dasharray:none"
           id="g3699"><rect
             width="9.6478987"
             height="70.215263"
             x="33.787605"
             y="122.67102"
             style="opacity:1;fill:#333333;fill-opacity:1;stroke:#000000;stroke-width:36.65630722;stroke-linecap:butt;stroke-linejoin:miter;stroke-miterlimit:4;stroke-dasharray:none;stroke-dashoffset:0;stroke-opacity:1"
             id="rect3701" /><path
             d="m 44.487535,230.68277 a 13.667858,4.2879555 0 1 1 -27.335715,0 13.667858,4.2879555 0 1 1 27.335715,0 z"
             transform="translate(7.791877,-84.19395)"
             style="opacity:1;fill:#333333;fill-opacity:1;stroke:#000000;stroke-width:36.65630722;stroke-linecap:butt;stroke-linejoin:miter;stroke-miterlimit:4;stroke-dasharray:none;stroke-dashoffset:0;stroke-opacity:1"
             id="path3703"
             inkscape:connector-curvature="0" /><path
             d="m 44.487535,230.68277 a 13.667858,4.2879555 0 1 1 -27.335715,0 13.667858,4.2879555 0 1 1 27.335715,0 z"
             transform="translate(7.791877,-95.08144)"
             style="opacity:1;fill:#333333;fill-opacity:1;stroke:#000000;stroke-width:36.65630722;stroke-linecap:butt;stroke-linejoin:miter;stroke-miterlimit:4;stroke-dasharray:none;stroke-dashoffset:0;stroke-opacity:1"
             id="path3705"
             inkscape:connector-curvature="0" /><path
             d="m 44.487535,230.68277 a 13.667858,4.2879555 0 1 1 -27.335715,0 13.667858,4.2879555 0 1 1 27.335715,0 z"
             transform="translate(7.791877,-51.5315)"
             style="opacity:1;fill:#333333;fill-opacity:1;stroke:#000000;stroke-width:36.65630722;stroke-linecap:butt;stroke-linejoin:miter;stroke-miterlimit:4;stroke-dasharray:none;stroke-dashoffset:0;stroke-opacity:1"
             id="path3707"
             inkscape:connector-curvature="0" /><path
             d="m 44.487535,230.68277 a 13.667858,4.2879555 0 1 1 -27.335715,0 13.667858,4.2879555 0 1 1 27.335715,0 z"
             transform="translate(7.791877,-62.41897)"
             style="opacity:1;fill:#333333;fill-opacity:1;stroke:#000000;stroke-width:36.65630722;stroke-linecap:butt;stroke-linejoin:miter;stroke-miterlimit:4;stroke-dasharray:none;stroke-dashoffset:0;stroke-opacity:1"
             id="path3709"
             inkscape:connector-curvature="0" /><path
             d="m 44.487535,230.68277 a 13.667858,4.2879555 0 1 1 -27.335715,0 13.667858,4.2879555 0 1 1 27.335715,0 z"
             transform="translate(7.791877,-73.30649)"
             style="opacity:1;fill:#333333;fill-opacity:1;stroke:#000000;stroke-width:36.65630722;stroke-linecap:butt;stroke-linejoin:miter;stroke-miterlimit:4;stroke-dasharray:none;stroke-dashoffset:0;stroke-opacity:1"
             id="path3711"
             inkscape:connector-curvature="0" /><path
             d="m 44.487535,230.68277 a 13.667858,4.2879555 0 1 1 -27.335715,0 13.667858,4.2879555 0 1 1 27.335715,0 z"
             transform="translate(7.791877,-40.64403)"
             style="opacity:1;fill:#333333;fill-opacity:1;stroke:#000000;stroke-width:36.65630722;stroke-linecap:butt;stroke-linejoin:miter;stroke-miterlimit:4;stroke-dasharray:none;stroke-dashoffset:0;stroke-opacity:1"
             id="path3713"
             inkscape:connector-curvature="0" /></g><path
           id="path3715"
           d="M 153.64931,152.35347 H 56.258708 l 87.152362,-23.35241 h 10.66854"
           style="fill:none;fill-rule:evenodd;stroke:#000000;stroke-width:11.5;stroke-linecap:butt;stroke-linejoin:miter;stroke-miterlimit:4;stroke-dasharray:none;stroke-opacity:1"
           inkscape:connector-curvature="0" /><path
           id="path3717"
           d="m 140.02323,151.77974 -16.63816,-16.63816 -16.56644,16.56644 -9.681692,-9.68168 -10.04027,10.04026"
           style="fill:none;fill-rule:evenodd;stroke:#000000;stroke-width:11.5;stroke-linecap:butt;stroke-linejoin:miter;stroke-miterlimit:4;stroke-dasharray:none;stroke-opacity:1"
           inkscape:connector-curvature="0" /><g
           transform="translate(-258.90324,-49.404592)"
           id="g3719"
           style="stroke:#000000;stroke-width:11.5;stroke-miterlimit:4;stroke-dasharray:none"><path
             d="m 477.13462,561.54154 -62.85714,-450"
             style="fill:none;fill-rule:evenodd;stroke:#000000;stroke-width:11.5;stroke-linecap:butt;stroke-linejoin:miter;stroke-miterlimit:4;stroke-dasharray:none;stroke-opacity:1"
             id="path3721"
             inkscape:connector-curvature="0" /><path
             d="m 477.89434,563.14978 -64.40636,-37.18502 54.44106,-31.43157 -54.46347,-31.44449 46.492,-26.84217 -45.89374,-26.49677 38.8369,-22.4225 -40.00888,-23.09913 34.73389,-20.05363 -34.52276,-19.93172 28.7965,-16.62567 -28.84029,-16.65095 25.03496,-14.45394 -24.66192,-14.23857 20.64818,-11.92123 -21.11165,-12.18881 17.39602,-10.0436 -17.1118,-9.8795 14.27948,-8.24427 -14.03253,-8.10168 11.42694,-6.59735 -11.12924,-6.42547 9.96351,-5.75243 -9.94915,-5.74415 8.38878,-4.84326 -8.46136,-4.88517 7.24049,-4.18029 -7.3881,-7.3881 5.58066,-5.58065 -5.69494,-5.69494 4.42195,-4.42195 -4.35495,-4.35496 2.81356,-4.87323 -2.92313,-2.92312 2.38754,-2.38755 -2.41197,-2.41197 1.87598,-1.87598"
             style="fill:none;fill-rule:evenodd;stroke:#000000;stroke-width:11.5;stroke-linecap:butt;stroke-linejoin:miter;stroke-miterlimit:4;stroke-dasharray:none;stroke-opacity:1"
             id="path3723"
             inkscape:connector-curvature="0" /><path
             d="m 477.89434,563.14978 -64.40636,-37.18502 54.44106,-31.43157 -54.46347,-31.44449 46.492,-26.84217 -45.89374,-26.49677 38.8369,-22.4225 -40.00888,-23.09913 34.73389,-20.05363 -34.52276,-19.93172 28.7965,-16.62567 -28.84029,-16.65095 25.03496,-14.45394 -24.66192,-14.23857 20.64818,-11.92123 -21.11165,-12.18881 17.39602,-10.0436 -17.1118,-9.8795 14.27948,-8.24427 -14.03253,-8.10168 11.42694,-6.59735 -11.12924,-6.42547 9.96351,-5.75243 -9.94915,-5.74415 8.38878,-4.84326 -8.46136,-4.88517 7.24049,-4.18029 -7.3881,-7.3881 5.58066,-5.58065 -5.69494,-5.69494 4.42195,-4.42195 -4.35495,-4.35496 2.81356,-4.87323 -2.92313,-2.92312 2.38754,-2.38755 -2.41197,-2.41197 1.87598,-1.87598"
             style="fill:none;fill-rule:evenodd;stroke:#000000;stroke-width:11.5;stroke-linecap:butt;stroke-linejoin:miter;stroke-miterlimit:4;stroke-dasharray:none;stroke-opacity:1"
             id="path3725"
             inkscape:connector-curvature="0" /><path
             d="m 477.89434,563.14978 -64.40636,-37.18502 54.44106,-31.43157 -54.46347,-31.44449 46.492,-26.84217 -45.89374,-26.49677 38.8369,-22.4225 -40.00888,-23.09913 34.73389,-20.05363 -34.52276,-19.93172 28.7965,-16.62567 -28.84029,-16.65095 25.03496,-14.45394 -24.66192,-14.23857 20.64818,-11.92123 -21.11165,-12.18881 17.39602,-10.0436 -17.1118,-9.8795 14.27948,-8.24427 -14.03253,-8.10168 11.42694,-6.59735 -11.12924,-6.42547 9.96351,-5.75243 -9.94915,-5.74415 8.38878,-4.84326 -8.46136,-4.88517 7.24049,-4.18029 -7.3881,-7.3881 5.58066,-5.58065 -5.69494,-5.69494 4.42195,-4.42195 -4.35495,-4.35496 2.81356,-4.87323 -2.92313,-2.92312 2.38754,-2.38755 -2.41197,-2.41197 1.87598,-1.87598"
             style="fill:none;fill-rule:evenodd;stroke:#000000;stroke-width:11.5;stroke-linecap:butt;stroke-linejoin:miter;stroke-miterlimit:4;stroke-dasharray:none;stroke-opacity:1"
             id="path3727"
             inkscape:connector-curvature="0" /><path
             d="M 413.07552,290.59323 H 549.75409 L 435.03481,259.85429 h -21.95929"
             style="fill:none;fill-rule:evenodd;stroke:#000000;stroke-width:11.5;stroke-linecap:butt;stroke-linejoin:miter;stroke-miterlimit:4;stroke-dasharray:none;stroke-opacity:1"
             id="path3729"
             inkscape:connector-curvature="0" /><path
             d="m 439.99381,289.88698 21.7928,-21.7928 21.79281,21.7928 12.88618,-12.88618 13.07568,13.07568 7.5801,-7.5801"
             style="fill:none;fill-rule:evenodd;stroke:#000000;stroke-width:11.5;stroke-linecap:butt;stroke-linejoin:miter;stroke-miterlimit:4;stroke-dasharray:none;stroke-opacity:1"
             id="path3731"
             inkscape:connector-curvature="0" /><g
             transform="matrix(-0.313725,0,0,0.313725,519.256,163.9529)"
             style="fill:#333333;stroke:#000000;stroke-width:36.65630722;stroke-miterlimit:4;stroke-dasharray:none"
             id="g3733"><rect
               width="9.6478987"
               height="70.215263"
               x="33.787605"
               y="122.67102"
               style="opacity:1;fill:#333333;fill-opacity:1;stroke:#000000;stroke-width:36.65630722;stroke-linecap:butt;stroke-linejoin:miter;stroke-miterlimit:4;stroke-dasharray:none;stroke-dashoffset:0;stroke-opacity:1"
               id="rect3735" /><path
               d="m 44.487535,230.68277 a 13.667858,4.2879555 0 1 1 -27.335715,0 13.667858,4.2879555 0 1 1 27.335715,0 z"
               transform="translate(7.791877,-84.19395)"
               style="opacity:1;fill:#333333;fill-opacity:1;stroke:#000000;stroke-width:36.65630722;stroke-linecap:butt;stroke-linejoin:miter;stroke-miterlimit:4;stroke-dasharray:none;stroke-dashoffset:0;stroke-opacity:1"
               id="path3737"
               inkscape:connector-curvature="0" /><path
               d="m 44.487535,230.68277 a 13.667858,4.2879555 0 1 1 -27.335715,0 13.667858,4.2879555 0 1 1 27.335715,0 z"
               transform="translate(7.791877,-95.08144)"
               style="opacity:1;fill:#333333;fill-opacity:1;stroke:#000000;stroke-width:36.65630722;stroke-linecap:butt;stroke-linejoin:miter;stroke-miterlimit:4;stroke-dasharray:none;stroke-dashoffset:0;stroke-opacity:1"
               id="path3739"
               inkscape:connector-curvature="0" /><path
               d="m 44.487535,230.68277 a 13.667858,4.2879555 0 1 1 -27.335715,0 13.667858,4.2879555 0 1 1 27.335715,0 z"
               transform="translate(7.791877,-51.5315)"
               style="opacity:1;fill:#333333;fill-opacity:1;stroke:#000000;stroke-width:36.65630722;stroke-linecap:butt;stroke-linejoin:miter;stroke-miterlimit:4;stroke-dasharray:none;stroke-dashoffset:0;stroke-opacity:1"
               id="path3741"
               inkscape:connector-curvature="0" /><path
               d="m 44.487535,230.68277 a 13.667858,4.2879555 0 1 1 -27.335715,0 13.667858,4.2879555 0 1 1 27.335715,0 z"
               transform="translate(7.791877,-62.41897)"
               style="opacity:1;fill:#333333;fill-opacity:1;stroke:#000000;stroke-width:36.65630722;stroke-linecap:butt;stroke-linejoin:miter;stroke-miterlimit:4;stroke-dasharray:none;stroke-dashoffset:0;stroke-opacity:1"
               id="path3743"
               inkscape:connector-curvature="0" /><path
               d="m 44.487535,230.68277 a 13.667858,4.2879555 0 1 1 -27.335715,0 13.667858,4.2879555 0 1 1 27.335715,0 z"
               transform="translate(7.791877,-73.30649)"
               style="opacity:1;fill:#333333;fill-opacity:1;stroke:#000000;stroke-width:36.65630722;stroke-linecap:butt;stroke-linejoin:miter;stroke-miterlimit:4;stroke-dasharray:none;stroke-dashoffset:0;stroke-opacity:1"
               id="path3745"
               inkscape:connector-curvature="0" /><path
               d="m 44.487535,230.68277 a 13.667858,4.2879555 0 1 1 -27.335715,0 13.667858,4.2879555 0 1 1 27.335715,0 z"
               transform="translate(7.791877,-40.64403)"
               style="opacity:1;fill:#333333;fill-opacity:1;stroke:#000000;stroke-width:36.65630722;stroke-linecap:butt;stroke-linejoin:miter;stroke-miterlimit:4;stroke-dasharray:none;stroke-dashoffset:0;stroke-opacity:1"
               id="path3747"
               inkscape:connector-curvature="0" /></g><g
             transform="matrix(-0.313725,0,0,0.313725,554.0956,252.392)"
             style="fill:#333333;stroke:#000000;stroke-width:36.65630722;stroke-miterlimit:4;stroke-dasharray:none"
             id="g3749"><rect
               width="9.6478987"
               height="70.215263"
               x="33.787605"
               y="122.67102"
               style="opacity:1;fill:#333333;fill-opacity:1;stroke:#000000;stroke-width:36.65630722;stroke-linecap:butt;stroke-linejoin:miter;stroke-miterlimit:4;stroke-dasharray:none;stroke-dashoffset:0;stroke-opacity:1"
               id="rect3751" /><path
               d="m 44.487535,230.68277 a 13.667858,4.2879555 0 1 1 -27.335715,0 13.667858,4.2879555 0 1 1 27.335715,0 z"
               transform="translate(7.791877,-84.19395)"
               style="opacity:1;fill:#333333;fill-opacity:1;stroke:#000000;stroke-width:36.65630722;stroke-linecap:butt;stroke-linejoin:miter;stroke-miterlimit:4;stroke-dasharray:none;stroke-dashoffset:0;stroke-opacity:1"
               id="path3753"
               inkscape:connector-curvature="0" /><path
               d="m 44.487535,230.68277 a 13.667858,4.2879555 0 1 1 -27.335715,0 13.667858,4.2879555 0 1 1 27.335715,0 z"
               transform="translate(7.791877,-95.08144)"
               style="opacity:1;fill:#333333;fill-opacity:1;stroke:#000000;stroke-width:36.65630722;stroke-linecap:butt;stroke-linejoin:miter;stroke-miterlimit:4;stroke-dasharray:none;stroke-dashoffset:0;stroke-opacity:1"
               id="path3755"
               inkscape:connector-curvature="0" /><path
               d="m 44.487535,230.68277 a 13.667858,4.2879555 0 1 1 -27.335715,0 13.667858,4.2879555 0 1 1 27.335715,0 z"
               transform="translate(7.791877,-51.5315)"
               style="opacity:1;fill:#333333;fill-opacity:1;stroke:#000000;stroke-width:36.65630722;stroke-linecap:butt;stroke-linejoin:miter;stroke-miterlimit:4;stroke-dasharray:none;stroke-dashoffset:0;stroke-opacity:1"
               id="path3757"
               inkscape:connector-curvature="0" /><path
               d="m 44.487535,230.68277 a 13.667858,4.2879555 0 1 1 -27.335715,0 13.667858,4.2879555 0 1 1 27.335715,0 z"
               transform="translate(7.791877,-62.41897)"
               style="opacity:1;fill:#333333;fill-opacity:1;stroke:#000000;stroke-width:36.65630722;stroke-linecap:butt;stroke-linejoin:miter;stroke-miterlimit:4;stroke-dasharray:none;stroke-dashoffset:0;stroke-opacity:1"
               id="path3759"
               inkscape:connector-curvature="0" /><path
               d="m 44.487535,230.68277 a 13.667858,4.2879555 0 1 1 -27.335715,0 13.667858,4.2879555 0 1 1 27.335715,0 z"
               transform="translate(7.791877,-73.30649)"
               style="opacity:1;fill:#333333;fill-opacity:1;stroke:#000000;stroke-width:36.65630722;stroke-linecap:butt;stroke-linejoin:miter;stroke-miterlimit:4;stroke-dasharray:none;stroke-dashoffset:0;stroke-opacity:1"
               id="path3761"
               inkscape:connector-curvature="0" /><path
               d="m 44.487535,230.68277 a 13.667858,4.2879555 0 1 1 -27.335715,0 13.667858,4.2879555 0 1 1 27.335715,0 z"
               transform="translate(7.791877,-40.64403)"
               style="opacity:1;fill:#333333;fill-opacity:1;stroke:#000000;stroke-width:36.65630722;stroke-linecap:butt;stroke-linejoin:miter;stroke-miterlimit:4;stroke-dasharray:none;stroke-dashoffset:0;stroke-opacity:1"
               id="path3763"
               inkscape:connector-curvature="0" /></g><g
             transform="matrix(-0.313725,0,0,0.313725,494.3322,252.392)"
             style="fill:#333333;stroke:#000000;stroke-width:36.65630722;stroke-miterlimit:4;stroke-dasharray:none"
             id="g3765"><rect
               width="9.6478987"
               height="70.215263"
               x="33.787605"
               y="122.67102"
               style="opacity:1;fill:#333333;fill-opacity:1;stroke:#000000;stroke-width:36.65630722;stroke-linecap:butt;stroke-linejoin:miter;stroke-miterlimit:4;stroke-dasharray:none;stroke-dashoffset:0;stroke-opacity:1"
               id="rect3767" /><path
               d="m 44.487535,230.68277 a 13.667858,4.2879555 0 1 1 -27.335715,0 13.667858,4.2879555 0 1 1 27.335715,0 z"
               transform="translate(7.791877,-84.19395)"
               style="opacity:1;fill:#333333;fill-opacity:1;stroke:#000000;stroke-width:36.65630722;stroke-linecap:butt;stroke-linejoin:miter;stroke-miterlimit:4;stroke-dasharray:none;stroke-dashoffset:0;stroke-opacity:1"
               id="path3769"
               inkscape:connector-curvature="0" /><path
               d="m 44.487535,230.68277 a 13.667858,4.2879555 0 1 1 -27.335715,0 13.667858,4.2879555 0 1 1 27.335715,0 z"
               transform="translate(7.791877,-95.08144)"
               style="opacity:1;fill:#333333;fill-opacity:1;stroke:#000000;stroke-width:36.65630722;stroke-linecap:butt;stroke-linejoin:miter;stroke-miterlimit:4;stroke-dasharray:none;stroke-dashoffset:0;stroke-opacity:1"
               id="path3771"
               inkscape:connector-curvature="0" /><path
               d="m 44.487535,230.68277 a 13.667858,4.2879555 0 1 1 -27.335715,0 13.667858,4.2879555 0 1 1 27.335715,0 z"
               transform="translate(7.791877,-51.5315)"
               style="opacity:1;fill:#333333;fill-opacity:1;stroke:#000000;stroke-width:36.65630722;stroke-linecap:butt;stroke-linejoin:miter;stroke-miterlimit:4;stroke-dasharray:none;stroke-dashoffset:0;stroke-opacity:1"
               id="path3773"
               inkscape:connector-curvature="0" /><path
               d="m 44.487535,230.68277 a 13.667858,4.2879555 0 1 1 -27.335715,0 13.667858,4.2879555 0 1 1 27.335715,0 z"
               transform="translate(7.791877,-62.41897)"
               style="opacity:1;fill:#333333;fill-opacity:1;stroke:#000000;stroke-width:36.65630722;stroke-linecap:butt;stroke-linejoin:miter;stroke-miterlimit:4;stroke-dasharray:none;stroke-dashoffset:0;stroke-opacity:1"
               id="path3775"
               inkscape:connector-curvature="0" /><path
               d="m 44.487535,230.68277 a 13.667858,4.2879555 0 1 1 -27.335715,0 13.667858,4.2879555 0 1 1 27.335715,0 z"
               transform="translate(7.791877,-73.30649)"
               style="opacity:1;fill:#333333;fill-opacity:1;stroke:#000000;stroke-width:36.65630722;stroke-linecap:butt;stroke-linejoin:miter;stroke-miterlimit:4;stroke-dasharray:none;stroke-dashoffset:0;stroke-opacity:1"
               id="path3777"
               inkscape:connector-curvature="0" /><path
               d="m 44.487535,230.68277 a 13.667858,4.2879555 0 1 1 -27.335715,0 13.667858,4.2879555 0 1 1 27.335715,0 z"
               transform="translate(7.791877,-40.64403)"
               style="opacity:1;fill:#333333;fill-opacity:1;stroke:#000000;stroke-width:36.65630722;stroke-linecap:butt;stroke-linejoin:miter;stroke-miterlimit:4;stroke-dasharray:none;stroke-dashoffset:0;stroke-opacity:1"
               id="path3779"
               inkscape:connector-curvature="0" /></g><path
             d="m 413.85026,201.73295 h 97.3906 L 424.0885,178.38054 h -10.66854"
             style="fill:none;fill-rule:evenodd;stroke:#000000;stroke-width:11.5;stroke-linecap:butt;stroke-linejoin:miter;stroke-miterlimit:4;stroke-dasharray:none;stroke-opacity:1"
             id="path3781"
             inkscape:connector-curvature="0" /><path
             d="m 427.47634,201.15922 16.63816,-16.63816 16.56644,16.56644 9.68169,-9.68168 10.04027,10.04026"
             style="fill:none;fill-rule:evenodd;stroke:#000000;stroke-width:11.5;stroke-linecap:butt;stroke-linejoin:miter;stroke-miterlimit:4;stroke-dasharray:none;stroke-opacity:1"
             id="path3783"
             inkscape:connector-curvature="0" /></g><path
           id="path4221"
           d="M 61.613388,175.8041 C 95.172298,223.2243 200.22629,356.00087 414.71152,337.03279"
           style="fill:none;fill-rule:evenodd;stroke:#000000;stroke-width:11.5;stroke-linecap:butt;stroke-linejoin:miter;stroke-miterlimit:4;stroke-dasharray:none;stroke-opacity:1"
           inkscape:connector-curvature="0" /></g></g></g></g></svg>