<?xml version="1.0" encoding="UTF-8" standalone="no"?>
<!-- Generator: Adobe Illustrator 11.0, SVG Export Plug-In  -->

<!-- hand edited from http://commons.wikimedia.org/wiki/Image:1_9_2_44.svg -->

<svg
   xmlns:dc="http://purl.org/dc/elements/1.1/"
   xmlns:cc="http://creativecommons.org/ns#"
   xmlns:rdf="http://www.w3.org/1999/02/22-rdf-syntax-ns#"
   xmlns:svg="http://www.w3.org/2000/svg"
   xmlns="http://www.w3.org/2000/svg"
   xmlns:sodipodi="http://sodipodi.sourceforge.net/DTD/sodipodi-0.dtd"
   xmlns:inkscape="http://www.inkscape.org/namespaces/inkscape"
   width="50"
   height="50"
   viewBox="140 90 33.75 33.75"
   xml:space="preserve"
   id="svg2"
   version="1.0"
   sodipodi:docname="E_Water.svg"
   inkscape:version="0.92.4 (unknown)"><title
   id="title989">NACE Section E Classification Visual</title><defs
   id="defs5729" /><sodipodi:namedview
   pagecolor="#ffffff"
   bordercolor="#666666"
   borderopacity="1"
   objecttolerance="10"
   gridtolerance="10"
   guidetolerance="10"
   inkscape:pageopacity="0"
   inkscape:pageshadow="2"
   inkscape:window-width="1853"
   inkscape:window-height="1021"
   id="namedview5727"
   showgrid="false"
   inkscape:zoom="2.36"
   inkscape:cx="-119.91525"
   inkscape:cy="-20.338978"
   inkscape:window-x="0"
   inkscape:window-y="0"
   inkscape:window-maximized="0"
   inkscape:current-layer="svg2" /><metadata
   id="metadata19"><rdf:RDF><cc:Work
       rdf:about=""><cc:license
         rdf:resource="http://creativecommons.org/licenses/by-sa/2.5/" /><dc:format>image/svg+xml</dc:format><dc:type
         rdf:resource="http://purl.org/dc/dcmitype/StillImage" /><dc:title>NACE Section E Classification Visual</dc:title><dc:creator><cc:Agent><dc:title>Open Risk</dc:title></cc:Agent></dc:creator><dc:publisher><cc:Agent><dc:title>https://www.openriskmanagement.com</dc:title></cc:Agent></dc:publisher><dc:identifier>E_Water_Square</dc:identifier><dc:date>2018</dc:date><dc:rights><cc:Agent><dc:title>Creative Commons Attribution + Share-Alike  (CC-BY-SA)</dc:title></cc:Agent></dc:rights><dc:description>Water tap and glass as representative of water supply and waste management activities</dc:description></cc:Work><cc:License
       rdf:about="http://creativecommons.org/licenses/by-sa/2.5/"><cc:permits
         rdf:resource="http://web.resource.org/cc/Reproduction" /><cc:permits
         rdf:resource="http://web.resource.org/cc/Distribution" /><cc:requires
         rdf:resource="http://web.resource.org/cc/Notice" /><cc:requires
         rdf:resource="http://web.resource.org/cc/Attribution" /><cc:permits
         rdf:resource="http://web.resource.org/cc/DerivativeWorks" /><cc:requires
         rdf:resource="http://web.resource.org/cc/ShareAlike" /></cc:License></rdf:RDF></metadata>
	
<g
   id="g5239"
   inkscape:export-xdpi="96"
   inkscape:export-ydpi="96"><rect
     style="opacity:1;fill:#ffffff;fill-opacity:1;stroke:#000000;stroke-width:1.60714281;stroke-miterlimit:4;stroke-dasharray:none;stroke-dashoffset:0;stroke-opacity:1"
     id="rect21547-2-2-4-6"
     width="32.142857"
     height="32.142857"
     x="140.89139"
     y="91.001755"
     rx="2.4332144"
     ry="2.6967659" /><g
     id="g21636"
     transform="matrix(0.68510568,0,0,0.68510567,13.062241,31.12093)"><g
       transform="matrix(0.68370815,0,0,0.68370815,170.50857,-48.683836)"
       id="g73497"><path
         d="m 73.906299,210.19425 c 0,0 -0.264165,0.004 -0.392119,-0.0124 -0.115573,-0.0124 -4.144084,-1.01126 -5.142957,-1.25891 -0.181613,0.70581 -0.615009,1.28367 -1.230017,1.64277 v 2.00187 h -2.794367 v -2.08029 c -0.536585,-0.35085 -0.920449,-0.86679 -1.097935,-1.49831 -1.254782,0.30957 -4.792113,1.18461 -4.89943,1.19699 -0.132082,0.0165 -0.396247,0.0124 -0.396247,0.0124 -1.118572,0 -2.026638,-0.90807 -2.026638,-2.02664 0,-1.11857 0.903938,-2.03077 2.026638,-2.03077 0.144465,-0.004 0.330206,0.0248 0.330206,0.0248 l 5.015002,1.13508 c 0.396247,-1.00713 1.357972,-1.72532 2.505437,-1.72532 1.159848,0 2.129828,0.74296 2.509565,1.77485 l 5.266784,-1.18874 c 0,0 0.181613,-0.033 0.330206,-0.0248 1.118572,0 2.022511,0.90806 2.022511,2.02663 0,1.1227 -0.908067,2.03077 -2.026639,2.03077"
         style="fill:#000000;fill-opacity:1;fill-rule:evenodd;stroke:none;stroke-width:4.12757349"
         id="path52466"
         inkscape:connector-curvature="0" /><path
         inkscape:connector-curvature="0"
         id="path52474"
         style="fill:#000000;fill-opacity:1;fill-rule:evenodd;stroke:none;stroke-width:4.12757349"
         d="m 49.254774,225.47122 v -3.34746 c 0,-5.02326 4.812751,-4.81688 4.812751,-4.81688 h 6.07166 v -1.7666 l 3.211252,-1.71707 h 4.726072 l 3.207124,1.71294 v 1.77073 h 5.440142 l -0.0041,6.04689 H 55.347072 v 2.11745 h 0.652157 v 2.27017 h -7.347081 v -2.27017 z" /></g><g
       id="g21628"><path
         style="fill:#000000;fill-opacity:1;fill-rule:nonzero;stroke:none;stroke-width:0.0031146"
         d="m 205.9177,113.64619 c -0.19657,0.0495 -0.40237,0.0495 -0.59893,0 l -1.10942,-0.2802 c -0.50235,-0.12707 -1.02831,-0.12707 -1.53063,0 l -1.10944,0.2802 c -0.19651,0.0495 -0.40237,0.0495 -0.59894,0 l -1.10941,-0.2802 c -0.50232,-0.12707 -1.02831,-0.12707 -1.53063,0 l -1.24253,0.31379 c -0.10918,0.0276 -0.22353,0.0276 -0.33276,0 l -0.10537,-0.0266 v 0.95124 c 0.22313,0.0379 0.45168,0.0284 0.67108,-0.027 l 1.24252,-0.31386 c 0.34943,-0.0883 0.71532,-0.0883 1.06475,0 l 1.10945,0.28022 c 0.34942,0.0883 0.71532,0.0883 1.06478,0 l 1.10941,-0.28022 c 0.34946,-0.0883 0.71536,-0.0883 1.06482,0 l 1.10937,0.28022 c 0.34949,0.0883 0.71536,0.0883 1.06482,0 l 1.10941,-0.28022 c 0.34946,-0.0883 0.71533,-0.0883 1.06479,0 l 1.24253,0.31386 c 0.26209,0.0661 0.53648,0.0661 0.79857,0 l 0.41605,-0.10528 v -0.95655 l -0.64895,0.16393 c -0.10916,0.0276 -0.22353,0.0276 -0.33276,0 l -1.24251,-0.31377 c -0.50231,-0.12693 -1.0283,-0.12693 -1.53065,0 l -1.10942,0.28019"
         id="path71760"
         inkscape:connector-curvature="0" /><path
         d="m 208.87378,130.51291 2.7321,-19.1928 -2.02362,0.0186 -2.4598,17.15041 h -6.81315 l -2.45994,-17.15041 -2.02362,-0.0186 2.73211,19.1928 z"
         style="fill:#000000;fill-opacity:1;fill-rule:nonzero;stroke:none;stroke-width:0.1432448"
         id="path71754"
         inkscape:connector-curvature="0"
         clip-path="none" /></g></g></g></svg>