<?xml version="1.0" encoding="UTF-8" standalone="no"?>
<!-- Generator: Adobe Illustrator 11.0, SVG Export Plug-In  -->

<!-- hand edited from http://commons.wikimedia.org/wiki/Image:1_9_2_44.svg -->

<svg
   xmlns:dc="http://purl.org/dc/elements/1.1/"
   xmlns:cc="http://creativecommons.org/ns#"
   xmlns:rdf="http://www.w3.org/1999/02/22-rdf-syntax-ns#"
   xmlns:svg="http://www.w3.org/2000/svg"
   xmlns="http://www.w3.org/2000/svg"
   xmlns:sodipodi="http://sodipodi.sourceforge.net/DTD/sodipodi-0.dtd"
   xmlns:inkscape="http://www.inkscape.org/namespaces/inkscape"
   width="50"
   height="50"
   viewBox="140 90 33.75 33.75"
   xml:space="preserve"
   id="svg2"
   version="1.0"
   sodipodi:docname="F_Construction.svg"
   inkscape:version="0.92.3 (unknown)"><title
   id="title989">NACE Section F Classification Visual</title><defs
   id="defs5729" /><sodipodi:namedview
   pagecolor="#ffffff"
   bordercolor="#666666"
   borderopacity="1"
   objecttolerance="10"
   gridtolerance="10"
   guidetolerance="10"
   inkscape:pageopacity="0"
   inkscape:pageshadow="2"
   inkscape:window-width="1853"
   inkscape:window-height="1021"
   id="namedview5727"
   showgrid="false"
   inkscape:zoom="2.36"
   inkscape:cx="-187.18221"
   inkscape:cy="-20.338978"
   inkscape:window-x="0"
   inkscape:window-y="0"
   inkscape:window-maximized="0"
   inkscape:current-layer="g11986" /><metadata
   id="metadata19"><rdf:RDF><cc:Work
       rdf:about=""><cc:license
         rdf:resource="http://creativecommons.org/licenses/by-sa/2.5/" /><dc:format>image/svg+xml</dc:format><dc:type
         rdf:resource="http://purl.org/dc/dcmitype/StillImage" /><dc:title>NACE Section F Classification Visual</dc:title><dc:creator><cc:Agent><dc:title>Open Risk</dc:title></cc:Agent></dc:creator><dc:publisher><cc:Agent><dc:title>https://www.openriskmanagement.com</dc:title></cc:Agent></dc:publisher><dc:identifier>F_Construction_Square</dc:identifier><dc:date>2018</dc:date><dc:rights><cc:Agent><dc:title>Creative Commons Attribution + Share-Alike  (CC-BY-SA)</dc:title></cc:Agent></dc:rights><dc:description>Person shovelling and crane as representative of construction activity</dc:description></cc:Work><cc:License
       rdf:about="http://creativecommons.org/licenses/by-sa/2.5/"><cc:permits
         rdf:resource="http://web.resource.org/cc/Reproduction" /><cc:permits
         rdf:resource="http://web.resource.org/cc/Distribution" /><cc:requires
         rdf:resource="http://web.resource.org/cc/Notice" /><cc:requires
         rdf:resource="http://web.resource.org/cc/Attribution" /><cc:permits
         rdf:resource="http://web.resource.org/cc/DerivativeWorks" /><cc:requires
         rdf:resource="http://web.resource.org/cc/ShareAlike" /></cc:License></rdf:RDF></metadata>
	
<g
   id="g11986"
   transform="matrix(0.14398343,0,0,0.15557073,109.34664,83.778741)"><g
     id="g2484"
     transform="matrix(5.2089327,0,0,4.8209582,-960.65109,-411.06642)"><rect
       ry="3.5956879"
       rx="3.2442858"
       y="94.897224"
       x="226.86484"
       height="42.857143"
       width="42.857143"
       id="rect21547-2-2-4-6-4"
       style="opacity:1;fill:#ffffff;fill-opacity:1;stroke:#000000;stroke-width:2.14285707;stroke-miterlimit:4;stroke-dasharray:none;stroke-dashoffset:0;stroke-opacity:1" /><g
       id="g1810"
       transform="matrix(0.60724767,0,0,0.60724767,230.22123,102.76971)"><g
         id="g851"
         style="fill:#000000"
         transform="matrix(0.6644239,0,0,0.6644239,23.298569,-0.28763685)"><g
           id="g8"
           style="fill:#000000"><path
             id="path2-8"
             d="m 12.1,37.3 v -2.1 h -1.9 v 3 c 0,0.5 0.4,1 0.9,1 1.6,0 2.8,1.3 2.8,3 0,1.7 -1.3,3 -2.8,3 -1.5,0 -2.8,-1.3 -2.8,-3 0,-0.5 -0.4,-1 -0.9,-1 -0.5,0 -0.9,0.4 -0.9,1 0,2.7 2.1,4.9 4.7,4.9 2.6,0 4.7,-2.2 4.7,-4.9 -0.1,-2.5 -1.7,-4.5 -3.8,-4.9"
             style="fill:#000000"
             inkscape:connector-curvature="0" /><path
             id="path4-9"
             d="M 58,8 H 11.9 L 6,20 H 58 V 17 H 55.9 L 58,13.1 V 8 m -47.4,9 2.3,-4.8 2.5,4.8 h -4.8 m 4.5,-6 h 4.2 L 17.2,14.9 15.1,11 m 3.7,6 2.1,-3.9 2.1,3.9 h -4.2 m 3.7,-6 h 4.2 L 24.6,14.9 22.5,11 m 3.7,6 2.1,-3.9 2.1,3.9 h -4.2 m 3.7,-6 h 4.2 L 32,14.9 29.9,11 m 3.7,6 2.1,-3.9 2.1,3.9 H 33.6 M 54.3,14.9 52.2,11 h 4.2 l -2.1,3.9"
             style="fill:#000000"
             inkscape:connector-curvature="0" /><path
             id="path6-4"
             d="m 10.1,19 h 2 v 10 h -2 z"
             style="fill:#000000"
             inkscape:connector-curvature="0" /></g><path
           id="path10-16"
           d="M 12.8,28 H 9.5 l -3.4,4 h 10 z"
           style="fill:#000000"
           inkscape:connector-curvature="0" /><g
           id="g16"
           style="fill:#000000"><path
             id="path12-4"
             d="m 6.1,32 3.4,4 h 3.3 l 3.3,-4 z"
             style="fill:#000000"
             inkscape:connector-curvature="0" /><path
             id="path14-3"
             d="m 49.4,29 v 3 L 40.6,29 H 38 v 33 h 2.6 v -6 l 8.8,3 -8.8,3 H 52 V 29 h -2.6 m 0,27 -8.8,-3 8.8,-3 v 6 m -8.8,-6 v -6 l 8.8,3 -8.8,3 m 8.8,-6 -8.8,-3 8.8,-3 v 6 m -8.8,-6 v -6 l 8.8,3 -8.8,3"
             style="fill:#000000"
             inkscape:connector-curvature="0" /></g><path
           id="path18-5"
           d="M 54,27.2 C 54,28.7 52.8,30 51.4,30 H 38.6 C 37.2,30 36,28.7 36,27.2 V 4.8 C 36,3.3 37.2,2 38.6,2 H 51.5 C 52.8,2 54,3.3 54,4.8 v 22.4"
           style="fill:#000000"
           inkscape:connector-curvature="0" /><g
           id="g24"
           style="fill:#000000"><path
             id="path20-4"
             d="m 38.9,15.2 c 0,1 0.7,1.8 1.5,1.8 h 9 c 0.8,0 1.5,-0.8 1.5,-1.8 V 6.8 C 50.9,5.8 50.2,5 49.4,5 h -9 c -0.8,0 -1.5,0.8 -1.5,1.8 v 8.4"
             style="fill:#000000"
             inkscape:connector-curvature="0" /><path
             id="path22"
             d="m 50.9,25 c 0,1.1 -0.8,2 -1.7,2 h -8.6 c -0.9,0 -1.7,-0.9 -1.7,-2 v -4 c 0,-1.1 0.8,-2 1.7,-2 h 8.6 c 0.9,0 1.7,0.9 1.7,2 v 4"
             style="fill:#000000"
             inkscape:connector-curvature="0" /></g></g><g
         id="g2689"
         transform="matrix(0.11345014,0,0,0.11345014,0.66260062,15.085447)"><path
           inkscape:connector-curvature="0"
           id="path633"
           d="m 385.98,297.154 -245.615,0.316 c -2.224,-0.2 -3.837,-0.708 -2.993,-3.362 l 90.25,-115.688 c 3.12,-4.423 7.83,-6.815 12.567,-6.679 l 45.352,-0.096 c 7.355,-0.004 10.191,2.125 14.238,7.207 l 88.375,114.12 c 0.809,2.007 0.085,4.014 -2.174,4.182 z" /><path
           style="fill:#000002"
           inkscape:connector-curvature="0"
           id="rect613"
           d="m 125.665,49.226 35.181,18.466 c 5.479,2.876 7.761,10.037 5.099,15.995 l -41.233,92.255 c -2.664,5.959 -9.265,8.458 -14.744,5.582 L 74.787,163.058 c -5.48,-2.876 -7.763,-10.037 -5.1,-15.995 l 41.235,-92.255 c 2.662,-5.959 9.263,-8.458 14.743,-5.582 z" /><path
           inkscape:connector-curvature="0"
           id="rect615"
           d="m 71.647,46.625 h 81.178 c 5.197,0 9.41,3.583 9.41,8 v 16.5 c 0,4.419 -4.214,8 -9.41,8 H 71.647 c -5.198,0 -9.412,-3.581 -9.412,-8 v -16.5 c 0,-4.418 4.214,-8 9.412,-8 z" /><path
           inkscape:connector-curvature="0"
           id="rect616"
           d="M 26.867,118.678 62.324,51.852 c 2.27,-4.279 6.379,-5.715 9.177,-3.206 l 10.45,9.367 c 2.798,2.509 3.227,8.011 0.956,12.291 L 47.45,137.129 c -2.27,4.279 -6.379,5.716 -9.177,3.207 l -10.45,-9.367 c -2.797,-2.509 -3.226,-8.011 -0.956,-12.291 z" /><path
           inkscape:connector-curvature="0"
           id="rect617"
           d="m 59.08,125.656 210.061,110.75 c 13.451,7.091 23.609,14.378 22.689,16.274 l -3.439,7.083 c -0.92,1.896 -12.57,-2.316 -26.02,-9.407 L 52.31,139.606 C 38.859,132.515 28.701,125.228 29.621,123.332 l 3.439,-7.083 c 0.919,-1.896 12.569,2.315 26.02,9.407 z" /><path
           inkscape:connector-curvature="0"
           id="rect618"
           d="M 154.473,179.08 148.206,69.709 c -0.401,-7.003 2.244,-12.909 5.907,-13.192 l 13.682,-1.056 c 3.665,-0.283 6.96,5.166 7.361,12.169 l 6.267,109.369 c 0.401,7.003 -2.244,12.909 -5.907,13.192 l -13.682,1.055 c -3.665,0.285 -6.96,-5.163 -7.361,-12.166 z" /><ellipse
           id="path619"
           cx="181.42799"
           cy="31.625"
           rx="29.924"
           ry="31.615999" /><path
           inkscape:connector-curvature="0"
           id="rect621"
           d="M 101.8,228.479 86.97,166.867 c -0.949,-3.946 1.674,-7.725 5.86,-8.441 l 15.63,-2.678 c 4.186,-0.716 8.349,1.9 9.299,5.846 l 14.829,61.612 c 0.949,3.946 -1.673,7.725 -5.858,8.441 l -15.632,2.678 c -4.187,0.717 -8.349,-1.901 -9.298,-5.846 z" /><path
           inkscape:connector-curvature="0"
           id="rect622"
           d="m 102.249,288.088 -0.482,-63.512 c -0.031,-4.066 3.379,-7.098 7.613,-6.771 l 15.816,1.222 c 4.236,0.327 7.694,3.888 7.725,7.955 l 0.48,63.51 c 0.031,4.067 -3.377,7.098 -7.612,6.771 l -15.817,-1.22 c -4.234,-0.326 -7.692,-3.889 -7.723,-7.955 z" /><path
           inkscape:connector-curvature="0"
           id="rect623"
           d="M 3.303,267.255 66.234,156.703 c 4.029,-7.079 10.177,-10.791 13.73,-8.292 l 13.268,9.335 c 3.552,2.499 3.165,10.265 -0.864,17.343 L 29.436,285.641 c -4.029,7.079 -10.177,10.791 -13.729,8.292 L 2.44,284.598 c -3.553,-2.499 -3.167,-10.265 0.863,-17.343 z" /></g></g></g></g></svg>