<?xml version="1.0" encoding="UTF-8" standalone="no"?>
<!-- Generator: Adobe Illustrator 11.0, SVG Export Plug-In  -->

<!-- hand edited from http://commons.wikimedia.org/wiki/Image:1_9_2_44.svg -->

<svg
   xmlns:dc="http://purl.org/dc/elements/1.1/"
   xmlns:cc="http://creativecommons.org/ns#"
   xmlns:rdf="http://www.w3.org/1999/02/22-rdf-syntax-ns#"
   xmlns:svg="http://www.w3.org/2000/svg"
   xmlns="http://www.w3.org/2000/svg"
   xmlns:sodipodi="http://sodipodi.sourceforge.net/DTD/sodipodi-0.dtd"
   xmlns:inkscape="http://www.inkscape.org/namespaces/inkscape"
   width="50"
   height="50"
   viewBox="140 90 33.75 33.75"
   xml:space="preserve"
   id="svg2"
   version="1.0"
   sodipodi:docname="G_Trading.svg"
   inkscape:version="0.92.3 (unknown)"><title
   id="title989">NACE Section G Classification Visual</title><defs
   id="defs5729" /><sodipodi:namedview
   pagecolor="#ffffff"
   bordercolor="#666666"
   borderopacity="1"
   objecttolerance="10"
   gridtolerance="10"
   guidetolerance="10"
   inkscape:pageopacity="0"
   inkscape:pageshadow="2"
   inkscape:window-width="1853"
   inkscape:window-height="1021"
   id="namedview5727"
   showgrid="false"
   inkscape:zoom="2.36"
   inkscape:cx="-187.18221"
   inkscape:cy="-20.338978"
   inkscape:window-x="0"
   inkscape:window-y="0"
   inkscape:window-maximized="0"
   inkscape:current-layer="g11986" /><metadata
   id="metadata19"><rdf:RDF><cc:Work
       rdf:about=""><cc:license
         rdf:resource="http://creativecommons.org/licenses/by-sa/2.5/" /><dc:format>image/svg+xml</dc:format><dc:type
         rdf:resource="http://purl.org/dc/dcmitype/StillImage" /><dc:title>NACE Section G Classification Visual</dc:title><dc:creator><cc:Agent><dc:title>Open Risk</dc:title></cc:Agent></dc:creator><dc:publisher><cc:Agent><dc:title>https://www.openriskmanagement.com</dc:title></cc:Agent></dc:publisher><dc:identifier>G_Trading_Square</dc:identifier><dc:date>2018</dc:date><dc:rights><cc:Agent><dc:title>Creative Commons Attribution + Share-Alike  (CC-BY-SA)</dc:title></cc:Agent></dc:rights><dc:description>Shop and cart as representative of wholesale and retail trading business sector</dc:description></cc:Work><cc:License
       rdf:about="http://creativecommons.org/licenses/by-sa/2.5/"><cc:permits
         rdf:resource="http://web.resource.org/cc/Reproduction" /><cc:permits
         rdf:resource="http://web.resource.org/cc/Distribution" /><cc:requires
         rdf:resource="http://web.resource.org/cc/Notice" /><cc:requires
         rdf:resource="http://web.resource.org/cc/Attribution" /><cc:permits
         rdf:resource="http://web.resource.org/cc/DerivativeWorks" /><cc:requires
         rdf:resource="http://web.resource.org/cc/ShareAlike" /></cc:License></rdf:RDF></metadata>
	
<g
   id="g11986"
   transform="matrix(0.14398343,0,0,0.15557073,109.34664,83.778741)"><g
     id="g2528"
     transform="matrix(5.2089327,0,0,4.8209582,162.84552,-628.82216)"><rect
       ry="3.5956879"
       rx="3.2442858"
       y="140.06578"
       x="11.178317"
       height="42.857143"
       width="42.857143"
       id="rect21547-2-2-4-6-4-2"
       style="opacity:1;fill:#ffffff;fill-opacity:1;stroke:#000000;stroke-width:2.14285707;stroke-miterlimit:4;stroke-dasharray:none;stroke-dashoffset:0;stroke-opacity:1" /><g
       id="g18990"
       transform="matrix(0.46855982,0,0,0.46855982,10.624232,138.31937)"><g
         id="g17801"
         transform="matrix(0.35771632,0,0,0.35771632,54.336363,52.547175)"
         style="fill:#000000"><path
           d="M 0,2 A 2,2 0 0 1 2,0 h 16 a 2,2 0 0 1 2,2 v 8 h 70 v 28 c 0,1 -1,2 -2,2 L 30,57 c -1,1 -1,2 0,3 h 60 v 7 a 2,2 0 0 1 -2,2 H 22 A 2,2 0 0 1 20,67 V 60 L 10,10 H 0 Z"
           id="path17795"
           inkscape:connector-curvature="0" /><circle
           cx="25"
           cy="80"
           r="10"
           id="circle17797" /><circle
           cx="75"
           cy="80"
           r="10"
           id="circle17799" /></g><path
         inkscape:connector-curvature="0"
         d="m 6.9097851,85.180143 v -2.999996 h 2.999994 V 58.180193 c 0,0 -1.499997,1.520397 -2.999994,1.520397 -1.499997,0 -2.9999939,-1.520397 -2.9999939,-1.520397 L 10.509778,40.780228 h 8.399983 v -1.199997 h -2.999993 v -8.399984 h 23.999954 v 8.399984 h -2.999996 v 1.199997 h 8.399985 l 6.599986,17.399965 c 0,0 -1.499996,1.520397 -2.999993,1.520397 -1.499998,0 -2.999994,-1.520397 -2.999994,-1.520397 v 23.999954 h 2.999994 v 2.999996 z M 21.909757,82.180147 V 64.180183 h -8.999984 v 17.999964 z m 5.999988,-17.999964 v 8.999982 h 14.99997 v -8.999982 z m -8.999984,-20.99996 h -5.999988 v 14.99997 c 0,0 1.499998,1.520397 2.999995,1.520397 1.499998,0 2.999993,-1.520397 2.999993,-1.520397 z m 5.999989,0 v 14.99997 c 0,0 1.499998,1.520397 2.999995,1.520397 1.499998,0 2.999994,-1.520397 2.999994,-1.520397 v -14.99997 z m 11.999976,0 v 14.99997 c 0,0 1.499998,1.520397 2.999996,1.520397 1.499995,0 2.999993,-1.520397 2.999993,-1.520397 V 43.180223 Z M 21.309757,40.780228 v -1.199997 h 13.199975 v 1.199997 z"
         style="fill:#000000;fill-opacity:1;stroke:none;stroke-width:0.18000001"
         id="path18414" /></g></g></g></svg>