<?xml version="1.0" encoding="UTF-8" standalone="no"?>
<!-- Generator: Adobe Illustrator 11.0, SVG Export Plug-In  -->

<!-- hand edited from http://commons.wikimedia.org/wiki/Image:1_9_2_44.svg -->

<svg
   xmlns:dc="http://purl.org/dc/elements/1.1/"
   xmlns:cc="http://creativecommons.org/ns#"
   xmlns:rdf="http://www.w3.org/1999/02/22-rdf-syntax-ns#"
   xmlns:svg="http://www.w3.org/2000/svg"
   xmlns="http://www.w3.org/2000/svg"
   xmlns:sodipodi="http://sodipodi.sourceforge.net/DTD/sodipodi-0.dtd"
   xmlns:inkscape="http://www.inkscape.org/namespaces/inkscape"
   width="50"
   height="50"
   viewBox="140 90 33.75 33.75"
   xml:space="preserve"
   id="svg2"
   version="1.0"
   sodipodi:docname="H_Transport.svg"
   inkscape:version="0.92.3 (unknown)"><title
   id="title989">NACE Section H Classification Visual</title><defs
   id="defs5729" /><sodipodi:namedview
   pagecolor="#ffffff"
   bordercolor="#666666"
   borderopacity="1"
   objecttolerance="10"
   gridtolerance="10"
   guidetolerance="10"
   inkscape:pageopacity="0"
   inkscape:pageshadow="2"
   inkscape:window-width="1853"
   inkscape:window-height="1021"
   id="namedview5727"
   showgrid="false"
   inkscape:zoom="2.36"
   inkscape:cx="-187.18221"
   inkscape:cy="-20.338978"
   inkscape:window-x="0"
   inkscape:window-y="0"
   inkscape:window-maximized="0"
   inkscape:current-layer="g11986" /><metadata
   id="metadata19"><rdf:RDF><cc:Work
       rdf:about=""><cc:license
         rdf:resource="http://creativecommons.org/licenses/by-sa/2.5/" /><dc:format>image/svg+xml</dc:format><dc:type
         rdf:resource="http://purl.org/dc/dcmitype/StillImage" /><dc:title>NACE Section H Classification Visual</dc:title><dc:creator><cc:Agent><dc:title>Open Risk</dc:title></cc:Agent></dc:creator><dc:publisher><cc:Agent><dc:title>https://www.openriskmanagement.com</dc:title></cc:Agent></dc:publisher><dc:identifier>H_Transport_Square</dc:identifier><dc:date>2018</dc:date><dc:rights><cc:Agent><dc:title>Creative Commons Attribution + Share-Alike  (CC-BY-SA)</dc:title></cc:Agent></dc:rights><dc:description>Airplane, train, ship and truck as representative of transportation and storage industries</dc:description></cc:Work><cc:License
       rdf:about="http://creativecommons.org/licenses/by-sa/2.5/"><cc:permits
         rdf:resource="http://web.resource.org/cc/Reproduction" /><cc:permits
         rdf:resource="http://web.resource.org/cc/Distribution" /><cc:requires
         rdf:resource="http://web.resource.org/cc/Notice" /><cc:requires
         rdf:resource="http://web.resource.org/cc/Attribution" /><cc:permits
         rdf:resource="http://web.resource.org/cc/DerivativeWorks" /><cc:requires
         rdf:resource="http://web.resource.org/cc/ShareAlike" /></cc:License></rdf:RDF></metadata>
	
<g
   id="g11986"
   transform="matrix(0.14398343,0,0,0.15557073,109.34664,83.778741)"><g
     id="g2560"
     transform="matrix(5.2089327,0,0,4.8209582,-68.257884,-630.11069)"><rect
       ry="3.5956879"
       rx="3.2442858"
       y="140.33305"
       x="55.545052"
       height="42.857143"
       width="42.857143"
       id="rect21547-2-2-4-6-4-2-9"
       style="opacity:1;fill:#ffffff;fill-opacity:1;stroke:#000000;stroke-width:2.14285707;stroke-miterlimit:4;stroke-dasharray:none;stroke-dashoffset:0;stroke-opacity:1" /><g
       id="g3042"
       transform="matrix(0.29266563,0,0,0.29266563,71.150426,170.38233)"><path
         inkscape:connector-curvature="0"
         d="m -3.4155754,30.862055 c 2.62504588,-1.14595 3.85014023,-0.990876 6.0019418,0.13957 2.1742607,1.132049 4.3362219,1.132049 6.8997729,-0.168982 2.5373507,-1.301561 4.6137537,-0.55934 5.7778847,0.140647 0.951307,0.581799 1.914911,0.814946 3.3662,0.813875 v -5.189669 c -2.180677,-0.0091 -3.1138,-0.756123 -3.1138,-0.756123 -2.244847,-1.378565 -4.304138,-1.102638 -7.1238309,0.364159 -1.6208023,0.842751 -4.1774028,0.621369 -6.0024775,-0.308547 -2.48173641,-1.31493 -3.8939896,-0.996223 -6.5072724,0.168452 -2.0282768,0.899436 -3.8560243,0.897297 -5.861305,0 -2.6266512,-1.16841 -3.9742022,-1.483374 -6.4783972,-0.168452 -1.801545,0.929916 -4.397181,1.151298 -6.003011,0.308547 -2.834667,-1.466797 -4.856526,-1.742724 -7.096025,-0.364159 0,0 -0.975368,0.743825 -3.114335,0.756123 v 5.189669 c 1.350223,0.0011 2.40206,-0.260953 3.310586,-0.813875 1.147557,-0.70693 3.291337,-1.441665 5.832964,-0.140647 2.559809,1.301562 4.72177,1.301562 6.872501,0.168982 2.173726,-1.129909 3.373151,-1.334715 6.001407,-0.196784 2.5496502,1.300491 5.0714928,1.181245 7.2371966,0.05722 z"
         id="path926"
         style="stroke-width:0.53474182" /><path
         inkscape:connector-curvature="0"
         d="m 16.76656,18.118676 c -4.524498,-2.479371 -6.493412,0.527457 -8.9146629,0.517039 V 6.6155303 l 3.7376989,-8.6569672 c 0.571867,-1.3219313 0.0032,-2.5391358 -1.352086,-3.1329346 L 7.9653913,-6.0944043 V -13.571997 H 3.5670018 v -3.940568 h -6.1255077 v -5.290459 h -3.8254273 -3.7963658 v 5.290459 h -6.124412 v 3.940568 h -4.400035 v 7.4775927 l -2.272118,0.9200328 c -1.359762,0.5937988 -1.928887,1.8110033 -1.352086,3.1329346 l 3.739894,8.6569672 V 18.636264 c -2.42564,0.01026 -4.494343,-2.949806 -8.915761,-0.487979 0,0 -1.269842,0.714969 -3.19215,0.748416 v 5.176415 c 1.502318,-0.118434 2.221126,-0.358582 3.364314,-0.978699 1.20021,-0.688105 3.404887,-1.342216 6.010367,0 2.625216,1.324123 4.84141,1.324123 7.046635,0.171616 2.228804,-1.167313 4.162626,-1.224884 6.240648,-0.171616 2.6120587,1.324123 4.6626679,1.338927 7.3043332,0.02905 2.12133808,-1.086164 4.0343254,-1.024207 6.2401012,0.14311 2.2288026,1.152508 4.4449965,1.152508 7.0745986,-0.171615 2.601641,-1.342217 4.796449,-0.668914 6.010914,0 1.069717,0.559806 1.818681,0.860269 3.364862,0.978699 v -5.20657 C 17.994184,18.816648 16.76656,18.118675 16.76656,18.118675 Z M 4.7178636,-7.4755492 -6.3839332,-12.047199 -17.45667,-7.4755492 v -3.0199858 h 4.371525 v -3.882449 h 6.7012118 6.72917479 v 3.882449 H 4.7178636 Z"
         id="path928"
         style="stroke-width:0.54829103" /><path
         inkscape:connector-curvature="0"
         d="m 67.978739,-41.857261 c 3.275061,-0.527865 6.535176,-3.943544 6.535176,-8.106396 V -80.39971 c 0,-4.296914 -3.614777,-8.241155 -8.525944,-8.241155 H 44.978464 c -4.911031,0 -8.525944,3.944241 -8.525944,8.241155 v 30.436053 c 0,4.162852 3.26011,7.578531 6.535173,8.106396 l -9.821766,14.732638 h 5.666596 l 7.025326,-10.299246 h 19.250729 l 7.025325,10.299246 h 5.666458 z M 49.950253,-85.507847 c 0,-0.747171 0.649833,-1.374802 1.397007,-1.374802 h 8.271905 c 0.747182,0 1.397011,0.627631 1.397011,1.374802 v 2.419433 c 0,0.747185 -0.614254,1.389469 -1.397011,1.389469 H 51.34726 c -0.782757,0 -1.397007,-0.642284 -1.397007,-1.389469 z m -8.935108,9.713318 c 0,-2.277112 1.472718,-4.264179 4.247951,-4.264179 h 20.440236 c 2.775235,0 4.2481,1.987067 4.2481,4.264179 v 5.479303 c 0.0215,2.632922 -1.899823,4.244836 -4.2481,4.244836 H 45.263096 c -2.348278,0 -4.269588,-1.611914 -4.247951,-4.244836 z m 3.785413,29.497598 c -2.064344,0 -3.737735,-1.673682 -3.737735,-3.73788 0,-2.064209 1.673391,-3.737746 3.737735,-3.737746 2.064343,0 3.737746,1.673537 3.737746,3.737746 0,2.064198 -1.673403,3.73788 -3.737746,3.73788 z m 17.540901,-3.737735 c 0,-2.064212 1.673393,-3.737746 3.73774,-3.737746 2.064348,0 3.737741,1.673534 3.737741,3.737746 0,2.064199 -1.673393,3.737879 -3.737741,3.737879 -2.064347,0 -3.73774,-1.673826 -3.73774,-3.737879 z M 60.981735,-91.89031 c 0,1.304146 -1.057218,2.36137 -2.361363,2.36137 -1.304146,0 -2.36137,-1.057224 -2.36137,-2.36137 0,-1.304146 1.057224,-2.36137 2.36137,-2.36137 1.304145,0 2.361363,1.057224 2.361363,2.36137 z m -6.274301,0 c 0,1.304146 -1.057225,2.36137 -2.36137,2.36137 -1.304146,0 -2.36137,-1.057224 -2.36137,-2.36137 0,-1.304146 1.057224,-2.36137 2.36137,-2.36137 1.304145,0 2.36137,1.057224 2.36137,2.36137 z"
         id="path1572"
         style="stroke-width:0.14231965" /><g
         transform="matrix(0.12304383,0,0,0.12304383,-30.860791,-89.86434)"
         style="fill:#000000;stroke:none"
         id="g2207"><polygon
           points="200,225 80,225 30,150 10,150 30,240 30,260 10,350 30,350 80,275 200,275 140,490 170,490 320,275 450,275 490,250 450,225 320,225 170,10 140,10 "
           id="polygon2203" /><ellipse
           style="stroke:#000000"
           cx="441"
           cy="250"
           rx="50"
           ry="24"
           id="ellipse2205" /></g><g
         id="g3028"
         transform="translate(2.1093355,4.6021865)"><path
           id="path2-2"
           d="m 65.677216,-3.0289618 c -0.318059,-0.4753783 -0.851577,-0.7609473 -1.422715,-0.7609473 h -1.709994 c -0.945627,0 -1.709994,0.7643673 -1.709994,1.7099939 V 8.1800482 c 0,0.9456266 0.764367,1.7099939 1.709994,1.7099939 h 6.839975 c 0.945627,0 1.709994,-0.7643673 1.709994,-1.7099939 V 5.6150574 c 0,-0.3368688 -0.100889,-0.6686077 -0.287279,-0.9490467 z m 3.707266,11.20901 H 62.544507 V -2.0799152 h 1.709994 l 5.129981,7.6949726 z"
           style="fill:#000000;stroke-width:1.70999396"
           inkscape:connector-curvature="0" /><g
           id="g3021"><path
             inkscape:connector-curvature="0"
             style="fill:#010002;stroke-width:1.70999396"
             d="M 77.072615,3.6246245 70.232639,-6.6353389 c -0.954176,-1.4312649 -2.551311,-2.2845519 -4.268145,-2.2845519 h -6.839975 v -3.4199882 c 0,-2.82833 -2.301652,-5.129981 -5.129982,-5.129981 H 28.344629 c -2.82833,0 -5.129982,2.301651 -5.129982,5.129981 V 6.4700543 c 0,2.8283299 2.301652,5.1299817 5.129982,5.1299817 v 0 5.129982 c 0,2.82833 2.301651,5.129981 5.129981,5.129981 h 1.952813 c 0.764368,2.9429 3.419988,5.129982 6.598867,5.129982 3.175459,0 5.831079,-2.187082 6.595446,-5.129982 h 9.032188 c 0.764367,2.9429 3.419988,5.129982 6.598867,5.129982 3.175458,0 5.831079,-2.187082 6.595446,-5.129982 h 1.956233 c 2.82833,0 5.129982,-2.301651 5.129982,-5.129981 V 6.4700543 c 0,-1.0157364 -0.297539,-2.0006929 -0.861837,-2.8454298 z M 28.344629,8.1800482 c -0.943917,0 -1.709994,-0.7643673 -1.709994,-1.7099939 V -12.339879 c 0,-0.945626 0.766077,-1.709993 1.709994,-1.709993 h 25.649908 c 0.945627,0 1.709994,0.764367 1.709994,1.709993 v 3.4199882 3.4199878 11.9699573 c 0,0.9456266 -0.764367,1.7099939 -1.709994,1.7099939 z M 42.02629,23.569993 c -1.889543,0 -3.419988,-1.532154 -3.419988,-3.419987 0,-1.887834 1.530445,-3.419988 3.419988,-3.419988 1.887833,0 3.419988,1.532154 3.419988,3.419988 0,1.887833 -1.533865,3.419987 -3.419988,3.419987 z m 22.228211,0 c -1.889544,0 -3.419988,-1.532154 -3.419988,-3.419987 0,-1.887834 1.530444,-3.419988 3.419988,-3.419988 1.887833,0 3.419987,1.532154 3.419987,3.419988 0,1.887833 -1.532154,3.419987 -3.419987,3.419987 z m 10.259963,-6.839975 c 0,0.945626 -0.764367,1.709994 -1.709994,1.709994 h -1.954523 c -0.764367,-2.9429 -3.419988,-5.129982 -6.595446,-5.129982 -3.178879,0 -5.8345,2.187082 -6.598867,5.129982 H 48.623446 C 47.859079,15.497112 45.203459,13.31003 42.028,13.31003 c -3.178879,0 -5.834499,2.187082 -6.598867,5.129982 H 33.47461 c -0.943916,0 -1.709994,-0.764368 -1.709994,-1.709994 v -5.129982 h 22.229921 c 2.82833,0 5.129982,-2.3016518 5.129982,-5.1299817 V -5.499903 h 6.839975 c 0.571138,0 1.104657,0.285569 1.422715,0.7609473 l 6.839976,10.2599634 c 0.186389,0.280439 0.287279,0.6121778 0.287279,0.9490466 z"
             id="path4-3" /><rect
             style="opacity:1;fill:#000000;fill-opacity:1;stroke:#000000;stroke-width:0.63626158;stroke-miterlimit:4;stroke-dasharray:none;stroke-dashoffset:0;stroke-opacity:1"
             id="rect2997"
             width="30.442482"
             height="23.50853"
             x="25.555902"
             y="-15.037951"
             ry="0"
             transform="matrix(1,0,-0.01254643,0.99992129,0,0)" /><path
             style="opacity:1;fill:#000000;fill-opacity:1;stroke:#000000;stroke-width:0.21858107;stroke-miterlimit:4;stroke-dasharray:none;stroke-dashoffset:0;stroke-opacity:1"
             d="m 62.392685,3.0100875 v -5.1002962 l 0.930909,0.00515 0.930907,0.00515 3.289209,3.8434097 3.289208,3.84341 v 1.2517356 1.2517357 h -4.220116 -4.220117 z"
             id="path3014"
             inkscape:connector-curvature="0" /></g></g></g></g></g></svg>