<?xml version="1.0" encoding="UTF-8" standalone="no"?>
<!-- Generator: Adobe Illustrator 11.0, SVG Export Plug-In  -->

<!-- hand edited from http://commons.wikimedia.org/wiki/Image:1_9_2_44.svg -->

<svg
   xmlns:dc="http://purl.org/dc/elements/1.1/"
   xmlns:cc="http://creativecommons.org/ns#"
   xmlns:rdf="http://www.w3.org/1999/02/22-rdf-syntax-ns#"
   xmlns:svg="http://www.w3.org/2000/svg"
   xmlns="http://www.w3.org/2000/svg"
   xmlns:sodipodi="http://sodipodi.sourceforge.net/DTD/sodipodi-0.dtd"
   xmlns:inkscape="http://www.inkscape.org/namespaces/inkscape"
   width="50"
   height="50"
   viewBox="140 90 33.75 33.75"
   xml:space="preserve"
   id="svg2"
   version="1.0"
   sodipodi:docname="I_Accomodation.svg"
   inkscape:version="0.92.3 (unknown)"><title
   id="title989">NACE Section I Classification Visual</title><defs
   id="defs5729"><filter
     style="color-interpolation-filters:sRGB"
     inkscape:label="Cross-smooth"
     id="filter4556"><feGaussianBlur
       in="SourceGraphic"
       stdDeviation="10"
       result="blur1"
       id="feGaussianBlur4540" /><feComposite
       in="blur1"
       in2="blur1"
       operator="in"
       result="composite1"
       id="feComposite4542" /><feComposite
       k4="0"
       k3="0"
       k1="0"
       in="composite1"
       in2="composite1"
       k2="1"
       operator="arithmetic"
       result="composite2"
       id="feComposite4544" /><feColorMatrix
       in="composite2"
       values="1 0 0 0 0 0 1 0 0 0 0 0 1 0 0 0 0 0 10 0 "
       result="colormatrix1"
       id="feColorMatrix4546" /><feGaussianBlur
       stdDeviation="1"
       result="blur2"
       id="feGaussianBlur4548" /><feColorMatrix
       in="blur2"
       values="1 0 0 0 0 0 1 0 0 0 0 0 1 0 0 0 0 0 5 -1 "
       result="colormatrix2"
       id="feColorMatrix4550" /><feBlend
       in="SourceGraphic"
       in2="colormatrix2"
       stdDeviation="17"
       mode="normal"
       result="blend"
       id="feBlend4552" /><feComposite
       in="blend"
       in2="colormatrix2"
       operator="in"
       result="composite3"
       id="feComposite4554" /></filter></defs><sodipodi:namedview
   pagecolor="#ffffff"
   bordercolor="#666666"
   borderopacity="1"
   objecttolerance="10"
   gridtolerance="10"
   guidetolerance="10"
   inkscape:pageopacity="0"
   inkscape:pageshadow="2"
   inkscape:window-width="1853"
   inkscape:window-height="1021"
   id="namedview5727"
   showgrid="false"
   inkscape:zoom="2.36"
   inkscape:cx="-187.18221"
   inkscape:cy="-20.338978"
   inkscape:window-x="0"
   inkscape:window-y="0"
   inkscape:window-maximized="0"
   inkscape:current-layer="g11986" /><metadata
   id="metadata19"><rdf:RDF><cc:Work
       rdf:about=""><cc:license
         rdf:resource="http://creativecommons.org/licenses/by-sa/2.5/" /><dc:format>image/svg+xml</dc:format><dc:type
         rdf:resource="http://purl.org/dc/dcmitype/StillImage" /><dc:title>NACE Section I Classification Visual</dc:title><dc:creator><cc:Agent><dc:title>Open Risk</dc:title></cc:Agent></dc:creator><dc:publisher><cc:Agent><dc:title>https://www.openriskmanagement.com</dc:title></cc:Agent></dc:publisher><dc:identifier>I_Accomodation_Square</dc:identifier><dc:date>2018</dc:date><dc:rights><cc:Agent><dc:title>Creative Commons Attribution + Share-Alike  (CC-BY-SA)</dc:title></cc:Agent></dc:rights><dc:description>Fork and spoon and person sleeping as indicative of the accomodation and food service business sectors</dc:description></cc:Work><cc:License
       rdf:about="http://creativecommons.org/licenses/by-sa/2.5/"><cc:permits
         rdf:resource="http://web.resource.org/cc/Reproduction" /><cc:permits
         rdf:resource="http://web.resource.org/cc/Distribution" /><cc:requires
         rdf:resource="http://web.resource.org/cc/Notice" /><cc:requires
         rdf:resource="http://web.resource.org/cc/Attribution" /><cc:permits
         rdf:resource="http://web.resource.org/cc/DerivativeWorks" /><cc:requires
         rdf:resource="http://web.resource.org/cc/ShareAlike" /></cc:License></rdf:RDF></metadata>
	
<g
   id="g11986"
   transform="matrix(0.14398343,0,0,0.15557073,109.34664,83.778741)"><g
     id="g2620"
     transform="matrix(5.2089327,0,0,4.8209582,-301.34771,-626.98361)"><rect
       ry="3.5956879"
       rx="3.2442858"
       y="140.06578"
       x="99.911797"
       height="42.857143"
       width="42.857143"
       id="rect21547-2-2-4-6-4-2-9-3"
       style="opacity:1;fill:#ffffff;fill-opacity:1;stroke:#000000;stroke-width:2.14285707;stroke-miterlimit:4;stroke-dasharray:none;stroke-dashoffset:0;stroke-opacity:1" /><g
       id="g1516"
       transform="matrix(0.28472501,0,0,0.28472501,107.60708,150.53147)"><path
         d="m 20.15,63.002 c 4.859,-0.011 8.808,-3.96 8.831,-8.831 -0.023,-4.875 -3.972,-8.824 -8.831,-8.832 -4.885,0.008 -8.834,3.958 -8.828,8.832 -0.007,4.871 3.943,8.82 8.828,8.831 z"
         id="path2-9"
         inkscape:connector-curvature="0" /><path
         d="M 20.15,54.171"
         id="path4-6"
         inkscape:connector-curvature="0" /><path
         d="m 29.576,56.229 v 7.639 H 16.034 c -6.551,0.046 -6.56,8.458 0,8.448 h 17.768 c 2.598,0.01 4.224,-2.083 4.225,-4.439 V 56.229 c -0.002,-6.365 -8.44,-6.365 -8.451,0 z"
         id="path6-5"
         inkscape:connector-curvature="0" /><path
         d="M 47.019,22.104"
         id="path8-7"
         inkscape:connector-curvature="0" /><path
         d="M 47.019,22.104"
         id="path10-4"
         inkscape:connector-curvature="0" /><path
         d="M 39.166,51.679 H 74.43 c 5.194,-0.012 8.242,3.319 8.234,7.801 V 72.211 H 39.166 Z"
         id="path12-3"
         inkscape:connector-curvature="0" /><path
         d="M 9.641,44.312 C 9.631,37.365 -0.007,37.365 0,44.312 V 100 H 9.858 V 85.645 H 84.831 V 99.892 H 94.42 V 56.88 c 0.025,-7.328 -9.719,-7.328 -9.696,0 V 74.051 H 9.641 Z"
         id="path14-9"
         inkscape:connector-curvature="0" /><path
         d="M 47.236,34.399"
         id="path22-4"
         inkscape:connector-curvature="0" /><g
         transform="matrix(0.70770548,0,0,0.70770548,27.259878,-27.550271)"
         id="g904"><path
           style="clip-rule:evenodd;fill-rule:evenodd"
           inkscape:connector-curvature="0"
           d="M 82.64,91.498 53.633,48.559 59.604,37.466 h 7.677 c 0.562,0 1.134,-0.571 1.705,-1.143 L 83.212,11.591 C 84.338,9.029 81.214,7.888 80.079,9.878 L 67.28,30.646 c -1.705,2.562 -5.686,0.571 -3.418,-2.854 L 76.098,6.746 c 1.134,-1.99 -1.713,-3.98 -3.41,-1.42 L 60.452,25.801 c -1.99,3.426 -5.399,0.293 -3.98,-1.697 L 68.414,3.059 c 1.42,-2.562 -1.42,-4.274 -2.562,-1.99 L 50.786,24.952 c -0.571,1.142 -0.571,1.713 -0.285,1.99 l 3.98,7.113 -5.122,7.684 -5.115,-7.406 c 0,0 7.398,-8.81 -2.847,-20.475 C 31.445,1.917 22.913,-1.771 18.933,1.068 15.801,3.336 14.667,14.429 21.209,26.942 27.75,39.749 36.846,38.036 39.13,37.759 l 5.971,10.522 -27.587,42.94 c -2.562,3.98 0,6.819 1.704,7.668 1.705,0.864 5.408,1.99 7.962,-2.839 L 49.36,55.949 73.822,97.47 c 1.419,2.283 4.544,3.409 6.827,1.712 1.134,-0.849 4.552,-3.703 1.991,-7.684"
           id="path902" /></g></g></g></g></svg>