<?xml version="1.0" encoding="UTF-8" standalone="no"?>
<!-- Generator: Adobe Illustrator 11.0, SVG Export Plug-In  -->

<!-- hand edited from http://commons.wikimedia.org/wiki/Image:1_9_2_44.svg -->

<svg
   xmlns:dc="http://purl.org/dc/elements/1.1/"
   xmlns:cc="http://creativecommons.org/ns#"
   xmlns:rdf="http://www.w3.org/1999/02/22-rdf-syntax-ns#"
   xmlns:svg="http://www.w3.org/2000/svg"
   xmlns="http://www.w3.org/2000/svg"
   xmlns:sodipodi="http://sodipodi.sourceforge.net/DTD/sodipodi-0.dtd"
   xmlns:inkscape="http://www.inkscape.org/namespaces/inkscape"
   width="50"
   height="50"
   viewBox="140 90 33.75 33.75"
   xml:space="preserve"
   id="svg2"
   version="1.0"
   sodipodi:docname="J_ICT.svg"
   inkscape:version="0.92.3 (unknown)"><title
   id="title989">NACE Section J Classification Visual</title><defs
   id="defs5729" /><sodipodi:namedview
   pagecolor="#ffffff"
   bordercolor="#666666"
   borderopacity="1"
   objecttolerance="10"
   gridtolerance="10"
   guidetolerance="10"
   inkscape:pageopacity="0"
   inkscape:pageshadow="2"
   inkscape:window-width="1853"
   inkscape:window-height="1021"
   id="namedview5727"
   showgrid="false"
   inkscape:zoom="2.36"
   inkscape:cx="-187.18221"
   inkscape:cy="-20.338978"
   inkscape:window-x="0"
   inkscape:window-y="0"
   inkscape:window-maximized="0"
   inkscape:current-layer="g11986" /><metadata
   id="metadata19"><rdf:RDF><cc:Work
       rdf:about=""><cc:license
         rdf:resource="http://creativecommons.org/licenses/by-sa/2.5/" /><dc:format>image/svg+xml</dc:format><dc:type
         rdf:resource="http://purl.org/dc/dcmitype/StillImage" /><dc:title>NACE Section J Classification Visual</dc:title><dc:creator><cc:Agent><dc:title>Open Risk</dc:title></cc:Agent></dc:creator><dc:publisher><cc:Agent><dc:title>https://www.openriskmanagement.com</dc:title></cc:Agent></dc:publisher><dc:identifier>J_ICT_Square</dc:identifier><dc:date>2018</dc:date><dc:rights><cc:Agent><dc:title>Creative Commons Attribution + Share-Alike  (CC-BY-SA)</dc:title></cc:Agent></dc:rights><dc:description>Wifi antenna, smartphone and laptop as representative of the information and communication technology sectors</dc:description></cc:Work><cc:License
       rdf:about="http://creativecommons.org/licenses/by-sa/2.5/"><cc:permits
         rdf:resource="http://web.resource.org/cc/Reproduction" /><cc:permits
         rdf:resource="http://web.resource.org/cc/Distribution" /><cc:requires
         rdf:resource="http://web.resource.org/cc/Notice" /><cc:requires
         rdf:resource="http://web.resource.org/cc/Attribution" /><cc:permits
         rdf:resource="http://web.resource.org/cc/DerivativeWorks" /><cc:requires
         rdf:resource="http://web.resource.org/cc/ShareAlike" /></cc:License></rdf:RDF></metadata>
	
<g
   id="g11986"
   transform="matrix(0.14398343,0,0,0.15557073,109.34664,83.778741)"><g
     id="g2660"
     transform="matrix(5.2089327,0,0,4.8209582,-531.85687,-626.98367)"><rect
       ry="3.5956879"
       rx="3.2442858"
       y="140.06578"
       x="144.54581"
       height="42.857143"
       width="42.857143"
       id="rect21547-2-2-4-6-4-2-9-3-8"
       style="opacity:1;fill:#ffffff;fill-opacity:1;stroke:#000000;stroke-width:2.14285707;stroke-miterlimit:4;stroke-dasharray:none;stroke-dashoffset:0;stroke-opacity:1" /><g
       id="g2124"
       transform="matrix(0.17955307,0,0,0.17955307,151.9464,144.8055)"><g
         id="g6"><path
           d="m 6.781,44.082 c 0,-16.466 10.195,-30.587 24.601,-36.405 l -1.8,-6.348 C 12.423,7.955 0.214,24.614 0.214,44.082 c 0,18.525 11.059,34.505 26.917,41.721 L 29.36,79.605 C 16.031,73.325 6.781,59.767 6.781,44.082 Z"
           id="path2-4"
           inkscape:connector-curvature="0" /><path
           d="M 61.593,0.988 59.628,7.26 c 14.962,5.543 25.657,19.956 25.657,36.821 0,15.707 -9.278,29.282 -22.639,35.549 l 2.223,6.202 C 80.762,78.631 91.851,62.632 91.851,44.081 91.851,24.278 79.22,7.372 61.593,0.988 Z"
           id="path4-0"
           inkscape:connector-curvature="0" /></g><polygon
         points="46.344,100 50.571,87.642 55.124,100 63.313,100 46.033,42.914 29.066,100 37.267,100 41.494,87.642 45.722,100 "
         id="polygon8" /><g
         id="g14"><path
           d="m 6.781,44.082 c 0,-16.466 10.195,-30.587 24.601,-36.405 l -1.8,-6.348 C 12.423,7.955 0.214,24.614 0.214,44.082 c 0,18.525 11.059,34.505 26.917,41.721 L 29.36,79.605 C 16.031,73.325 6.781,59.767 6.781,44.082 Z"
           id="path10-6"
           inkscape:connector-curvature="0" /><path
           d="M 61.593,0.988 59.628,7.26 c 14.962,5.543 25.657,19.956 25.657,36.821 0,15.707 -9.278,29.282 -22.639,35.549 l 2.223,6.202 C 80.762,78.631 91.851,62.632 91.851,44.081 91.851,24.278 79.22,7.372 61.593,0.988 Z"
           id="path12-0"
           inkscape:connector-curvature="0" /></g><g
         id="g20"><path
           d="m 78.272,44.082 c 0,-13.727 -8.627,-25.471 -20.743,-30.111 l -1.966,6.281 c 9.45,3.792 16.144,13.042 16.144,23.83 0,9.822 -5.549,18.369 -13.672,22.683 l 2.233,6.231 C 70.925,67.729 78.272,56.75 78.272,44.082 Z"
           id="path16-2"
           inkscape:connector-curvature="0" /><path
           d="m 20.36,44.082 c 0,-10.254 6.045,-19.12 14.758,-23.23 l -1.811,-6.386 c -11.465,4.946 -19.513,16.357 -19.513,29.616 0,12.649 7.326,23.612 17.955,28.888 L 33.99,66.744 C 25.888,62.423 20.36,53.887 20.36,44.082 Z"
           id="path18-2"
           inkscape:connector-curvature="0" /></g><g
         id="g26"><path
           d="m 33.885,44.082 c 0,-4.04 1.991,-7.616 5.034,-9.826 l -1.867,-6.584 c -5.795,3.184 -9.733,9.345 -9.733,16.41 0,6.788 3.645,12.725 9.067,16.004 l 2.29,-6.361 c -2.905,-2.222 -4.791,-5.713 -4.791,-9.643 z"
           id="path22-8"
           inkscape:connector-curvature="0" /><path
           d="m 53.475,26.92 -1.979,6.326 c 3.958,2.004 6.686,6.103 6.686,10.835 0,3.942 -1.896,7.441 -4.814,9.661 l 2.281,6.365 c 5.44,-3.279 9.1,-9.226 9.1,-16.026 C 64.748,36.408 60.101,29.804 53.475,26.92 Z"
           id="path24"
           inkscape:connector-curvature="0" /></g><path
         inkscape:connector-curvature="0"
         d="m 112.21136,99.661017 h 30.22886 c 5.24879,0 9.50724,-4.722211 9.50724,-10.560139 V 10.906847 c 0,-5.8324101 -4.25656,-10.5678637 -9.49781,-10.5678637 H 112.2208 c -5.24785,0 -9.50724,4.7354536 -9.50724,10.5678637 v 78.192927 c 0,5.835721 4.25656,10.561243 9.50724,10.561243 m 15.11914,-3.594354 c -2.35134,0 -4.24996,-2.229228 -4.24996,-4.963895 0,-2.746806 1.89579,-4.968308 4.24996,-4.968308 2.34568,0 4.23864,2.218192 4.23864,4.968308 0,2.737978 -1.89578,4.963895 -4.23864,4.963895 M 120.86219,6.7750509 h 12.94701 c 0.52441,0 0.95261,0.4226704 0.95261,0.9402486 0,0.5197853 -0.42632,0.9424557 -0.95261,0.9424557 h -12.94701 c -0.51874,0 -0.95261,-0.4226704 -0.95261,-0.9424557 -9e-5,-0.5175782 0.42821,-0.9402486 0.95261,-0.9402486 M 106.44194,18.691488 c 0,-0.876241 0.63665,-1.586946 1.42232,-1.586946 h 38.94382 c 0.78755,0 1.42137,0.707394 1.42137,1.586946 v 62.34113 c 0,0.87293 -0.63382,1.581427 -1.42137,1.581427 h -38.94382 c -0.78567,0 -1.42232,-0.708497 -1.42232,-1.581427 v -62.34113"
         id="path925"
         style="stroke-width:1.02023077" /><path
         inkscape:connector-curvature="0"
         d="m 144.17373,176.77617 h -0.79411 c 2.01065,0 3.63896,-1.21501 3.63896,-2.71326 v -64.53609 c 0,-1.5002 -1.62831,-2.71327 -3.63896,-2.71327 H 11.356252 c -2.0106454,0 -3.6416195,1.21307 -3.6416195,2.71327 v 64.53804 c 0,1.49825 1.6309741,2.71326 3.6416195,2.71326 h -0.868963 l -13.3686449,9.47785 c 0,3.25239 3.60418756,6.50674 8.0131657,6.50674 H 149.53187 c 4.15766,0 8.0105,-3.24653 8.0105,-6.50869 l -13.36864,-9.47785 M 77.367942,108.32744 c 1.149703,0 2.077487,0.67977 2.077487,1.51778 0,0.838 -0.930457,1.51778 -2.077487,1.51778 -1.14703,0 -2.077487,-0.67978 -2.077487,-1.51778 0,-0.83801 0.930457,-1.51778 2.077487,-1.51778 M 11.57015,178.72956 h 131.51804 l 7.85542,5.57107 H 92.148314 l -1.064143,-1.03139 H 63.651713 l -1.066818,1.03139 H 3.7120598 l 7.8580902,-5.57107 m 77.300173,11.76331 H 65.785348 c -0.791423,0 -2.898321,0 -2.898321,-1.96902 H 91.77132 c 0,1.96902 -2.149679,1.96902 -2.900997,1.96902"
         id="path1541"
         style="stroke-width:2.28535199" /></g></g></g></svg>