<?xml version="1.0" encoding="UTF-8" standalone="no"?>
<!-- Generator: Adobe Illustrator 11.0, SVG Export Plug-In  -->

<!-- hand edited from http://commons.wikimedia.org/wiki/Image:1_9_2_44.svg -->

<svg
   xmlns:dc="http://purl.org/dc/elements/1.1/"
   xmlns:cc="http://creativecommons.org/ns#"
   xmlns:rdf="http://www.w3.org/1999/02/22-rdf-syntax-ns#"
   xmlns:svg="http://www.w3.org/2000/svg"
   xmlns="http://www.w3.org/2000/svg"
   xmlns:sodipodi="http://sodipodi.sourceforge.net/DTD/sodipodi-0.dtd"
   xmlns:inkscape="http://www.inkscape.org/namespaces/inkscape"
   width="50"
   height="50"
   viewBox="140 90 33.75 33.75"
   xml:space="preserve"
   id="svg2"
   version="1.0"
   sodipodi:docname="K_Finance.svg"
   inkscape:version="0.92.3 (unknown)"><title
   id="title989">NACE Section K Classification Visual</title><defs
   id="defs5729" /><sodipodi:namedview
   pagecolor="#ffffff"
   bordercolor="#666666"
   borderopacity="1"
   objecttolerance="10"
   gridtolerance="10"
   guidetolerance="10"
   inkscape:pageopacity="0"
   inkscape:pageshadow="2"
   inkscape:window-width="1853"
   inkscape:window-height="1021"
   id="namedview5727"
   showgrid="false"
   inkscape:zoom="2.36"
   inkscape:cx="-187.18221"
   inkscape:cy="-20.338978"
   inkscape:window-x="0"
   inkscape:window-y="0"
   inkscape:window-maximized="0"
   inkscape:current-layer="g11986" /><metadata
   id="metadata19"><rdf:RDF><cc:Work
       rdf:about=""><cc:license
         rdf:resource="http://creativecommons.org/licenses/by-sa/2.5/" /><dc:format>image/svg+xml</dc:format><dc:type
         rdf:resource="http://purl.org/dc/dcmitype/StillImage" /><dc:title>NACE Section K Classification Visual</dc:title><dc:creator><cc:Agent><dc:title>Open Risk</dc:title></cc:Agent></dc:creator><dc:publisher><cc:Agent><dc:title>https://www.openriskmanagement.com</dc:title></cc:Agent></dc:publisher><dc:identifier>K_Finance_Square</dc:identifier><dc:date>2018</dc:date><dc:rights><cc:Agent><dc:title>Creative Commons Attribution + Share-Alike  (CC-BY-SA)</dc:title></cc:Agent></dc:rights><dc:description>Bank building, bank note and coins as representative of financial and insurance activities</dc:description></cc:Work><cc:License
       rdf:about="http://creativecommons.org/licenses/by-sa/2.5/"><cc:permits
         rdf:resource="http://web.resource.org/cc/Reproduction" /><cc:permits
         rdf:resource="http://web.resource.org/cc/Distribution" /><cc:requires
         rdf:resource="http://web.resource.org/cc/Notice" /><cc:requires
         rdf:resource="http://web.resource.org/cc/Attribution" /><cc:permits
         rdf:resource="http://web.resource.org/cc/DerivativeWorks" /><cc:requires
         rdf:resource="http://web.resource.org/cc/ShareAlike" /></cc:License></rdf:RDF></metadata>
	
<g
   id="g11986"
   transform="matrix(0.14398343,0,0,0.15557073,109.34664,83.778741)"><g
     id="g2733"
     transform="matrix(5.2089327,0,0,4.8209582,-765.7445,-624.95658)"><rect
       ry="3.5956879"
       rx="3.2442858"
       y="139.26396"
       x="189.44708"
       height="42.857143"
       width="42.857143"
       id="rect21547-2-2-4-6-4-2-9-3-8-2"
       style="opacity:1;fill:#ffffff;fill-opacity:1;stroke:#000000;stroke-width:2.14285707;stroke-miterlimit:4;stroke-dasharray:none;stroke-dashoffset:0;stroke-opacity:1" /><g
       transform="matrix(0.73984286,0,0,0.73984286,87.802736,-24.184006)"
       id="g21189"><path
         d="m 169.31924,267.56003 h -1.82597 v -12.34222 h 1.82597 v -2.8404 l -13.7286,-7.87874 -13.66099,7.87874 v 2.8404 h 1.82598 v 12.34222 h -1.82598 v 1.58927 h -1.52164 v 2.29938 h 30.43288 v -2.29938 h -1.52165 z m -6.45853,-15.18262 H 148.422 l 7.16864,-4.05772 z m -16.5352,15.18262 V 256.8409 h 4.56494 v 10.71913 z m 7.03338,0 V 256.8409 h 4.56493 v 10.71913 z m 7.06719,0 V 256.8409 h 4.56493 v 10.71913 z"
         id="path19153"
         inkscape:connector-curvature="0"
         style="stroke-width:0.33814308" /><path
         inkscape:connector-curvature="0"
         id="path14-08"
         style="fill:none;stroke:#000000;stroke-width:2.99411798;stroke-linecap:butt;stroke-linejoin:miter;stroke-miterlimit:10;stroke-dasharray:none;stroke-opacity:1"
         d="m 157.91001,242.27442 h 28.77775 v -12.75359 h -28.77775 z" /><g
         id="g21088"
         transform="matrix(0.29569676,0,0,0.29569676,128.53002,238.60078)"><path
           d="m 173.81179,39.912632 c 7.57879,0 13.72313,-6.144333 13.72313,-13.723131 0,-7.578798 -6.14434,-13.723131 -13.72313,-13.723131 -7.5788,0 -13.72314,6.144333 -13.72314,13.723131 0,7.578798 6.14434,13.723131 13.72314,13.723131"
           style="fill:#000000;fill-opacity:1;fill-rule:nonzero;stroke:none;stroke-width:0.02410866"
           id="path16-44"
           inkscape:connector-curvature="0" /><path
           d="m 173.81179,39.912632 c 7.57879,0 13.72313,-6.144333 13.72313,-13.723131 0,-7.578798 -6.14434,-13.723131 -13.72313,-13.723131 -7.5788,0 -13.72314,6.144333 -13.72314,13.723131 0,7.578798 6.14434,13.723131 13.72314,13.723131 z"
           style="fill:none;stroke:#000000;stroke-width:0.44817999;stroke-linecap:butt;stroke-linejoin:miter;stroke-miterlimit:10;stroke-dasharray:none;stroke-opacity:1"
           id="path18-8"
           inkscape:connector-curvature="0" /><path
           d="m 166.35233,28.621342 h 3.58375 c 0.22686,1.03402 0.52533,2.284536 2.15772,2.748628 l -0.004,-4.062068 c -2.23559,-0.321369 -5.46061,-1.301627 -5.46061,-4.896951 0,-4.041576 4.47143,-5.301736 5.46495,-5.301736 V 14.66532 h 3.37039 v 2.443895 c 2.27273,0.131634 5.57127,2.031396 5.57127,5.642873 h -3.54855 c -0.0902,-1.072112 -0.92119,-2.125419 -1.98728,-2.200638 v 3.724306 c 2.70933,0.277972 5.89071,1.311993 5.89071,4.952401 0,3.178726 -3.19367,5.497015 -5.89071,5.639738 v 2.449922 h -3.40583 v -2.485602 c -1.95159,-0.285447 -5.51992,-2.167128 -5.74147,-6.210873"
           style="fill:#ffffff;fill-opacity:1;fill-rule:nonzero;stroke:none;stroke-width:0.02410866"
           id="path20-2"
           inkscape:connector-curvature="0" /><path
           d="m 172.1114,20.588336 v 3.085667 c -2.40194,-0.03761 -2.44871,-2.657497 0,-3.085667"
           style="fill:#000000;fill-opacity:1;fill-rule:nonzero;stroke:none;stroke-width:0.02410866"
           id="path22-42"
           inkscape:connector-curvature="0" /><path
           d="m 175.53917,27.887233 c 2.97212,0.07522 3.30289,3.028289 -0.003,3.500577"
           style="fill:#000000;fill-opacity:1;fill-rule:nonzero;stroke:none;stroke-width:0.02410866"
           id="path24-7"
           inkscape:connector-curvature="0" /><path
           d="m 175.5358,31.38781 0.003,-3.500577"
           style="fill:#000000;fill-opacity:1;fill-rule:nonzero;stroke:none;stroke-width:0.02410866"
           id="path26"
           inkscape:connector-curvature="0" /><path
           d="m 196.2989,63.840477 c 7.5788,0 13.72313,-6.144333 13.72313,-13.723131 0,-7.579039 -6.14433,-13.723372 -13.72313,-13.723372 -7.57904,0 -13.72338,6.144333 -13.72338,13.723372 0,7.578798 6.14434,13.723131 13.72338,13.723131"
           style="fill:#000000;fill-opacity:1;fill-rule:nonzero;stroke:none;stroke-width:0.02410866"
           id="path28"
           inkscape:connector-curvature="0" /><path
           d="m 196.2989,63.840477 c 7.5788,0 13.72313,-6.144333 13.72313,-13.723131 0,-7.579039 -6.14433,-13.723372 -13.72313,-13.723372 -7.57904,0 -13.72338,6.144333 -13.72338,13.723372 0,7.578798 6.14434,13.723131 13.72338,13.723131 z"
           style="fill:none;stroke:#000000;stroke-width:0.44817999;stroke-linecap:butt;stroke-linejoin:miter;stroke-miterlimit:10;stroke-dasharray:none;stroke-opacity:1"
           id="path30"
           inkscape:connector-curvature="0" /><path
           d="m 202.63827,55.601584 v 2.958374 h -12.7096 v -2.958374 c 1.4441,-0.967239 2.19533,-3.413545 1.73317,-4.722404 h -2.6575 v -3.015029 h 2.13723 c -0.57764,-1.365274 -0.57764,-1.820445 -0.57764,-3.01527 0,-1.194585 0.98243,-5.090062 6.1236,-5.06306 4.73446,0.02507 6.10865,3.925854 6.10865,6.713056 l -3.60424,0.0022 c -0.24109,-1.687606 -0.90408,-3.073854 -2.47114,-3.073854 -2.39737,0 -2.40146,1.507032 -2.40146,2.019341 0,0.511827 0.0863,1.763308 0.57764,2.446306 h 3.11966 v 2.958133 h -2.54202 c 0.31751,2.70258 -1.24208,3.840268 -1.32887,4.750611 h 8.49252"
           style="fill:#ffffff;fill-opacity:1;fill-rule:nonzero;stroke:none;stroke-width:0.02410866"
           id="path32"
           inkscape:connector-curvature="0" /><g
           transform="translate(-26.271187,-17.796611)"
           id="g20453"><path
             inkscape:connector-curvature="0"
             id="path34"
             style="fill:#000000;fill-opacity:1;fill-rule:nonzero;stroke:none;stroke-width:0.02410866"
             d="m 187.13761,99.52127 c 7.5788,0 13.72313,-6.144333 13.72313,-13.723107 0,-7.579064 -6.14433,-13.723373 -13.72313,-13.723373 -7.57904,0 -13.72313,6.144309 -13.72313,13.723373 0,7.578774 6.14409,13.723107 13.72313,13.723107" /><path
             inkscape:connector-curvature="0"
             id="path36"
             style="fill:none;stroke:#000000;stroke-width:0.44817999;stroke-linecap:butt;stroke-linejoin:miter;stroke-miterlimit:10;stroke-dasharray:none;stroke-opacity:1"
             d="m 187.13761,99.52127 c 7.5788,0 13.72313,-6.144333 13.72313,-13.723107 0,-7.579064 -6.14433,-13.723373 -13.72313,-13.723373 -7.57904,0 -13.72313,6.144309 -13.72313,13.723373 0,7.578774 6.14409,13.723107 13.72313,13.723107 z" /><path
             inkscape:connector-curvature="0"
             id="path38"
             style="fill:#ffffff;fill-opacity:1;fill-rule:nonzero;stroke:none;stroke-width:0.02410866"
             d="m 179.42476,77.382071 h 3.98637 l 3.69731,6.525443 4.01168,-6.525443 h 3.6715 l -5.95001,10.522972 h 4.44804 v 3.350621 h -4.27494 v 4.703069 h -3.63945 v -4.703069 h -4.56401 v -3.292061 h 4.62163 l -6.00812,-10.581532" /></g><path
           style="stroke-width:0.42791411"
           id="path20503"
           d="m 189.82457,65.716949 c -7.70245,0 -13.95,6.24755 -13.95,13.95 0,7.70245 6.24755,13.95 13.95,13.95 7.70245,0 13.95,-6.24755 13.95,-13.95 0,-7.70245 -6.24755,-13.95 -13.95,-13.95 z m 6.20475,9.71365 c -0.59908,-0.77025 -1.41211,-1.36932 -2.39631,-1.79724 -0.98421,-0.42791 -2.05399,-0.68466 -3.25215,-0.68466 -1.4977,0 -2.82423,0.34233 -3.93681,1.24095 -1.15537,0.85583 -1.88282,1.9684 -2.31074,3.25215 h 10.86902 l -0.72745,1.71165 h -10.44111 c 0,0 0,0.12838 -0.0428,0.17117 0,0.25675 0,0.4707 0,0.64187 0,0.12837 0.0856,0.29954 0.0856,0.59908 v 0.29954 h 9.71365 l -0.72745,1.28374 h -8.68666 c 0.42792,1.71166 1.24095,2.61028 2.39632,3.46611 1.15537,0.85582 2.5247,1.28374 4.10798,1.28374 1.06978,0 2.01119,-0.21396 2.95261,-0.64187 0.94141,-0.42792 1.84003,-1.027 2.26794,-1.75445 v 2.05399 c -0.42791,0.51349 -1.41212,0.9842 -2.39632,1.32653 -0.9842,0.38512 -1.92561,0.55629 -2.9954,0.55629 -0.9842,0 -1.88282,-0.12837 -2.78144,-0.42791 -0.89862,-0.29954 -1.66886,-0.68467 -2.39632,-1.24096 -0.72745,-0.55628 -1.32653,-1.24095 -1.84003,-2.01119 -0.5135,-0.77025 -0.85583,-1.75445 -1.11258,-2.61028 h -2.73865 l 0.72746,-1.28374 h 1.71165 c 0,-0.42791 -0.0428,-0.55629 -0.0428,-0.85583 0,-0.29954 0,-0.85583 0.0428,-0.85583 h -2.4819 l 0.72746,-1.71165 h 2.01119 c 0.42792,-1.71166 1.41212,-3.33773 2.90982,-4.45031 1.4977,-1.11258 3.25215,-1.62607 5.30613,-1.62607 1.15537,0 2.31074,0.25674 3.42332,0.68466 1.11257,0.4707 2.01119,1.06978 2.65306,1.88282 z"
           inkscape:connector-curvature="0" /></g></g></g></g></svg>