<?xml version="1.0" encoding="UTF-8" standalone="no"?>
<!-- Generator: Adobe Illustrator 11.0, SVG Export Plug-In  -->

<!-- hand edited from http://commons.wikimedia.org/wiki/Image:1_9_2_44.svg -->

<svg
   xmlns:dc="http://purl.org/dc/elements/1.1/"
   xmlns:cc="http://creativecommons.org/ns#"
   xmlns:rdf="http://www.w3.org/1999/02/22-rdf-syntax-ns#"
   xmlns:svg="http://www.w3.org/2000/svg"
   xmlns="http://www.w3.org/2000/svg"
   xmlns:sodipodi="http://sodipodi.sourceforge.net/DTD/sodipodi-0.dtd"
   xmlns:inkscape="http://www.inkscape.org/namespaces/inkscape"
   width="50"
   height="50"
   viewBox="140 90 33.75 33.75"
   xml:space="preserve"
   id="svg2"
   version="1.0"
   sodipodi:docname="L_RealEstate.svg"
   inkscape:version="0.92.3 (unknown)"><title
   id="title989">NACE Section L Classification Visual</title><defs
   id="defs5729" /><sodipodi:namedview
   pagecolor="#ffffff"
   bordercolor="#666666"
   borderopacity="1"
   objecttolerance="10"
   gridtolerance="10"
   guidetolerance="10"
   inkscape:pageopacity="0"
   inkscape:pageshadow="2"
   inkscape:window-width="1853"
   inkscape:window-height="1021"
   id="namedview5727"
   showgrid="false"
   inkscape:zoom="2.36"
   inkscape:cx="-187.18221"
   inkscape:cy="-20.338978"
   inkscape:window-x="0"
   inkscape:window-y="0"
   inkscape:window-maximized="0"
   inkscape:current-layer="g11986" /><metadata
   id="metadata19"><rdf:RDF><cc:Work
       rdf:about=""><cc:license
         rdf:resource="http://creativecommons.org/licenses/by-sa/2.5/" /><dc:format>image/svg+xml</dc:format><dc:type
         rdf:resource="http://purl.org/dc/dcmitype/StillImage" /><dc:title>NACE Section L Classification Visual</dc:title><dc:creator><cc:Agent><dc:title>Open Risk</dc:title></cc:Agent></dc:creator><dc:publisher><cc:Agent><dc:title>https://www.openriskmanagement.com</dc:title></cc:Agent></dc:publisher><dc:identifier>L_RealEstate_Square</dc:identifier><dc:date>2018</dc:date><dc:rights><cc:Agent><dc:title>Creative Commons Attribution + Share-Alike  (CC-BY-SA)</dc:title></cc:Agent></dc:rights><dc:description>Home as representative of the real estate industry</dc:description></cc:Work><cc:License
       rdf:about="http://creativecommons.org/licenses/by-sa/2.5/"><cc:permits
         rdf:resource="http://web.resource.org/cc/Reproduction" /><cc:permits
         rdf:resource="http://web.resource.org/cc/Distribution" /><cc:requires
         rdf:resource="http://web.resource.org/cc/Notice" /><cc:requires
         rdf:resource="http://web.resource.org/cc/Attribution" /><cc:permits
         rdf:resource="http://web.resource.org/cc/DerivativeWorks" /><cc:requires
         rdf:resource="http://web.resource.org/cc/ShareAlike" /></cc:License></rdf:RDF></metadata>
	
<g
   id="g11986"
   transform="matrix(0.14398343,0,0,0.15557073,109.34664,83.778741)"><g
     id="g2767"
     transform="matrix(5.2089327,0,0,4.8209582,-998.24022,-627.53358)"><rect
       ry="3.5956879"
       rx="3.2442858"
       y="139.79851"
       x="234.0811"
       height="42.857143"
       width="42.857143"
       id="rect21547-2-2-4-6-4-2-9-3-8-2-4"
       style="opacity:1;fill:#ffffff;fill-opacity:1;stroke:#000000;stroke-width:2.14285707;stroke-miterlimit:4;stroke-dasharray:none;stroke-dashoffset:0;stroke-opacity:1" /><g
       style="clip-rule:evenodd;fill:#000000;fill-rule:evenodd;image-rendering:optimizeQuality;shape-rendering:geometricPrecision;text-rendering:geometricPrecision"
       id="Layer_x0020_1"
       transform="matrix(0.16611256,0,0,0.16611256,237.84218,145.48602)"><metadata
         id="CorelCorpID_0Corel-Layer" /><path
         style="fill:#000000"
         id="path7"
         d="m 208.781,194.328 h -20.2721 c 0,-10.1362 -11.5888,-18.2655 -34.7667,-24.4233 -9.7898,-2.6293 -31.2725,-6.4345 -64.4482,-11.4507 -23.1775,-3.5286 -34.7667,-7.0571 -34.7667,-10.6547 0,-5.8118 14.218,-10.5167 42.6541,-14.1833 H 69.7141 C 41.278,136.141 27.06,141.192 27.06,148.8371 c 0,6.8148 8.164,12.419 24.5271,16.8125 15.1521,3.5286 30.2694,7.0224 45.4214,10.551 16.3284,4.6702 24.5272,10.6895 24.5272,18.1274 H 1.2187 V 97.742 H 43.4924 V 73.1115 L 37.9225,77.6779 26.4722,61.3495 104.9999,0.6722 128.8005,19.0067 V 0.6722 h 21.5171 v 35.1471 l 32.9334,25.5302 -11.4507,16.3284 -5.5695,-4.5664 V 97.742 h 42.5504 v 96.586 z M 177.37,61.661 146.8583,37.7566 V 3.7858 H 131.9481 V 26.3063 L 104.9997,5.1002 32.3181,61.661 l 6.6077,9.4441 8.7176,-7.2994 v 68.807 H 69.7141 V 76.467 h 27.4673 v 56.1457 h 64.8633 v -68.807 l 8.7176,7.2994 z m -28.0904,48.4659 H 113.1984 V 76.467 h 36.0812 z"
         class="fil0"
         inkscape:connector-curvature="0" /></g></g></g></svg>