<?xml version="1.0" encoding="UTF-8" standalone="no"?>
<!-- Generator: Adobe Illustrator 11.0, SVG Export Plug-In  -->

<!-- hand edited from http://commons.wikimedia.org/wiki/Image:1_9_2_44.svg -->

<svg
   xmlns:dc="http://purl.org/dc/elements/1.1/"
   xmlns:cc="http://creativecommons.org/ns#"
   xmlns:rdf="http://www.w3.org/1999/02/22-rdf-syntax-ns#"
   xmlns:svg="http://www.w3.org/2000/svg"
   xmlns="http://www.w3.org/2000/svg"
   xmlns:sodipodi="http://sodipodi.sourceforge.net/DTD/sodipodi-0.dtd"
   xmlns:inkscape="http://www.inkscape.org/namespaces/inkscape"
   width="50"
   height="50"
   viewBox="140 90 33.75 33.75"
   xml:space="preserve"
   id="svg2"
   version="1.0"
   sodipodi:docname="M_Professional.svg"
   inkscape:version="0.92.3 (unknown)"><title
   id="title989">NACE Section M Classification Visual</title><defs
   id="defs5729"><clipPath
     clipPathUnits="userSpaceOnUse"
     id="clipPath972"><rect
       style="opacity:1;fill:none;fill-opacity:1;stroke:#000000;stroke-width:1;stroke-miterlimit:4;stroke-dasharray:none;stroke-dashoffset:0;stroke-opacity:1"
       id="rect974"
       width="58.126575"
       height="54.650967"
       x="10.187132"
       y="-2.5756903"
       rx="11.4434"
       ry="12.684" /></clipPath></defs><sodipodi:namedview
   pagecolor="#ffffff"
   bordercolor="#666666"
   borderopacity="1"
   objecttolerance="10"
   gridtolerance="10"
   guidetolerance="10"
   inkscape:pageopacity="0"
   inkscape:pageshadow="2"
   inkscape:window-width="1853"
   inkscape:window-height="1021"
   id="namedview5727"
   showgrid="false"
   inkscape:zoom="2.36"
   inkscape:cx="-187.18221"
   inkscape:cy="-20.338978"
   inkscape:window-x="0"
   inkscape:window-y="0"
   inkscape:window-maximized="0"
   inkscape:current-layer="g11986" /><metadata
   id="metadata19"><rdf:RDF><cc:Work
       rdf:about=""><cc:license
         rdf:resource="http://creativecommons.org/licenses/by-sa/2.5/" /><dc:format>image/svg+xml</dc:format><dc:type
         rdf:resource="http://purl.org/dc/dcmitype/StillImage" /><dc:title>NACE Section M Classification Visual</dc:title><dc:creator><cc:Agent><dc:title>Open Risk</dc:title></cc:Agent></dc:creator><dc:publisher><cc:Agent><dc:title>https://www.openriskmanagement.com</dc:title></cc:Agent></dc:publisher><dc:identifier>M_Professional_Square</dc:identifier><dc:date>2018</dc:date><dc:rights><cc:Agent><dc:title>Creative Commons Attribution + Share-Alike  (CC-BY-SA)</dc:title></cc:Agent></dc:rights><dc:description>Person carrying abacus, business case and pencils as representative of professional, scientific and technical activities</dc:description></cc:Work><cc:License
       rdf:about="http://creativecommons.org/licenses/by-sa/2.5/"><cc:permits
         rdf:resource="http://web.resource.org/cc/Reproduction" /><cc:permits
         rdf:resource="http://web.resource.org/cc/Distribution" /><cc:requires
         rdf:resource="http://web.resource.org/cc/Notice" /><cc:requires
         rdf:resource="http://web.resource.org/cc/Attribution" /><cc:permits
         rdf:resource="http://web.resource.org/cc/DerivativeWorks" /><cc:requires
         rdf:resource="http://web.resource.org/cc/ShareAlike" /></cc:License></rdf:RDF></metadata>
	
<g
   id="g11986"
   transform="matrix(0.14398343,0,0,0.15557073,109.34664,83.778741)"><g
     id="g2852"
     transform="matrix(5.2089327,0,0,4.8209582,156.68241,-845.28931)"><rect
       ry="3.5956879"
       rx="3.2442858"
       y="184.96706"
       x="11.980123"
       height="42.857143"
       width="42.857143"
       id="rect21547-2-2-4-6-4-2-9-3-8-2-4-4"
       style="opacity:1;fill:#ffffff;fill-opacity:1;stroke:#000000;stroke-width:2.14285707;stroke-miterlimit:4;stroke-dasharray:none;stroke-dashoffset:0;stroke-opacity:1" /><g
       id="g1044"
       transform="matrix(0.64115898,0,0,0.64115898,9.5116723,188.48849)"><path
         style="fill:#000000;fill-opacity:1;stroke:none"
         d="m 31.925015,16.276808 c -0.828236,0 -1.5,0.672489 -1.5,1.5 v 28.25 c 0,0.59374 0.350007,1.10852 0.85,1.35 v 30.225 c 0,0.7254 0.5752,1.325 1.3,1.325 h 4.375 c 0.72479,0 1.3,-0.5996 1.3,-1.325 v -30.075 h 2.15 v 29.925 c 0,0.811936 0.638252,1.475 1.45,1.475 h 4.025 c 0.811604,0 1.475,-0.663056 1.475,-1.475 v -30.15 c 0.432736,-0.26219 0.75,-0.73071 0.75,-1.275 v -28.25 c 0,-0.827511 -0.671875,-1.5 -1.5,-1.5 z m -5.65,0.15 c -0.82827,0 -1.5,0.6462 -1.5,1.475 v 6.375 6.375 6.375 6.375 c 0,0.82815 0.67173,1.5 1.5,1.5 h 2.15 c 0.828233,0 1.5,-0.67185 1.5,-1.5 v -25.5 c 0,-0.8288 -0.671767,-1.475 -1.5,-1.475 z m 23.825,0 c -0.828238,0 -1.5,0.6462 -1.5,1.475 v 24.925 c 0,0.82928 0.671762,1.5 1.5,1.5 h 0.45 v 2.05 c 0,0.05601 0.01023,0.1049 0.025,0.15 h -1.025 c -0.216737,0 -0.375,0.167989 -0.375,0.4 v 19.65 c 0,0.23168 0.158263,0.425 0.375,0.425 h 3.25 c 0.216592,0 0.4,-0.19332 0.4,-0.425 v -19.65 c 0,-0.232011 -0.183408,-0.4 -0.4,-0.4 h -1.15 c 0.01334,-0.04511 0.025,-0.094 0.025,-0.15 v -2.05 h 0.575 c 0.828125,0 1.5,-0.67072 1.5,-1.5 v -24.925 c 0,-0.8288 -0.671875,-1.475 -1.5,-1.475 z m -13.375,0.325 h 4.325 l -1.5,2.1 -1.3,-0.1 z m 1.775,2.5 h 0.825 l -0.825,9.55 -3.125,2.9 -1.05,-3.55 z m 4.975,0.8 h 0.275 c 0.171026,0 0.325,0.34074 0.325,0.75 v 2.225 h 0.525 v -1.825 c 0,-0.3635 0.226553,-0.675 0.5,-0.675 h 0.425 c 0.273446,0 0.475,0.3115 0.475,0.675 v 1.825 h 0.625 0.225 v 0.225 6.4 c 0,0.74852 -0.617039,1.35 -1.375,1.35 h -3.825 c -0.757978,0 -1.375,-0.598751 -1.375,-1.35 v -6.425 -0.225 l 0.225,0.025 c 0.08783,0.0085 0.09912,0 0.05,0 h 0.575 v -1.425 c 0,-0.27825 0.218012,-0.5 0.5,-0.5 h 0.45 c 0.281988,0 0.5,0.22175 0.5,0.5 v 1.425 h 0.6 v -2.225 c 0,-0.40926 0.128973,-0.75 0.3,-0.75 z m -2.775,3.4 v 6.2 c 0,0.526789 0.413544,0.925 0.95,0.925 h 3.825 c 0.53644,0 0.95,-0.39516 0.95,-0.925 v -6.2 h -0.6 v 1.4 c 0,0.25819 -0.21681,0.45 -0.475,0.45 h -0.1 c -0.258191,0 -0.475,-0.19181 -0.475,-0.45 v -1.4 h -0.875 v 1.65 c 0,0.153283 -0.121717,0.275 -0.275,0.275 -0.153283,0 -0.275,-0.121717 -0.275,-0.275 v -1.65 h -1 v 1.475 c 0,0.274583 -0.225417,0.5 -0.5,0.5 -0.274583,0 -0.5,-0.225417 -0.5,-0.5 v -1.475 z m 0.8,0 v 1.475 c 0,0.185455 0.164545,0.325 0.35,0.325 0.185455,0 0.325,-0.139545 0.325,-0.325 v -1.475 z m 2,0 v 1.65 c 0,0.06416 0.06084,0.075 0.125,0.075 0.06416,0 0.125,-0.01084 0.125,-0.075 v -1.65 z m 1.475,0 v 1.4 c 0,0.160257 0.114742,0.3 0.275,0.3 h 0.1 c 0.160257,0 0.275,-0.139743 0.275,-0.3 v -1.4 z"
         id="path2-7"
         clip-path="url(#clipPath972)"
         inkscape:connector-curvature="0" /><g
         transform="matrix(0.08194552,0.14277902,-0.14277902,0.08194552,28.547527,41.423285)"
         style="fill:#000000;stroke:none"
         id="g128"><path
           d="m 1.90625,12.21875 a 1.20012,1.20012 0 0 0 -1.0625,1.21875 v 48 a 1.20012,1.20012 0 0 0 1.1875,1.1875 h 76 a 1.20012,1.20012 0 0 0 1.1875,-1.1875 v -48 a 1.20012,1.20012 0 0 0 -1.1875,-1.21875 h -76 a 1.20012,1.20012 0 0 0 -0.125,0 z m 1.3125,2.40625 h 73.625 v 45.59375 h -73.625 z"
           style="color:#000000;text-indent:0;text-transform:none;direction:ltr;baseline-shift:baseline;display:inline;overflow:visible;visibility:visible;fill:#000000;fill-opacity:1;stroke:none;enable-background:accumulate"
           marker="none"
           visibility="visible"
           display="inline"
           overflow="visible"
           id="path4-99"
           inkscape:connector-curvature="0" /><path
           d="m 2.03125,29.03125 v 0.78125 h 76 v -0.78125 z"
           style="color:#000000;text-indent:0;text-transform:none;direction:ltr;baseline-shift:baseline;display:inline;overflow:visible;visibility:visible;fill:#000000;fill-opacity:1;stroke:none;enable-background:accumulate"
           marker="none"
           visibility="visible"
           display="inline"
           overflow="visible"
           id="path6-3"
           inkscape:connector-curvature="0" /><path
           d="m 9.625,13.4375 v 48 h 0.8125 v -48 z"
           style="color:#000000;text-indent:0;text-transform:none;direction:ltr;baseline-shift:baseline;display:inline;overflow:visible;visibility:visible;fill:#000000;fill-opacity:1;stroke:none;enable-background:accumulate"
           marker="none"
           visibility="visible"
           display="inline"
           overflow="visible"
           id="path8-9"
           inkscape:connector-curvature="0" /><path
           d="m 21.625,13.4375 v 48 h 0.8125 v -48 z"
           style="color:#000000;text-indent:0;text-transform:none;direction:ltr;baseline-shift:baseline;display:inline;overflow:visible;visibility:visible;fill:#000000;fill-opacity:1;stroke:none;enable-background:accumulate"
           marker="none"
           visibility="visible"
           display="inline"
           overflow="visible"
           id="path10-8"
           inkscape:connector-curvature="0" /><path
           d="m 33.625,13.4375 v 48 h 0.8125 v -48 z"
           style="color:#000000;text-indent:0;text-transform:none;direction:ltr;baseline-shift:baseline;display:inline;overflow:visible;visibility:visible;fill:#000000;fill-opacity:1;stroke:none;enable-background:accumulate"
           marker="none"
           visibility="visible"
           display="inline"
           overflow="visible"
           id="path12-40"
           inkscape:connector-curvature="0" /><path
           d="m 45.625,13.4375 v 48 h 0.8125 v -48 z"
           style="color:#000000;text-indent:0;text-transform:none;direction:ltr;baseline-shift:baseline;display:inline;overflow:visible;visibility:visible;fill:#000000;fill-opacity:1;stroke:none;enable-background:accumulate"
           marker="none"
           visibility="visible"
           display="inline"
           overflow="visible"
           id="path14-8"
           inkscape:connector-curvature="0" /><path
           d="m 57.625,13.4375 v 48 h 0.8125 v -48 z"
           style="color:#000000;text-indent:0;text-transform:none;direction:ltr;baseline-shift:baseline;display:inline;overflow:visible;visibility:visible;fill:#000000;fill-opacity:1;stroke:none;enable-background:accumulate"
           marker="none"
           visibility="visible"
           display="inline"
           overflow="visible"
           id="path16-0"
           inkscape:connector-curvature="0" /><path
           d="m 69.625,13.4375 v 48 h 0.8125 v -48 z"
           style="color:#000000;text-indent:0;text-transform:none;direction:ltr;baseline-shift:baseline;display:inline;overflow:visible;visibility:visible;fill:#000000;fill-opacity:1;stroke:none;enable-background:accumulate"
           marker="none"
           visibility="visible"
           display="inline"
           overflow="visible"
           id="path18-59"
           inkscape:connector-curvature="0" /><path
           d="m 8.0304966,51.022419 h 3.9999984 c 0.664801,0 1.200001,0.5352 1.200001,1.200001 0,0.6648 -0.5352,1.200001 -1.200001,1.200001 H 8.0304966 c -0.6648004,0 -1.2000008,-0.535201 -1.2000008,-1.200001 0,-0.664801 0.5352004,-1.200001 1.2000008,-1.200001 z"
           style="fill:#000000;stroke:none"
           id="path20-0"
           inkscape:connector-curvature="0" /><path
           d="m 8.0304966,57.422413 h 3.9999984 c 0.664801,0 1.200001,0.5352 1.200001,1.200001 0,0.6648 -0.5352,1.2 -1.200001,1.2 H 8.0304966 c -0.6648004,0 -1.2000008,-0.5352 -1.2000008,-1.2 0,-0.664801 0.5352004,-1.200001 1.2000008,-1.200001 z"
           style="fill:#000000;stroke:none"
           id="path22-9"
           inkscape:connector-curvature="0" /><path
           d="m 8.0304966,54.222416 h 3.9999984 c 0.664801,0 1.200001,0.5352 1.200001,1.200001 0,0.6648 -0.5352,1.2 -1.200001,1.2 H 8.0304966 c -0.6648004,0 -1.2000008,-0.5352 -1.2000008,-1.2 0,-0.664801 0.5352004,-1.200001 1.2000008,-1.200001 z"
           style="fill:#000000;stroke:none"
           id="path24-1"
           inkscape:connector-curvature="0" /><path
           d="m 8.0304966,47.822422 h 3.9999984 c 0.664801,0 1.200001,0.5352 1.200001,1.200001 0,0.6648 -0.5352,1.200001 -1.200001,1.200001 H 8.0304966 c -0.6648004,0 -1.2000008,-0.535201 -1.2000008,-1.200001 0,-0.664801 0.5352004,-1.200001 1.2000008,-1.200001 z"
           style="fill:#000000;stroke:none"
           id="path26-8"
           inkscape:connector-curvature="0" /><path
           d="m 8.0304966,31.822435 h 3.9999984 c 0.664801,0 1.200001,0.535201 1.200001,1.200001 0,0.664801 -0.5352,1.200001 -1.200001,1.200001 H 8.0304966 c -0.6648004,0 -1.2000008,-0.5352 -1.2000008,-1.200001 0,-0.6648 0.5352004,-1.200001 1.2000008,-1.200001 z"
           style="fill:#000000;stroke:none"
           id="path28-2"
           inkscape:connector-curvature="0" /><path
           d="m 20.030495,51.022419 h 3.999998 c 0.664801,0 1.200001,0.5352 1.200001,1.200001 0,0.6648 -0.5352,1.200001 -1.200001,1.200001 h -3.999998 c -0.664801,0 -1.200001,-0.535201 -1.200001,-1.200001 0,-0.664801 0.5352,-1.200001 1.200001,-1.200001 z"
           style="fill:#000000;stroke:none"
           id="path30-8"
           inkscape:connector-curvature="0" /><path
           d="m 20.030495,57.422413 h 3.999998 c 0.664801,0 1.200001,0.5352 1.200001,1.200001 0,0.6648 -0.5352,1.2 -1.200001,1.2 h -3.999998 c -0.664801,0 -1.200001,-0.5352 -1.200001,-1.2 0,-0.664801 0.5352,-1.200001 1.200001,-1.200001 z"
           style="fill:#000000;stroke:none"
           id="path32-7"
           inkscape:connector-curvature="0" /><path
           d="m 20.030495,54.222416 h 3.999998 c 0.664801,0 1.200001,0.5352 1.200001,1.200001 0,0.6648 -0.5352,1.2 -1.200001,1.2 h -3.999998 c -0.664801,0 -1.200001,-0.5352 -1.200001,-1.2 0,-0.664801 0.5352,-1.200001 1.200001,-1.200001 z"
           style="fill:#000000;stroke:none"
           id="path34-6"
           inkscape:connector-curvature="0" /><path
           d="m 20.030495,38.222431 h 3.999998 c 0.664801,0 1.200001,0.535201 1.200001,1.200001 0,0.6648 -0.5352,1.200001 -1.200001,1.200001 h -3.999998 c -0.664801,0 -1.200001,-0.535201 -1.200001,-1.200001 0,-0.6648 0.5352,-1.200001 1.200001,-1.200001 z"
           style="fill:#000000;stroke:none"
           id="path36-8"
           inkscape:connector-curvature="0" /><path
           d="m 20.030495,35.022434 h 3.999998 c 0.664801,0 1.200001,0.535201 1.200001,1.200001 0,0.6648 -0.5352,1.200001 -1.200001,1.200001 h -3.999998 c -0.664801,0 -1.200001,-0.535201 -1.200001,-1.200001 0,-0.6648 0.5352,-1.200001 1.200001,-1.200001 z"
           style="fill:#000000;stroke:none"
           id="path38-4"
           inkscape:connector-curvature="0" /><path
           d="m 32.030495,51.022419 h 3.999998 c 0.664801,0 1.200001,0.5352 1.200001,1.200001 0,0.6648 -0.5352,1.200001 -1.200001,1.200001 h -3.999998 c -0.664801,0 -1.200001,-0.535201 -1.200001,-1.200001 0,-0.664801 0.5352,-1.200001 1.200001,-1.200001 z"
           style="fill:#000000;stroke:none"
           id="path40"
           inkscape:connector-curvature="0" /><path
           d="m 32.030495,57.422413 h 3.999998 c 0.664801,0 1.200001,0.5352 1.200001,1.200001 0,0.6648 -0.5352,1.2 -1.200001,1.2 h -3.999998 c -0.664801,0 -1.200001,-0.5352 -1.200001,-1.2 0,-0.664801 0.5352,-1.200001 1.200001,-1.200001 z"
           style="fill:#000000;stroke:none"
           id="path42"
           inkscape:connector-curvature="0" /><path
           d="m 32.030495,54.222416 h 3.999998 c 0.664801,0 1.200001,0.5352 1.200001,1.200001 0,0.6648 -0.5352,1.2 -1.200001,1.2 h -3.999998 c -0.664801,0 -1.200001,-0.5352 -1.200001,-1.2 0,-0.664801 0.5352,-1.200001 1.200001,-1.200001 z"
           style="fill:#000000;stroke:none"
           id="path44"
           inkscape:connector-curvature="0" /><path
           d="m 32.030495,47.822422 h 3.999998 c 0.664801,0 1.200001,0.5352 1.200001,1.200001 0,0.6648 -0.5352,1.200001 -1.200001,1.200001 h -3.999998 c -0.664801,0 -1.200001,-0.535201 -1.200001,-1.200001 0,-0.664801 0.5352,-1.200001 1.200001,-1.200001 z"
           style="fill:#000000;stroke:none"
           id="path46"
           inkscape:connector-curvature="0" /><path
           d="m 32.030495,44.622425 h 3.999998 c 0.664801,0 1.200001,0.5352 1.200001,1.200001 0,0.6648 -0.5352,1.200001 -1.200001,1.200001 h -3.999998 c -0.664801,0 -1.200001,-0.535201 -1.200001,-1.200001 0,-0.664801 0.5352,-1.200001 1.200001,-1.200001 z"
           style="fill:#000000;stroke:none"
           id="path48"
           inkscape:connector-curvature="0" /><path
           d="m 32.030495,31.822435 h 3.999998 c 0.664801,0 1.200001,0.535201 1.200001,1.200001 0,0.664801 -0.5352,1.200001 -1.200001,1.200001 h -3.999998 c -0.664801,0 -1.200001,-0.5352 -1.200001,-1.200001 0,-0.6648 0.5352,-1.200001 1.200001,-1.200001 z"
           style="fill:#000000;stroke:none"
           id="path50"
           inkscape:connector-curvature="0" /><path
           d="m 44.030495,51.022427 h 3.999998 c 0.664801,0 1.200001,0.5352 1.200001,1.2 0,0.664801 -0.5352,1.200001 -1.200001,1.200001 h -3.999998 c -0.664801,0 -1.200001,-0.5352 -1.200001,-1.200001 0,-0.6648 0.5352,-1.2 1.200001,-1.2 z"
           style="fill:#000000;stroke:none"
           id="path52"
           inkscape:connector-curvature="0" /><path
           d="m 44.030495,57.422421 h 3.999998 c 0.664801,0 1.200001,0.5352 1.200001,1.2 0,0.664801 -0.5352,1.200001 -1.200001,1.200001 h -3.999998 c -0.664801,0 -1.200001,-0.5352 -1.200001,-1.200001 0,-0.6648 0.5352,-1.2 1.200001,-1.2 z"
           style="fill:#000000;stroke:none"
           id="path54"
           inkscape:connector-curvature="0" /><path
           d="m 44.030495,54.222424 h 3.999998 c 0.664801,0 1.200001,0.5352 1.200001,1.2 0,0.664801 -0.5352,1.200001 -1.200001,1.200001 h -3.999998 c -0.664801,0 -1.200001,-0.5352 -1.200001,-1.200001 0,-0.6648 0.5352,-1.2 1.200001,-1.2 z"
           style="fill:#000000;stroke:none"
           id="path56"
           inkscape:connector-curvature="0" /><path
           d="m 44.030495,47.82243 h 3.999998 c 0.664801,0 1.200001,0.5352 1.200001,1.2 0,0.664801 -0.5352,1.200001 -1.200001,1.200001 h -3.999998 c -0.664801,0 -1.200001,-0.5352 -1.200001,-1.200001 0,-0.6648 0.5352,-1.2 1.200001,-1.2 z"
           style="fill:#000000;stroke:none"
           id="path58"
           inkscape:connector-curvature="0" /><path
           d="m 44.030495,44.622433 h 3.999998 c 0.664801,0 1.200001,0.5352 1.200001,1.2 0,0.664801 -0.5352,1.200001 -1.200001,1.200001 h -3.999998 c -0.664801,0 -1.200001,-0.5352 -1.200001,-1.200001 0,-0.6648 0.5352,-1.2 1.200001,-1.2 z"
           style="fill:#000000;stroke:none"
           id="path60"
           inkscape:connector-curvature="0" /><path
           d="m 44.030495,31.822443 h 3.999998 c 0.664801,0 1.200001,0.5352 1.200001,1.200001 0,0.6648 -0.5352,1.200001 -1.200001,1.200001 h -3.999998 c -0.664801,0 -1.200001,-0.535201 -1.200001,-1.200001 0,-0.664801 0.5352,-1.200001 1.200001,-1.200001 z"
           style="fill:#000000;stroke:none"
           id="path62"
           inkscape:connector-curvature="0" /><path
           d="m 56.030495,51.022427 h 3.999998 c 0.664801,0 1.200001,0.5352 1.200001,1.2 0,0.664801 -0.5352,1.200001 -1.200001,1.200001 h -3.999998 c -0.664801,0 -1.200001,-0.5352 -1.200001,-1.200001 0,-0.6648 0.5352,-1.2 1.200001,-1.2 z"
           style="fill:#000000;stroke:none"
           id="path64"
           inkscape:connector-curvature="0" /><path
           d="m 56.030495,57.422421 h 3.999998 c 0.664801,0 1.200001,0.5352 1.200001,1.2 0,0.664801 -0.5352,1.200001 -1.200001,1.200001 h -3.999998 c -0.664801,0 -1.200001,-0.5352 -1.200001,-1.200001 0,-0.6648 0.5352,-1.2 1.200001,-1.2 z"
           style="fill:#000000;stroke:none"
           id="path66"
           inkscape:connector-curvature="0" /><path
           d="m 56.030495,54.222424 h 3.999998 c 0.664801,0 1.200001,0.5352 1.200001,1.2 0,0.664801 -0.5352,1.200001 -1.200001,1.200001 h -3.999998 c -0.664801,0 -1.200001,-0.5352 -1.200001,-1.200001 0,-0.6648 0.5352,-1.2 1.200001,-1.2 z"
           style="fill:#000000;stroke:none"
           id="path68"
           inkscape:connector-curvature="0" /><path
           d="m 56.030495,47.82243 h 3.999998 c 0.664801,0 1.200001,0.5352 1.200001,1.2 0,0.664801 -0.5352,1.200001 -1.200001,1.200001 h -3.999998 c -0.664801,0 -1.200001,-0.5352 -1.200001,-1.200001 0,-0.6648 0.5352,-1.2 1.200001,-1.2 z"
           style="fill:#000000;stroke:none"
           id="path70"
           inkscape:connector-curvature="0" /><path
           d="m 56.030495,44.622433 h 3.999998 c 0.664801,0 1.200001,0.5352 1.200001,1.2 0,0.664801 -0.5352,1.200001 -1.200001,1.200001 h -3.999998 c -0.664801,0 -1.200001,-0.5352 -1.200001,-1.200001 0,-0.6648 0.5352,-1.2 1.200001,-1.2 z"
           style="fill:#000000;stroke:none"
           id="path72"
           inkscape:connector-curvature="0" /><path
           d="m 56.030495,44.622433 h 3.999998 c 0.664801,0 1.200001,0.5352 1.200001,1.2 0,0.664801 -0.5352,1.200001 -1.200001,1.200001 h -3.999998 c -0.664801,0 -1.200001,-0.5352 -1.200001,-1.200001 0,-0.6648 0.5352,-1.2 1.200001,-1.2 z"
           style="fill:#000000;stroke:none"
           id="path74"
           inkscape:connector-curvature="0" /><path
           d="m 68.030499,51.022427 h 3.999998 c 0.6648,0 1.200001,0.5352 1.200001,1.2 0,0.664801 -0.535201,1.200001 -1.200001,1.200001 h -3.999998 c -0.664801,0 -1.200001,-0.5352 -1.200001,-1.200001 0,-0.6648 0.5352,-1.2 1.200001,-1.2 z"
           style="fill:#000000;stroke:none"
           id="path76"
           inkscape:connector-curvature="0" /><path
           d="m 68.030499,57.422421 h 3.999998 c 0.6648,0 1.200001,0.5352 1.200001,1.2 0,0.664801 -0.535201,1.200001 -1.200001,1.200001 h -3.999998 c -0.664801,0 -1.200001,-0.5352 -1.200001,-1.200001 0,-0.6648 0.5352,-1.2 1.200001,-1.2 z"
           style="fill:#000000;stroke:none"
           id="path78"
           inkscape:connector-curvature="0" /><path
           d="m 68.030499,54.222424 h 3.999998 c 0.6648,0 1.200001,0.5352 1.200001,1.2 0,0.664801 -0.535201,1.200001 -1.200001,1.200001 h -3.999998 c -0.664801,0 -1.200001,-0.5352 -1.200001,-1.200001 0,-0.6648 0.5352,-1.2 1.200001,-1.2 z"
           style="fill:#000000;stroke:none"
           id="path80"
           inkscape:connector-curvature="0" /><path
           d="m 68.030499,47.82243 h 3.999998 c 0.6648,0 1.200001,0.5352 1.200001,1.2 0,0.664801 -0.535201,1.200001 -1.200001,1.200001 h -3.999998 c -0.664801,0 -1.200001,-0.5352 -1.200001,-1.200001 0,-0.6648 0.5352,-1.2 1.200001,-1.2 z"
           style="fill:#000000;stroke:none"
           id="path82"
           inkscape:connector-curvature="0" /><path
           d="m 68.030499,44.622433 h 3.999998 c 0.6648,0 1.200001,0.5352 1.200001,1.2 0,0.664801 -0.535201,1.200001 -1.200001,1.200001 h -3.999998 c -0.664801,0 -1.200001,-0.5352 -1.200001,-1.200001 0,-0.6648 0.5352,-1.2 1.200001,-1.2 z"
           style="fill:#000000;stroke:none"
           id="path84"
           inkscape:connector-curvature="0" /><path
           d="m 68.030499,44.622433 h 3.999998 c 0.6648,0 1.200001,0.5352 1.200001,1.2 0,0.664801 -0.535201,1.200001 -1.200001,1.200001 h -3.999998 c -0.664801,0 -1.200001,-0.5352 -1.200001,-1.200001 0,-0.6648 0.5352,-1.2 1.200001,-1.2 z"
           style="fill:#000000;stroke:none"
           id="path86"
           inkscape:connector-curvature="0" /><path
           d="m 8.0304966,25.422421 h 3.9999984 c 0.664801,0 1.200001,0.5352 1.200001,1.2 0,0.664801 -0.5352,1.200001 -1.200001,1.200001 H 8.0304966 c -0.6648004,0 -1.2000008,-0.5352 -1.2000008,-1.200001 0,-0.6648 0.5352004,-1.2 1.2000008,-1.2 z"
           style="fill:#000000;stroke:none"
           id="path88"
           inkscape:connector-curvature="0" /><path
           d="m 8.0304966,15.822421 h 3.9999984 c 0.664801,0 1.200001,0.5352 1.200001,1.200001 0,0.6648 -0.5352,1.200001 -1.200001,1.200001 H 8.0304966 c -0.6648004,0 -1.2000008,-0.535201 -1.2000008,-1.200001 0,-0.664801 0.5352004,-1.200001 1.2000008,-1.200001 z"
           style="fill:#000000;stroke:none"
           id="path90"
           inkscape:connector-curvature="0" /><path
           d="m 20.030495,25.422421 h 3.999998 c 0.664801,0 1.200001,0.5352 1.200001,1.2 0,0.664801 -0.5352,1.200001 -1.200001,1.200001 h -3.999998 c -0.664801,0 -1.200001,-0.5352 -1.200001,-1.200001 0,-0.6648 0.5352,-1.2 1.200001,-1.2 z"
           style="fill:#000000;stroke:none"
           id="path92"
           inkscape:connector-curvature="0" /><path
           d="m 20.030495,22.222424 h 3.999998 c 0.664801,0 1.200001,0.5352 1.200001,1.2 0,0.664801 -0.5352,1.200001 -1.200001,1.200001 h -3.999998 c -0.664801,0 -1.200001,-0.5352 -1.200001,-1.200001 0,-0.6648 0.5352,-1.2 1.200001,-1.2 z"
           style="fill:#000000;stroke:none"
           id="path94"
           inkscape:connector-curvature="0" /><path
           d="m 20.030495,22.222424 h 3.999998 c 0.664801,0 1.200001,0.5352 1.200001,1.2 0,0.664801 -0.5352,1.200001 -1.200001,1.200001 h -3.999998 c -0.664801,0 -1.200001,-0.5352 -1.200001,-1.200001 0,-0.6648 0.5352,-1.2 1.200001,-1.2 z"
           style="fill:#000000;stroke:none"
           id="path96"
           inkscape:connector-curvature="0" /><path
           d="m 32.030495,25.422421 h 3.999998 c 0.664801,0 1.200001,0.5352 1.200001,1.2 0,0.664801 -0.5352,1.200001 -1.200001,1.200001 h -3.999998 c -0.664801,0 -1.200001,-0.5352 -1.200001,-1.200001 0,-0.6648 0.5352,-1.2 1.200001,-1.2 z"
           style="fill:#000000;stroke:none"
           id="path98"
           inkscape:connector-curvature="0" /><path
           d="m 32.030495,22.222424 h 3.999998 c 0.664801,0 1.200001,0.5352 1.200001,1.2 0,0.664801 -0.5352,1.200001 -1.200001,1.200001 h -3.999998 c -0.664801,0 -1.200001,-0.5352 -1.200001,-1.200001 0,-0.6648 0.5352,-1.2 1.200001,-1.2 z"
           style="fill:#000000;stroke:none"
           id="path100"
           inkscape:connector-curvature="0" /><path
           d="m 32.030495,22.222424 h 3.999998 c 0.664801,0 1.200001,0.5352 1.200001,1.2 0,0.664801 -0.5352,1.200001 -1.200001,1.200001 h -3.999998 c -0.664801,0 -1.200001,-0.5352 -1.200001,-1.200001 0,-0.6648 0.5352,-1.2 1.200001,-1.2 z"
           style="fill:#000000;stroke:none"
           id="path102"
           inkscape:connector-curvature="0" /><path
           d="m 44.030495,25.422421 h 3.999998 c 0.664801,0 1.200001,0.5352 1.200001,1.2 0,0.664801 -0.5352,1.200001 -1.200001,1.200001 h -3.999998 c -0.664801,0 -1.200001,-0.5352 -1.200001,-1.200001 0,-0.6648 0.5352,-1.2 1.200001,-1.2 z"
           style="fill:#000000;stroke:none"
           id="path104"
           inkscape:connector-curvature="0" /><path
           d="m 44.030495,22.222424 h 3.999998 c 0.664801,0 1.200001,0.5352 1.200001,1.2 0,0.664801 -0.5352,1.200001 -1.200001,1.200001 h -3.999998 c -0.664801,0 -1.200001,-0.5352 -1.200001,-1.200001 0,-0.6648 0.5352,-1.2 1.200001,-1.2 z"
           style="fill:#000000;stroke:none"
           id="path106"
           inkscape:connector-curvature="0" /><path
           d="m 44.030495,22.222424 h 3.999998 c 0.664801,0 1.200001,0.5352 1.200001,1.2 0,0.664801 -0.5352,1.200001 -1.200001,1.200001 h -3.999998 c -0.664801,0 -1.200001,-0.5352 -1.200001,-1.200001 0,-0.6648 0.5352,-1.2 1.200001,-1.2 z"
           style="fill:#000000;stroke:none"
           id="path108"
           inkscape:connector-curvature="0" /><path
           d="m 56.030495,25.422421 h 3.999998 c 0.664801,0 1.200001,0.5352 1.200001,1.2 0,0.664801 -0.5352,1.200001 -1.200001,1.200001 h -3.999998 c -0.664801,0 -1.200001,-0.5352 -1.200001,-1.200001 0,-0.6648 0.5352,-1.2 1.200001,-1.2 z"
           style="fill:#000000;stroke:none"
           id="path110"
           inkscape:connector-curvature="0" /><path
           d="m 56.030495,22.222424 h 3.999998 c 0.664801,0 1.200001,0.5352 1.200001,1.2 0,0.664801 -0.5352,1.200001 -1.200001,1.200001 h -3.999998 c -0.664801,0 -1.200001,-0.5352 -1.200001,-1.200001 0,-0.6648 0.5352,-1.2 1.200001,-1.2 z"
           style="fill:#000000;stroke:none"
           id="path112"
           inkscape:connector-curvature="0" /><path
           d="m 56.030495,22.222424 h 3.999998 c 0.664801,0 1.200001,0.5352 1.200001,1.2 0,0.664801 -0.5352,1.200001 -1.200001,1.200001 h -3.999998 c -0.664801,0 -1.200001,-0.5352 -1.200001,-1.200001 0,-0.6648 0.5352,-1.2 1.200001,-1.2 z"
           style="fill:#000000;stroke:none"
           id="path114"
           inkscape:connector-curvature="0" /><path
           d="m 68.030499,25.422421 h 3.999998 c 0.6648,0 1.200001,0.5352 1.200001,1.2 0,0.664801 -0.535201,1.200001 -1.200001,1.200001 h -3.999998 c -0.664801,0 -1.200001,-0.5352 -1.200001,-1.200001 0,-0.6648 0.5352,-1.2 1.200001,-1.2 z"
           style="fill:#000000;stroke:none"
           id="path116"
           inkscape:connector-curvature="0" /><path
           d="m 68.030499,22.222424 h 3.999998 c 0.6648,0 1.200001,0.5352 1.200001,1.2 0,0.664801 -0.535201,1.200001 -1.200001,1.200001 h -3.999998 c -0.664801,0 -1.200001,-0.5352 -1.200001,-1.200001 0,-0.6648 0.5352,-1.2 1.200001,-1.2 z"
           style="fill:#000000;stroke:none"
           id="path118"
           inkscape:connector-curvature="0" /><path
           d="m 68.030499,22.222424 h 3.999998 c 0.6648,0 1.200001,0.5352 1.200001,1.2 0,0.664801 -0.535201,1.200001 -1.200001,1.200001 h -3.999998 c -0.664801,0 -1.200001,-0.5352 -1.200001,-1.200001 0,-0.6648 0.5352,-1.2 1.200001,-1.2 z"
           style="fill:#000000;stroke:none"
           id="path120"
           inkscape:connector-curvature="0" /><path
           d="m 68.030499,25.422421 h 3.999998 c 0.6648,0 1.200001,0.5352 1.200001,1.2 0,0.664801 -0.535201,1.200001 -1.200001,1.200001 h -3.999998 c -0.664801,0 -1.200001,-0.5352 -1.200001,-1.200001 0,-0.6648 0.5352,-1.2 1.200001,-1.2 z"
           style="fill:#000000;stroke:none"
           id="path122"
           inkscape:connector-curvature="0" /><path
           d="m 68.030499,22.222424 h 3.999998 c 0.6648,0 1.200001,0.5352 1.200001,1.2 0,0.664801 -0.535201,1.200001 -1.200001,1.200001 h -3.999998 c -0.664801,0 -1.200001,-0.5352 -1.200001,-1.200001 0,-0.6648 0.5352,-1.2 1.200001,-1.2 z"
           style="fill:#000000;stroke:none"
           id="path124"
           inkscape:connector-curvature="0" /><path
           d="m 68.030499,22.222424 h 3.999998 c 0.6648,0 1.200001,0.5352 1.200001,1.2 0,0.664801 -0.535201,1.200001 -1.200001,1.200001 h -3.999998 c -0.664801,0 -1.200001,-0.5352 -1.200001,-1.200001 0,-0.6648 0.5352,-1.2 1.200001,-1.2 z"
           style="fill:#000000;stroke:none"
           id="path126"
           inkscape:connector-curvature="0" /></g><rect
         style="fill:#000000;fill-opacity:1;stroke:none"
         width="0.68622589"
         height="3.0992403"
         x="41.501637"
         y="22.161692"
         ry="0.36803478"
         id="rect130" /><rect
         ry="0.34560683"
         y="21.353209"
         x="44.951035"
         height="3.8629982"
         width="0.70419365"
         style="fill:#000000;fill-opacity:1;stroke:none"
         id="rect132" /><rect
         style="fill:#000000;fill-opacity:1;stroke:none"
         width="0.33833045"
         height="4.85781"
         x="43.452076"
         y="20.380264"
         ry="0.22583699"
         id="rect134" /><path
         style="fill:#000000;fill-opacity:1;stroke:none"
         d="m -6.9949527,23.06143 a 8.4466715,8.2944794 0 1 1 -0.00589,0.309753"
         transform="matrix(0.86557923,0,0,0.8814555,38.009518,-12.75735)"
         id="path136"
         inkscape:connector-curvature="0" /></g></g></g></svg>