<?xml version="1.0" encoding="UTF-8" standalone="no"?>
<!-- Generator: Adobe Illustrator 11.0, SVG Export Plug-In  -->

<!-- hand edited from http://commons.wikimedia.org/wiki/Image:1_9_2_44.svg -->

<svg
   xmlns:dc="http://purl.org/dc/elements/1.1/"
   xmlns:cc="http://creativecommons.org/ns#"
   xmlns:rdf="http://www.w3.org/1999/02/22-rdf-syntax-ns#"
   xmlns:svg="http://www.w3.org/2000/svg"
   xmlns="http://www.w3.org/2000/svg"
   xmlns:sodipodi="http://sodipodi.sourceforge.net/DTD/sodipodi-0.dtd"
   xmlns:inkscape="http://www.inkscape.org/namespaces/inkscape"
   width="50"
   height="50"
   viewBox="140 90 33.75 33.75"
   xml:space="preserve"
   id="svg2"
   version="1.0"
   sodipodi:docname="N_Administrative.svg"
   inkscape:version="0.92.3 (unknown)"><title
   id="title989">NACE Section N Classification Visual</title><defs
   id="defs5729"><filter
     style="color-interpolation-filters:sRGB"
     inkscape:label="Cross-smooth"
     id="filter4556"><feGaussianBlur
       in="SourceGraphic"
       stdDeviation="10"
       result="blur1"
       id="feGaussianBlur4540" /><feComposite
       in="blur1"
       in2="blur1"
       operator="in"
       result="composite1"
       id="feComposite4542" /><feComposite
       k4="0"
       k3="0"
       k1="0"
       in="composite1"
       in2="composite1"
       k2="1"
       operator="arithmetic"
       result="composite2"
       id="feComposite4544" /><feColorMatrix
       in="composite2"
       values="1 0 0 0 0 0 1 0 0 0 0 0 1 0 0 0 0 0 10 0 "
       result="colormatrix1"
       id="feColorMatrix4546" /><feGaussianBlur
       stdDeviation="1"
       result="blur2"
       id="feGaussianBlur4548" /><feColorMatrix
       in="blur2"
       values="1 0 0 0 0 0 1 0 0 0 0 0 1 0 0 0 0 0 5 -1 "
       result="colormatrix2"
       id="feColorMatrix4550" /><feBlend
       in="SourceGraphic"
       in2="colormatrix2"
       stdDeviation="17"
       mode="normal"
       result="blend"
       id="feBlend4552" /><feComposite
       in="blend"
       in2="colormatrix2"
       operator="in"
       result="composite3"
       id="feComposite4554" /></filter></defs><sodipodi:namedview
   pagecolor="#ffffff"
   bordercolor="#666666"
   borderopacity="1"
   objecttolerance="10"
   gridtolerance="10"
   guidetolerance="10"
   inkscape:pageopacity="0"
   inkscape:pageshadow="2"
   inkscape:window-width="1853"
   inkscape:window-height="1021"
   id="namedview5727"
   showgrid="false"
   inkscape:zoom="2.36"
   inkscape:cx="-187.18221"
   inkscape:cy="-20.338978"
   inkscape:window-x="0"
   inkscape:window-y="0"
   inkscape:window-maximized="0"
   inkscape:current-layer="g11986" /><metadata
   id="metadata19"><rdf:RDF><cc:Work
       rdf:about=""><cc:license
         rdf:resource="http://creativecommons.org/licenses/by-sa/2.5/" /><dc:format>image/svg+xml</dc:format><dc:type
         rdf:resource="http://purl.org/dc/dcmitype/StillImage" /><dc:title>NACE Section N Classification Visual</dc:title><dc:creator><cc:Agent><dc:title>Open Risk</dc:title></cc:Agent></dc:creator><dc:publisher><cc:Agent><dc:title>https://www.openriskmanagement.com</dc:title></cc:Agent></dc:publisher><dc:identifier>N_Administrative_Square</dc:identifier><dc:date>2018</dc:date><dc:rights><cc:Agent><dc:title>Creative Commons Attribution + Share-Alike  (CC-BY-SA)</dc:title></cc:Agent></dc:rights><dc:description>Person with headset as representative of administrative and support service activities</dc:description></cc:Work><cc:License
       rdf:about="http://creativecommons.org/licenses/by-sa/2.5/"><cc:permits
         rdf:resource="http://web.resource.org/cc/Reproduction" /><cc:permits
         rdf:resource="http://web.resource.org/cc/Distribution" /><cc:requires
         rdf:resource="http://web.resource.org/cc/Notice" /><cc:requires
         rdf:resource="http://web.resource.org/cc/Attribution" /><cc:permits
         rdf:resource="http://web.resource.org/cc/DerivativeWorks" /><cc:requires
         rdf:resource="http://web.resource.org/cc/ShareAlike" /></cc:License></rdf:RDF></metadata>
	
<g
   id="g11986"
   transform="matrix(0.14398343,0,0,0.15557073,109.34664,83.778741)"><g
     transform="matrix(5.2089327,0,0,4.8209582,-140.65175,-523.16547)"
     id="g2943"><rect
       ry="3.5956879"
       rx="3.2442858"
       y="118.14967"
       x="69.443069"
       height="42.857143"
       width="42.857143"
       id="rect21547-2-2-4-6-4-2-9-3-8-2-4-4-3"
       style="opacity:1;fill:#ffffff;fill-opacity:1;stroke:#000000;stroke-width:2.14285707;stroke-miterlimit:4;stroke-dasharray:none;stroke-dashoffset:0;stroke-opacity:1" /><path
       sodipodi:nodetypes="scccsccccccccccccccccccccccccccccscccccccssscscssccccccccccsccccscccccccccccccccccsssscccccccccccccccccccccccccccccccccccccccc"
       style="stroke-width:0.38076472"
       id="path2-89"
       d="m 89.560692,139.21653 c 0,0.41882 0.30462,0.79959 0.72345,0.87574 -0.41883,-0.0761 -0.72345,-0.45692 -0.72345,-0.87574 -0.0381,-0.41886 0.30462,-0.79962 0.72345,-0.87577 -0.41883,0.0761 -0.72345,0.45691 -0.72345,0.87577 z m 2.47497,-0.60924 c -0.11427,-0.11426 -0.30461,-0.22846 -0.495,-0.26653 0.19039,0.0381 0.3427,0.11426 0.495,0.26653 z m 1.86575,-0.95191 v 0 l -1.90383,0.95191 v 0 z m 0.64729,0.95191 -2.66534,1.33268 -0.0381,0.0381 c 0.0381,0 0.0761,0 0.0761,-0.0381 z m 2.81767,-1.40883 -2.81767,1.40883 -2.66534,1.33268 c 0,0 -0.0381,0 -0.0761,0.0381 0.0381,0 0.0381,0 0.0381,-0.0381 l 2.66535,-1.33268 z m -5.36879,1.40883 c -0.11427,-0.11426 -0.3046,-0.22846 -0.45692,-0.26653 0.19039,0.0381 0.3427,0.11426 0.45692,0.26653 z m 10.432958,6.66339 v 0.1523 c -0.0761,8.07222 0.0186,12.58357 0.0186,12.58357 l -22.179277,-0.18898 c 0,0 2.09e-4,-4.32237 -0.07594,-12.39459 v -0.1523 c 0,-1.97999 -0.22846,-3.38882 3.7315,-4.45496 0.34268,-0.11426 1.25651,-0.49499 1.56113,-0.60922 l 2.77958,-1.71343 c 0.30461,-0.45692 0.495,-0.95191 0.6473,-1.37075 -0.30462,-0.22846 -0.6473,-0.495 -1.06614,-0.83769 -1.40883,-1.1423 -1.10423,-1.9419 -1.48499,-3.08419 -0.1523,0.26654 -0.34268,0.22846 -0.60921,0.0381 -0.41884,0.38075 -0.95192,0.57113 -1.52307,0.57113 -1.25652,0 -2.28459,-1.02805 -2.28459,-2.2465 v -1.56114 c 0,-1.06613 0.72345,-1.94189 1.71345,-2.20843 0.22846,-4.34072 3.12226,-7.04416 7.69144,-7.04416 4.56918,0 7.463,2.70344 7.65338,7.12031 0.95191,0.26653 1.675347,1.14229 1.675347,2.17036 v 1.56113 c 0,1.06614 -0.723437,1.9419 -1.713427,2.17036 v 0.19039 l -0.41884,1.78959 c -0.11426,0.57114 -0.60923,1.18038 -1.14229,1.40883 v 0 0 l -2.81767,1.40882 -2.66535,1.33268 -0.0381,0.0381 h -0.0761 -0.0381 c -0.0381,0 -0.0761,0 -0.15231,0.0381 -0.19038,0.0381 -0.53306,0.0381 -1.1423,0.11426 v 0 h -0.1523 c -0.41884,-0.0761 -0.72345,-0.45691 -0.72345,-0.87574 0,-0.41885 0.30461,-0.79961 0.72345,-0.87577 h 0.1523 0.91384 0.19038 c 0.19039,0.0381 0.34269,0.11427 0.45692,0.26654 v 0 0 l 1.90382,-0.95207 2.96997,-1.48498 c 0.22846,-0.11426 0.45692,-0.41884 0.53307,-0.6473 l 0.38076,-1.75152 c -0.34269,-0.0761 -0.68537,-0.26653 -0.95191,-0.49499 -0.22846,0.22846 -0.45692,0.26653 -0.60922,0 -0.34269,1.1423 -0.0761,1.9419 -1.48499,3.08419 -0.41884,0.30462 -0.72345,0.60922 -1.06613,0.83768 0.0381,0.0761 0.0381,0.15231 0.0761,0.22846 l -1.75152,0.83769 c -0.19038,-0.15232 -0.41884,-0.22846 -0.68538,-0.22846 h -0.91383 c -0.6473,0 -1.18038,0.53306 -1.18038,1.18037 0,0.64729 0.53308,1.18036 1.18038,1.18036 h 0.0381 c 1.25653,-0.0761 1.44691,-0.1523 1.52306,-0.19038 l 2.81766,-1.40883 2.32267,1.44691 c 0.30461,0.11427 1.18037,0.49498 1.56113,0.60922 3.959957,1.02806 3.731497,2.43689 3.731497,4.41688 z m -4.074178,-12.22254 c 0.87576,0.3046 1.865738,-0.3427 1.979968,-1.52307 0.0381,-0.45692 0.0381,-0.95192 0,-1.40883 -0.0761,-1.1423 -1.104208,-1.82767 -1.979968,-1.52306 0.45692,1.44691 0.45692,2.96997 0,4.45496 z m -3.35074,-10.12835 c 1.18037,0.7996 2.17037,2.24651 2.24651,4.6834 0,0.15232 0,0.30462 0.0381,0.45692 0.30461,-0.1523 0.60923,-0.26653 0.95191,-0.26653 -0.1523,-2.5892 -1.29459,-4.15033 -3.2365,-4.87379 z m -10.77564,5.67339 c -0.87576,-0.30461 -1.86574,0.3427 -1.97997,1.52306 -0.0381,0.45691 -0.0381,0.95191 0,1.40883 0.0761,1.14229 1.10421,1.82767 1.97997,1.52307 -0.45692,-1.48499 -0.45692,-3.00805 0,-4.45496 z m 3.31266,-5.63531 c -1.86575,0.76152 -2.96997,2.32267 -3.0842,4.83571 0.34269,0.0381 0.64731,0.11427 0.91383,0.26653 0,-0.1523 0,-0.3046 0.0381,-0.45692 0.0381,-2.43689 0.98999,-3.80764 2.13229,-4.64532 z m 4.49302,15.64942 v 0 c -0.1523,-0.11426 -0.30461,-0.22846 -0.495,-0.26653 0.19039,0.0381 0.3427,0.11426 0.495,0.26653 z m 5.33071,-1.40883 -2.81767,1.40883 -2.66534,1.33268 c 0,0 -0.0381,0 -0.0761,0.0381 0.0381,0 0.0381,0 0.0381,-0.0381 l 2.66535,-1.33268 z"
       inkscape:connector-curvature="0" /></g></g></svg>