<?xml version="1.0" encoding="UTF-8" standalone="no"?>
<!-- Generator: Adobe Illustrator 11.0, SVG Export Plug-In  -->

<!-- hand edited from http://commons.wikimedia.org/wiki/Image:1_9_2_44.svg -->

<svg
   xmlns:dc="http://purl.org/dc/elements/1.1/"
   xmlns:cc="http://creativecommons.org/ns#"
   xmlns:rdf="http://www.w3.org/1999/02/22-rdf-syntax-ns#"
   xmlns:svg="http://www.w3.org/2000/svg"
   xmlns="http://www.w3.org/2000/svg"
   xmlns:sodipodi="http://sodipodi.sourceforge.net/DTD/sodipodi-0.dtd"
   xmlns:inkscape="http://www.inkscape.org/namespaces/inkscape"
   width="50"
   height="50"
   viewBox="140 90 33.75 33.75"
   xml:space="preserve"
   id="svg2"
   version="1.0"
   sodipodi:docname="P_Education.svg"
   inkscape:version="0.92.3 (unknown)"><title
   id="title989">NACE Section P Classification Visual</title><defs
   id="defs5729" /><sodipodi:namedview
   pagecolor="#ffffff"
   bordercolor="#666666"
   borderopacity="1"
   objecttolerance="10"
   gridtolerance="10"
   guidetolerance="10"
   inkscape:pageopacity="0"
   inkscape:pageshadow="2"
   inkscape:window-width="1853"
   inkscape:window-height="1021"
   id="namedview5727"
   showgrid="false"
   inkscape:zoom="2.36"
   inkscape:cx="-187.18221"
   inkscape:cy="-20.338978"
   inkscape:window-x="0"
   inkscape:window-y="0"
   inkscape:window-maximized="0"
   inkscape:current-layer="g11986" /><metadata
   id="metadata19"><rdf:RDF><cc:Work
       rdf:about=""><cc:license
         rdf:resource="http://creativecommons.org/licenses/by-sa/2.5/" /><dc:format>image/svg+xml</dc:format><dc:type
         rdf:resource="http://purl.org/dc/dcmitype/StillImage" /><dc:title>NACE Section P Classification Visual</dc:title><dc:creator><cc:Agent><dc:title>Open Risk</dc:title></cc:Agent></dc:creator><dc:publisher><cc:Agent><dc:title>https://www.openriskmanagement.com</dc:title></cc:Agent></dc:publisher><dc:identifier>P_Education_Square</dc:identifier><dc:date>2018</dc:date><dc:rights><cc:Agent><dc:title>Creative Commons Attribution + Share-Alike  (CC-BY-SA)</dc:title></cc:Agent></dc:rights><dc:description>Person pointing at blackboard and sitting pupils as representative of the education sector</dc:description></cc:Work><cc:License
       rdf:about="http://creativecommons.org/licenses/by-sa/2.5/"><cc:permits
         rdf:resource="http://web.resource.org/cc/Reproduction" /><cc:permits
         rdf:resource="http://web.resource.org/cc/Distribution" /><cc:requires
         rdf:resource="http://web.resource.org/cc/Notice" /><cc:requires
         rdf:resource="http://web.resource.org/cc/Attribution" /><cc:permits
         rdf:resource="http://web.resource.org/cc/DerivativeWorks" /><cc:requires
         rdf:resource="http://web.resource.org/cc/ShareAlike" /></cc:License></rdf:RDF></metadata>
	
<g
   id="g11986"
   transform="matrix(0.14398343,0,0,0.15557073,109.34664,83.778741)"><g
     id="g2995"
     transform="matrix(5.2089327,0,0,4.8209582,-534.64117,-843.45081)"><rect
       ry="3.5956879"
       rx="3.2442858"
       y="184.96706"
       x="145.08034"
       height="42.857143"
       width="42.857143"
       id="rect21547-2-2-4-6-4-2-9-3-8-2-4-4-3-3-4"
       style="opacity:1;fill:#ffffff;fill-opacity:1;stroke:#000000;stroke-width:2.14285707;stroke-miterlimit:4;stroke-dasharray:none;stroke-dashoffset:0;stroke-opacity:1" /><g
       id="g855"
       transform="matrix(1.4150043,0,0,1.4150043,159.8348,162.79908)"><g
         id="g4"
         transform="translate(0,2)"><circle
           cx="4.5"
           cy="34.5"
           r="2"
           id="circle6" /><path
           d="m 6.5,37.5 h -3 c -1.1,0 -2,0.9 -2,2 v 1 h 7 v -1 c 0,-1.1 -0.9,-2 -2,-2 z"
           id="path8-8"
           inkscape:connector-curvature="0" /><circle
           cx="12.5"
           cy="34.5"
           r="2"
           id="circle10" /><path
           d="m 16.5,39.5 c 0,-1.1 -0.9,-2 -2,-2 h -3 c -1.1,0 -2,0.9 -2,2 v 1 h 7 z"
           id="path12-37"
           inkscape:connector-curvature="0" /><circle
           cx="-3.5"
           cy="34.5"
           r="2"
           id="circle14" /><path
           d="m -1.5,37.5 h -3 c -1.1,0 -2,0.9 -2,2 v 1 h 7 v -1 c 0,-1.1 -0.9,-2 -2,-2 z"
           id="path16-07"
           inkscape:connector-curvature="0" /></g><g
         id="g18"
         transform="translate(0,2)"><circle
           cx="-3.5"
           cy="20.5"
           r="2"
           id="circle20" /><path
           d="m -4.5,23.5 c -1.1,0 -2,0.9 -2,2 v 6 h 6 v -6 h 3 v -2 z"
           id="path22-1"
           inkscape:connector-curvature="0" /><path
           d="m 14.5,18.5 c -0.1,0 -10.9,0 -11,0 -0.6,0 -1,0.4 -1,1 0,0.1 0,2 0,4 h 2 v 0 c 0.1,0 0.3,0 0.4,0.1 L 8.2,21.1 C 8.4,20.9 8.7,21 8.9,21.2 9.1,21.4 9,21.7 8.8,21.9 l -3.3,2.5 c 0,0 0,0.1 0,0.1 0,0.6 -0.4,1 -1,1 v 0 h -2 c 0,1.1 0,2 0,2 0,0.6 0.4,1 1,1 0.1,0 0.8,0 1,0 0,-0.6 0.4,-1 1,-1 h 2 c 0.6,0 1,0.4 1,1 0,0 5.9,0 6,0 0.6,0 1,-0.4 1,-1 0,-0.1 0,-7.9 0,-8 0,-0.6 -0.4,-1 -1,-1 z"
           id="path24-9"
           inkscape:connector-curvature="0" /></g></g></g></g></svg>