<?xml version="1.0" encoding="UTF-8" standalone="no"?>
<!-- Generator: Adobe Illustrator 11.0, SVG Export Plug-In  -->

<!-- hand edited from http://commons.wikimedia.org/wiki/Image:1_9_2_44.svg -->

<svg
   xmlns:dc="http://purl.org/dc/elements/1.1/"
   xmlns:cc="http://creativecommons.org/ns#"
   xmlns:rdf="http://www.w3.org/1999/02/22-rdf-syntax-ns#"
   xmlns:svg="http://www.w3.org/2000/svg"
   xmlns="http://www.w3.org/2000/svg"
   xmlns:sodipodi="http://sodipodi.sourceforge.net/DTD/sodipodi-0.dtd"
   xmlns:inkscape="http://www.inkscape.org/namespaces/inkscape"
   width="50"
   height="50"
   viewBox="140 90 33.75 33.75"
   xml:space="preserve"
   id="svg2"
   version="1.0"
   sodipodi:docname="R_Recreation.svg"
   inkscape:version="0.92.3 (unknown)"><title
   id="title989">NACE Section R Classification Visual</title><defs
   id="defs5729" /><sodipodi:namedview
   pagecolor="#ffffff"
   bordercolor="#666666"
   borderopacity="1"
   objecttolerance="10"
   gridtolerance="10"
   guidetolerance="10"
   inkscape:pageopacity="0"
   inkscape:pageshadow="2"
   inkscape:window-width="1853"
   inkscape:window-height="1021"
   id="namedview5727"
   showgrid="false"
   inkscape:zoom="2.36"
   inkscape:cx="-187.18221"
   inkscape:cy="-20.338978"
   inkscape:window-x="0"
   inkscape:window-y="0"
   inkscape:window-maximized="0"
   inkscape:current-layer="g11986" /><metadata
   id="metadata19"><rdf:RDF><cc:Work
       rdf:about=""><cc:license
         rdf:resource="http://creativecommons.org/licenses/by-sa/2.5/" /><dc:format>image/svg+xml</dc:format><dc:type
         rdf:resource="http://purl.org/dc/dcmitype/StillImage" /><dc:title>NACE Section R Classification Visual</dc:title><dc:creator><cc:Agent><dc:title>Open Risk</dc:title></cc:Agent></dc:creator><dc:publisher><cc:Agent><dc:title>https://www.openriskmanagement.com</dc:title></cc:Agent></dc:publisher><dc:identifier>R_Recreation_Square</dc:identifier><dc:date>2018</dc:date><dc:rights><cc:Agent><dc:title>Creative Commons Attribution + Share-Alike  (CC-BY-SA)</dc:title></cc:Agent></dc:rights><dc:description>People sitting in front of a screen as representative of the arts, entertainment and recreation sectors</dc:description></cc:Work><cc:License
       rdf:about="http://creativecommons.org/licenses/by-sa/2.5/"><cc:permits
         rdf:resource="http://web.resource.org/cc/Reproduction" /><cc:permits
         rdf:resource="http://web.resource.org/cc/Distribution" /><cc:requires
         rdf:resource="http://web.resource.org/cc/Notice" /><cc:requires
         rdf:resource="http://web.resource.org/cc/Attribution" /><cc:permits
         rdf:resource="http://web.resource.org/cc/DerivativeWorks" /><cc:requires
         rdf:resource="http://web.resource.org/cc/ShareAlike" /></cc:License></rdf:RDF></metadata>
	
<g
   id="g11986"
   transform="matrix(0.14398343,0,0,0.15557073,109.34664,83.778741)"><g
     transform="matrix(5.2089327,0,0,4.8209582,-996.84795,-844.00091)"
     id="g3061"><rect
       ry="3.5956879"
       rx="3.2442858"
       y="184.6998"
       x="233.81383"
       height="42.857143"
       width="42.857143"
       id="rect21547-2-2-4-6-4-2-9-3-8-2-4-4-3-3-4-8-8"
       style="opacity:1;fill:#ffffff;fill-opacity:1;stroke:#000000;stroke-width:2.14285707;stroke-miterlimit:4;stroke-dasharray:none;stroke-dashoffset:0;stroke-opacity:1" /><g
       transform="matrix(0.36400949,0,0,0.36400949,233.57538,181.88753)"
       id="g865"><path
         inkscape:connector-curvature="0"
         id="path6-6"
         d="m 18.297,59.27 c -0.875,-5.711 7.328,-7.445 8.641,-1.609 l 2.25,11.156 8.352,0.023 c 2.438,0 3.711,1.93 3.711,3.758 v 15.156 c 0,3.688 -5.25,3.664 -5.25,-0.07 0,-3.469 0,-11.789 0,-11.789 H 25.328 c -2.492,0 -4.055,-1.703 -4.445,-3.656 z" /><polygon
         id="polygon8-1"
         points="14.734,19.379 14.734,24.824 105.07,54.879 105.094,19.379 " /><path
         inkscape:connector-curvature="0"
         id="path10-7"
         d="m 22.203,53.121 c 2.711,0 4.93,-2.203 4.93,-4.906 0.031,-2.711 -2.172,-4.938 -4.906,-4.938 -2.711,-0.023 -4.93,2.172 -4.93,4.883 -0.024,2.735 2.172,4.938 4.906,4.961 z" /><path
         inkscape:connector-curvature="0"
         id="path12-8"
         d="m 12.805,65.176 c -0.586,-3.172 3.562,-3.93 4.148,-0.75 l 1.836,9.93 c 0.414,2.07 1.93,3.828 4.102,4.492 0.656,0.195 1.344,0.219 2,0.266 l 6.031,0.023 c 3.195,-0.023 3.195,4.203 -0.023,4.203 l -6.352,-0.023 c -0.977,0 -1.953,-0.148 -2.93,-0.445 -3.734,-1.117 -6.344,-4.195 -7.031,-7.789 z" /><path
         inkscape:connector-curvature="0"
         id="path14-2"
         d="m 50.82,69.895 c -0.883,-5.695 7.32,-7.422 8.664,-1.594 l 2.219,11.156 h 8.352 c 2.445,0 3.711,1.953 3.711,3.758 v 15.164 c 0,3.688 -5.25,3.688 -5.25,-0.055 0,-3.461 0,-11.812 0,-11.812 H 57.852 c -2.469,0 -4.031,-1.711 -4.422,-3.664 z" /><path
         inkscape:connector-curvature="0"
         id="path16-9"
         d="m 54.727,63.738 c 2.711,0.023 4.93,-2.172 4.93,-4.883 0.023,-2.734 -2.172,-4.93 -4.883,-4.953 -2.734,0 -4.93,2.195 -4.953,4.906 -10e-4,2.712 2.195,4.93 4.906,4.93 z" /><path
         inkscape:connector-curvature="0"
         id="path18-6"
         d="m 45.328,75.816 c -0.586,-3.164 3.586,-3.922 4.148,-0.781 l 1.852,9.961 c 0.414,2.055 1.93,3.836 4.078,4.469 0.688,0.195 1.367,0.219 2.031,0.266 l 6.023,0.055 c 3.203,-0.031 3.18,4.195 -0.047,4.172 l -6.344,-0.023 c -0.953,0 -1.93,-0.125 -2.906,-0.414 -3.758,-1.125 -6.375,-4.227 -7.055,-7.812 z" /><path
         inkscape:connector-curvature="0"
         id="path20-5"
         d="m 83.367,80.527 c -0.898,-5.711 7.328,-7.414 8.641,-1.609 l 2.25,11.156 8.352,0.023 c 2.414,0 3.688,1.953 3.688,3.766 v 15.156 c 0,3.688 -5.25,3.664 -5.25,-0.07 0,-3.469 0,-11.797 0,-11.797 h -10.65 c -2.492,0 -4.055,-1.703 -4.445,-3.656 z" /><path
         inkscape:connector-curvature="0"
         id="path22-94"
         d="m 87.25,74.387 c 2.734,0 4.93,-2.203 4.953,-4.914 0,-2.703 -2.195,-4.93 -4.906,-4.93 -2.711,-0.023 -4.93,2.172 -4.93,4.883 -0.023,2.734 2.172,4.929 4.883,4.961 z" /><path
         inkscape:connector-curvature="0"
         id="path24-3"
         d="m 77.852,86.441 c -0.57,-3.18 3.586,-3.938 4.172,-0.758 l 1.836,9.93 c 0.414,2.078 1.922,3.859 4.102,4.5 0.656,0.188 1.336,0.219 2,0.266 l 6.031,0.023 c 3.195,-0.023 3.172,4.195 -0.055,4.195 l -6.32,-0.047 c -0.977,0 -1.953,-0.117 -2.93,-0.414 -3.734,-1.102 -6.344,-4.195 -7.031,-7.789 z" /></g></g></g></svg>