<?xml version="1.0" encoding="UTF-8" standalone="no"?>
<!-- Generator: Adobe Illustrator 11.0, SVG Export Plug-In  -->

<!-- hand edited from http://commons.wikimedia.org/wiki/Image:1_9_2_44.svg -->

<svg
   xmlns:dc="http://purl.org/dc/elements/1.1/"
   xmlns:cc="http://creativecommons.org/ns#"
   xmlns:rdf="http://www.w3.org/1999/02/22-rdf-syntax-ns#"
   xmlns:svg="http://www.w3.org/2000/svg"
   xmlns="http://www.w3.org/2000/svg"
   xmlns:sodipodi="http://sodipodi.sourceforge.net/DTD/sodipodi-0.dtd"
   xmlns:inkscape="http://www.inkscape.org/namespaces/inkscape"
   width="50"
   height="50"
   viewBox="140 90 33.75 33.75"
   xml:space="preserve"
   id="svg2"
   version="1.0"
   sodipodi:docname="S_OtherServices.svg"
   inkscape:version="0.92.3 (unknown)"><title
   id="title989">NACE Section S Classification Visual</title><defs
   id="defs5729" /><sodipodi:namedview
   pagecolor="#ffffff"
   bordercolor="#666666"
   borderopacity="1"
   objecttolerance="10"
   gridtolerance="10"
   guidetolerance="10"
   inkscape:pageopacity="0"
   inkscape:pageshadow="2"
   inkscape:window-width="1853"
   inkscape:window-height="1021"
   id="namedview5727"
   showgrid="false"
   inkscape:zoom="2.36"
   inkscape:cx="-187.18221"
   inkscape:cy="-20.338978"
   inkscape:window-x="0"
   inkscape:window-y="0"
   inkscape:window-maximized="0"
   inkscape:current-layer="g11986" /><metadata
   id="metadata19"><rdf:RDF><cc:Work
       rdf:about=""><cc:license
         rdf:resource="http://creativecommons.org/licenses/by-sa/2.5/" /><dc:format>image/svg+xml</dc:format><dc:type
         rdf:resource="http://purl.org/dc/dcmitype/StillImage" /><dc:title>NACE Section S Classification Visual</dc:title><dc:creator><cc:Agent><dc:title>Open Risk</dc:title></cc:Agent></dc:creator><dc:publisher><cc:Agent><dc:title>https://www.openriskmanagement.com</dc:title></cc:Agent></dc:publisher><dc:identifier>S_OtherServices_Square</dc:identifier><dc:date>2018</dc:date><dc:rights><cc:Agent><dc:title>Creative Commons Attribution + Share-Alike  (CC-BY-SA)</dc:title></cc:Agent></dc:rights><dc:description>Comb and scissors as representative of diverse other service activities</dc:description></cc:Work><cc:License
       rdf:about="http://creativecommons.org/licenses/by-sa/2.5/"><cc:permits
         rdf:resource="http://web.resource.org/cc/Reproduction" /><cc:permits
         rdf:resource="http://web.resource.org/cc/Distribution" /><cc:requires
         rdf:resource="http://web.resource.org/cc/Notice" /><cc:requires
         rdf:resource="http://web.resource.org/cc/Attribution" /><cc:permits
         rdf:resource="http://web.resource.org/cc/DerivativeWorks" /><cc:requires
         rdf:resource="http://web.resource.org/cc/ShareAlike" /></cc:License></rdf:RDF></metadata>
	
<g
   id="g11986"
   transform="matrix(0.14398343,0,0,0.15557073,109.34664,83.778741)"><g
     id="g3091"
     transform="matrix(5.2089327,0,0,4.8209582,157.27663,-1061.7566)"><rect
       ry="3.5956879"
       rx="3.2442858"
       y="229.86835"
       x="12.247394"
       height="42.857143"
       width="42.857143"
       id="rect21547-2-2-4-6-4-2-9-3-8-2-4-4-3-3-4-8-8-8"
       style="opacity:1;fill:#ffffff;fill-opacity:1;stroke:#000000;stroke-width:2.14285707;stroke-miterlimit:4;stroke-dasharray:none;stroke-dashoffset:0;stroke-opacity:1" /><g
       transform="matrix(0.33974624,0,0,0.33974624,21.520135,235.09992)"
       id="g853"><path
         d="M 49.828,11.8 H 35.259 c -2.633,0.008 -2.536,3.907 0,3.885 h 14.568 v 1.99 H 35.259 c -2.62,-0.019 -2.524,3.877 0,3.887 h 14.568 v 1.94 0.098 H 35.259 c -2.62,0 -2.524,3.897 0,3.884 h 14.568 v 1.945 H 35.259 c -2.565,0.018 -2.524,3.917 0,3.933 h 14.568 v 1.943 H 35.259 c -2.565,-0.011 -2.574,3.888 0,3.885 h 14.568 v 1.942 H 35.259 c -2.565,0.008 -2.574,3.907 0,3.884 h 14.568 v 1.991 H 35.259 c -2.565,-0.019 -2.574,3.88 0,3.886 h 14.568 v 1.943 H 35.259 c -2.565,-0.002 -2.524,3.897 0,3.884 h 14.568 v 37.834 c 0.009,5.764 8.817,5.661 8.84,0 V 6.021 C 58.645,3.39 56.47,0.059 52.888,0.048 H 35.259 c -2.635,0.003 -2.538,3.9 0,3.884 L 49.828,3.98 V 5.923 H 35.259 c -2.63,-0.018 -2.533,3.88 0,3.884 H 49.827 V 11.8 Z"
         id="path2-78"
         inkscape:connector-curvature="0" /><path
         d="m 32.927,88.191 c -0.465,3.187 0.62,8.925 2.914,11.025 2.367,2.163 5.184,-0.607 4.031,-2.865 -1.188,-2.229 -2.673,-3.448 -1.407,-8.79 z"
         id="path4-2"
         inkscape:connector-curvature="0" /><path
         d="M 28.315,69.594 V 43.853 L 23.409,1.407 C 23.295,0.283 22.596,0.021 21.953,0 21.286,0.021 20.589,0.283 20.446,1.407 L 15.687,43.853 V 69.594 C 6.742,64.905 0.007,72.19 0,78.819 c 0.007,5.896 4.355,10.744 10.539,10.733 6.229,0.011 10.474,-5.418 10.49,-10.733 V 52.935 H 23.02 V 78.82 c -0.013,6.136 4.952,10.672 10.296,10.686 6.662,-0.014 10.919,-4.72 10.927,-10.639 C 44.235,72.141 37.297,64.905 28.315,69.594 Z M 10.491,84.162 c -2.926,-0.014 -5.29,-2.378 -5.294,-5.296 0.004,-2.915 2.368,-5.277 5.294,-5.291 2.906,0.014 5.27,2.376 5.293,5.291 -0.023,2.918 -2.387,5.282 -5.293,5.296 z m 23.263,0 c -2.915,-0.014 -5.278,-2.378 -5.295,-5.296 0.017,-2.915 2.38,-5.277 5.295,-5.291 2.917,0.014 5.282,2.376 5.292,5.291 -0.01,2.918 -2.375,5.282 -5.292,5.296 z"
         id="path6-8"
         inkscape:connector-curvature="0" /><path
         d="M 33.754,78.866"
         id="path8-87"
         inkscape:connector-curvature="0" /><path
         d="M 81.785,5.389"
         id="path12-6"
         inkscape:connector-curvature="0" /></g></g></g></svg>