<?xml version="1.0" encoding="UTF-8" standalone="no"?>
<!-- Generator: Adobe Illustrator 11.0, SVG Export Plug-In  -->

<!-- hand edited from http://commons.wikimedia.org/wiki/Image:1_9_2_44.svg -->

<svg
   xmlns:dc="http://purl.org/dc/elements/1.1/"
   xmlns:cc="http://creativecommons.org/ns#"
   xmlns:rdf="http://www.w3.org/1999/02/22-rdf-syntax-ns#"
   xmlns:svg="http://www.w3.org/2000/svg"
   xmlns="http://www.w3.org/2000/svg"
   xmlns:sodipodi="http://sodipodi.sourceforge.net/DTD/sodipodi-0.dtd"
   xmlns:inkscape="http://www.inkscape.org/namespaces/inkscape"
   width="50"
   height="50"
   viewBox="140 90 33.75 33.75"
   xml:space="preserve"
   id="svg2"
   version="1.0"
   sodipodi:docname="T_Households.svg"
   inkscape:version="0.92.3 (unknown)"><title
   id="title989">NACE Section T Classification Visual</title><defs
   id="defs5729" /><sodipodi:namedview
   pagecolor="#ffffff"
   bordercolor="#666666"
   borderopacity="1"
   objecttolerance="10"
   gridtolerance="10"
   guidetolerance="10"
   inkscape:pageopacity="0"
   inkscape:pageshadow="2"
   inkscape:window-width="1853"
   inkscape:window-height="1021"
   id="namedview5727"
   showgrid="false"
   inkscape:zoom="2.36"
   inkscape:cx="-187.18221"
   inkscape:cy="-20.338978"
   inkscape:window-x="0"
   inkscape:window-y="0"
   inkscape:window-maximized="0"
   inkscape:current-layer="g11986" /><metadata
   id="metadata19"><rdf:RDF><cc:Work
       rdf:about=""><cc:license
         rdf:resource="http://creativecommons.org/licenses/by-sa/2.5/" /><dc:format>image/svg+xml</dc:format><dc:type
         rdf:resource="http://purl.org/dc/dcmitype/StillImage" /><dc:title>NACE Section T Classification Visual</dc:title><dc:creator><cc:Agent><dc:title>Open Risk</dc:title></cc:Agent></dc:creator><dc:publisher><cc:Agent><dc:title>https://www.openriskmanagement.com</dc:title></cc:Agent></dc:publisher><dc:identifier>T_Households_Square</dc:identifier><dc:date>2018</dc:date><dc:rights><cc:Agent><dc:title>Creative Commons Attribution + Share-Alike  (CC-BY-SA)</dc:title></cc:Agent></dc:rights><dc:description>Female, male and child figures are representative of economic activity produced by households</dc:description></cc:Work><cc:License
       rdf:about="http://creativecommons.org/licenses/by-sa/2.5/"><cc:permits
         rdf:resource="http://web.resource.org/cc/Reproduction" /><cc:permits
         rdf:resource="http://web.resource.org/cc/Distribution" /><cc:requires
         rdf:resource="http://web.resource.org/cc/Notice" /><cc:requires
         rdf:resource="http://web.resource.org/cc/Attribution" /><cc:permits
         rdf:resource="http://web.resource.org/cc/DerivativeWorks" /><cc:requires
         rdf:resource="http://web.resource.org/cc/ShareAlike" /></cc:License></rdf:RDF></metadata>
	
<g
   id="g11986"
   transform="matrix(0.14398343,0,0,0.15557073,109.34664,83.778741)"><g
     id="g3117"
     transform="matrix(5.2089327,0,0,4.8209582,-75.218891,-1061.2065)"><rect
       ry="3.5956879"
       rx="3.2442858"
       y="230.1356"
       x="56.881401"
       height="42.857143"
       width="42.857143"
       id="rect21547-2-2-4-6-4-2-9-3-8-2-4-4-3-3-4-8-8-8-9"
       style="opacity:1;fill:#ffffff;fill-opacity:1;stroke:#000000;stroke-width:2.14285707;stroke-miterlimit:4;stroke-dasharray:none;stroke-dashoffset:0;stroke-opacity:1" /><g
       id="g852"
       transform="matrix(0.05637175,0,0,0.05637175,60.966452,234.85249)"><circle
         cx="130.9501"
         cy="46.58577"
         r="46.545212"
         id="circle4" /><path
         d="m 124.50539,388.15534 v 161.83399 c -0.24346,29.40221 -44.010414,29.40221 -44.397086,0 V 388.15534 H 22.821751 L 84.404788,171.89962 H 74.379644 L 38.57554,295.0651 C 29.524278,322.30474 -7.3109962,311.27714 1.3392857,282.17574 L 41.43986,148.98509 c 4.611576,-15.29544 23.8885,-42.30448 57.286572,-42.96472 h 64.447408 c 32.43566,0.66024 51.79279,27.89844 57.28657,42.96472 l 40.1006,133.19065 c 8.1347,28.95816 -28.40842,40.84508 -37.23628,12.88936 l -35.8041,-123.16548 h -11.45732 l 63.01524,216.25572 H 180.3598 v 161.83399 c 0.4583,29.40221 -43.13678,29.25897 -42.96493,0 V 388.15534 Z"
         id="path6-0"
         inkscape:connector-curvature="0" /><path
         d="m 462.49589,106.02037 c -35.78976,0 -58.71876,30.98756 -58.71876,61.58276 v 143.21573 c -0.3294,27.98432 39.966,27.98432 40.10064,0 V 179.06038 h 10.02512 v 363.76815 c -0.62156,37.98085 53.04736,36.89241 52.99008,0 V 330.86906 h 8.593 v 211.95947 c 0.70176,36.89241 54.65136,37.98085 54.4222,0 V 179.06038 h 10.02516 v 131.75848 c -0.4726,28.19916 39.61368,28.19916 40.10056,0 V 167.60313 c -0.5728,-30.5952 -24.36108,-61.03424 -60.15084,-61.58276 z"
         id="path8-4"
         inkscape:connector-curvature="0" /><circle
         cx="511.90546"
         cy="46.58577"
         r="46.545212"
         id="circle10-9" /><path
         d="m 290.08144,389.83385 c -30.01456,0 -49.24362,11.5485 -49.24362,22.95075 v 53.37384 c -0.27625,10.42923 33.51689,10.42923 33.6298,0 V 417.0545 h 8.40742 v 135.56964 c -0.52126,14.15476 44.48739,13.74912 44.43935,0 v -78.99336 h 7.20639 v 78.99336 c 0.58852,13.74912 45.83256,14.15476 45.64037,0 V 417.0545 h 8.40746 v 49.10394 c -0.39634,10.50931 33.22142,10.50931 33.62974,0 V 412.7846 c -0.48037,-11.40225 -20.43006,-22.74632 -50.44461,-22.95075 z"
         id="path12-1"
         inkscape:connector-curvature="0" /><ellipse
         cx="330.483"
         cy="341.70099"
         rx="39.0345"
         ry="35.4095"
         id="ellipse14" /></g></g></g></svg>